<svg width="38" height="38" viewBox="0 0 38 38" fill="none" xmlns="http://www.w3.org/2000/svg">
<path d="M19.0001 0.666992C8.88008 0.666992 0.666748 8.88033 0.666748 19.0003C0.666748 29.1203 8.88008 37.3337 19.0001 37.3337C29.1201 37.3337 37.3334 29.1203 37.3334 19.0003C37.3334 8.88033 29.1201 0.666992 19.0001 0.666992ZM19.0001 6.16699C22.0434 6.16699 24.5001 8.62366 24.5001 11.667C24.5001 14.7103 22.0434 17.167 19.0001 17.167C15.9567 17.167 13.5001 14.7103 13.5001 11.667C13.5001 8.62366 15.9567 6.16699 19.0001 6.16699ZM19.0001 32.2003C14.4167 32.2003 10.3651 29.8537 8.00008 26.297C8.05508 22.6487 15.3334 20.6503 19.0001 20.6503C22.6484 20.6503 29.9451 22.6487 30.0001 26.297C27.6351 29.8537 23.5834 32.2003 19.0001 32.2003Z" fill="#DADADA"/>
</svg>
