<svg width="10" height="10" viewBox="0 0 10 10" fill="none" xmlns="http://www.w3.org/2000/svg">
<path fill-rule="evenodd" clip-rule="evenodd" d="M0.416992 4.99984C0.416992 2.45817 2.45866 0.416504 5.00033 0.416504C7.54199 0.416504 9.58366 2.45817 9.58366 4.99984C9.58366 7.5415 7.54199 9.58317 5.00033 9.58317C2.45866 9.58317 0.416992 7.5415 0.416992 4.99984ZM1.25033 4.99984C1.25033 7.08317 2.91699 8.74984 5.00033 8.74984C7.08366 8.74984 8.75033 7.08317 8.75033 4.99984C8.75033 2.9165 7.08366 1.24984 5.00033 1.24984C2.91699 1.24984 1.25033 2.9165 1.25033 4.99984Z" fill="black"/>
<mask id="mask0_64_4054" style="mask-type:luminance" maskUnits="userSpaceOnUse" x="0" y="0" width="10" height="10">
<path fill-rule="evenodd" clip-rule="evenodd" d="M0.416992 4.99984C0.416992 2.45817 2.45866 0.416504 5.00033 0.416504C7.54199 0.416504 9.58366 2.45817 9.58366 4.99984C9.58366 7.5415 7.54199 9.58317 5.00033 9.58317C2.45866 9.58317 0.416992 7.5415 0.416992 4.99984ZM1.25033 4.99984C1.25033 7.08317 2.91699 8.74984 5.00033 8.74984C7.08366 8.74984 8.75033 7.08317 8.75033 4.99984C8.75033 2.9165 7.08366 1.24984 5.00033 1.24984C2.91699 1.24984 1.25033 2.9165 1.25033 4.99984Z" fill="white"/>
</mask>
<g mask="url(#mask0_64_4054)">
<rect width="10" height="10" fill="#919191"/>
</g>
</svg>
