<svg width="14" height="14" viewBox="0 0 14 14" fill="none" xmlns="http://www.w3.org/2000/svg">
<path fill-rule="evenodd" clip-rule="evenodd" d="M12.6003 4.7933L7.35033 0.714597C7.11699 0.539796 6.82533 0.539796 6.65033 0.714597L1.40033 4.7933C1.22533 4.90983 1.16699 5.08463 1.16699 5.25943V11.6688C1.16699 12.6594 1.92533 13.4168 2.91699 13.4168H11.0837C12.0753 13.4168 12.8337 12.6594 12.8337 11.6688V5.25943C12.8337 5.08463 12.7753 4.90983 12.6003 4.7933ZM8.16699 7.59012V12.2515H5.83366V7.59012H8.16699ZM11.0837 12.2515C11.4337 12.2515 11.667 12.0184 11.667 11.6688V5.55077L7.00033 1.93821L2.33366 5.55077V11.6688C2.33366 12.0184 2.56699 12.2515 2.91699 12.2515H4.66699V7.00745C4.66699 6.65784 4.90033 6.42477 5.25033 6.42477H8.75033C9.10033 6.42477 9.33366 6.65784 9.33366 7.00745V12.2515H11.0837Z" fill="black"/>
<mask id="mask0_64_3133" style="mask-type:luminance" maskUnits="userSpaceOnUse" x="1" y="0" width="12" height="14">
<path fill-rule="evenodd" clip-rule="evenodd" d="M12.6003 4.7933L7.35033 0.714597C7.11699 0.539796 6.82533 0.539796 6.65033 0.714597L1.40033 4.7933C1.22533 4.90983 1.16699 5.08463 1.16699 5.25943V11.6688C1.16699 12.6594 1.92533 13.4168 2.91699 13.4168H11.0837C12.0753 13.4168 12.8337 12.6594 12.8337 11.6688V5.25943C12.8337 5.08463 12.7753 4.90983 12.6003 4.7933ZM8.16699 7.59012V12.2515H5.83366V7.59012H8.16699ZM11.0837 12.2515C11.4337 12.2515 11.667 12.0184 11.667 11.6688V5.55077L7.00033 1.93821L2.33366 5.55077V11.6688C2.33366 12.0184 2.56699 12.2515 2.91699 12.2515H4.66699V7.00745C4.66699 6.65784 4.90033 6.42477 5.25033 6.42477H8.75033C9.10033 6.42477 9.33366 6.65784 9.33366 7.00745V12.2515H11.0837Z" fill="white"/>
</mask>
<g mask="url(#mask0_64_3133)">
<rect width="14" height="14" fill="#7367F0"/>
</g>
</svg>
