<svg width="20" height="21" viewBox="0 0 20 21" fill="none" xmlns="http://www.w3.org/2000/svg">
<path fill-rule="evenodd" clip-rule="evenodd" d="M14.3337 13.6667L18.0837 17.4167C18.417 17.75 18.417 18.25 18.0837 18.5833C17.917 18.75 17.667 18.8333 17.5003 18.8333C17.3337 18.8333 17.0837 18.75 16.917 18.5833L13.167 14.8333C11.917 15.75 10.417 16.3333 8.75033 16.3333C4.83366 16.3333 1.66699 13.1667 1.66699 9.24999C1.66699 5.33332 4.83366 2.16666 8.75033 2.16666C12.667 2.16666 15.8337 5.33332 15.8337 9.24999C15.8337 10.9167 15.2503 12.5 14.3337 13.6667ZM8.75033 3.83332C5.75033 3.83332 3.33366 6.24999 3.33366 9.24999C3.33366 12.25 5.75033 14.6667 8.75033 14.6667C10.2503 14.6667 11.5837 14.0833 12.5837 13.0833C13.5837 12.0833 14.167 10.75 14.167 9.24999C14.167 6.24999 11.7503 3.83332 8.75033 3.83332Z" fill="black"/>
<mask id="mask0_64_3256" style="mask-type:luminance" maskUnits="userSpaceOnUse" x="1" y="2" width="18" height="17">
<path fill-rule="evenodd" clip-rule="evenodd" d="M14.3337 13.6667L18.0837 17.4167C18.417 17.75 18.417 18.25 18.0837 18.5833C17.917 18.75 17.667 18.8333 17.5003 18.8333C17.3337 18.8333 17.0837 18.75 16.917 18.5833L13.167 14.8333C11.917 15.75 10.417 16.3333 8.75033 16.3333C4.83366 16.3333 1.66699 13.1667 1.66699 9.24999C1.66699 5.33332 4.83366 2.16666 8.75033 2.16666C12.667 2.16666 15.8337 5.33332 15.8337 9.24999C15.8337 10.9167 15.2503 12.5 14.3337 13.6667ZM8.75033 3.83332C5.75033 3.83332 3.33366 6.24999 3.33366 9.24999C3.33366 12.25 5.75033 14.6667 8.75033 14.6667C10.2503 14.6667 11.5837 14.0833 12.5837 13.0833C13.5837 12.0833 14.167 10.75 14.167 9.24999C14.167 6.24999 11.7503 3.83332 8.75033 3.83332Z" fill="white"/>
</mask>
<g mask="url(#mask0_64_3256)">
<rect y="0.499985" width="20" height="20" fill="#6E6B7B"/>
</g>
</svg>
