<svg xmlns="http://www.w3.org/2000/svg" viewBox="0 0 383.26 308.98"><g id="Слой_2" data-name="Слой 2"><g id="Слой_1-2" data-name="Слой 1"><path d="M0,33c3.23-8.87,9.7-12.45,18.9-11.85,3.58.23,7.18,0,11.32,0,0-2,0-3.72,0-5.41C30.52,6.24,36.67.08,46.13.07Q109.19,0,172.25.05a26.68,26.68,0,0,1,18.52,7.07c5-2.25,9.62-4.54,14.42-6.36,2-.76,4.42-.68,6.65-.68C225.69,0,239.54.1,253.38,0c3.88,0,6.66,1.37,8.68,4.72,2.7,4.46,5.61,8.79,8.64,13.5,4.21-4.87,8.29-9.41,12.14-14.13A10.74,10.74,0,0,1,292,0c14.71.12,29.44,0,44.16.05,10.7,0,16.75,6,16.91,16.6,0,1.35,0,2.7,0,4.53,4.66,0,9,0,13.32,0,10.89.08,16.88,6.1,16.89,17q0,33,0,66c0,.75,0,1.5,0,2.25-.25,4.57-3.32,7.65-7.56,7.61s-7.34-3.16-7.37-7.78c-.08-13.12,0-26.25,0-39.37,0-10,0-20,0-30.3H353v5q0,107.43,0,214.86a45.72,45.72,0,0,1-.19,5.24c-.93,7.74-6.77,13.34-14.54,13.49-11,.19-22,.06-32.94.06a7.92,7.92,0,0,1-7.67-5c-1.58-3.36-3.25-6.69-5.05-10.39-8,4.06-15.83,7.81-23.43,12A27.61,27.61,0,0,1,255,275.26c-15.46-.21-30.93-.08-46.4-.08h-4.76c5.85,7.51,12.53,12.62,20.66,15.32a55.41,55.41,0,0,0,16.75,3.25c41.42.27,82.84.15,124.25.14.74,0,1.48-.07,2.82-.14v-4.36q0-56.25,0-112.5a33.26,33.26,0,0,1,.07-3.74,7.46,7.46,0,0,1,14.81-.12,27.55,27.55,0,0,1,.1,3.75V291.52q0,17.39-17.56,17.41c-40.3,0-80.59-.12-120.88.05-21,.09-38.41-7.28-52-23.39-.31-.35-.69-.64-.95-.89-3.93,3.69-7.5,7.53-11.56,10.76a60.15,60.15,0,0,1-38.08,13.42c-42.29.13-84.58.05-126.87.05C7.14,308.93,2.66,304.12,0,297ZM45.46,260.15c9.85,0,19.2.12,28.54-.11a7.63,7.63,0,0,0,4.87-2.43c3.91-4.37,7.43-9.07,11.19-13.57,5.54-6.63,13.51-6.46,18.72.4,3.17,4.17,6.33,8.36,9.24,12.72a6.13,6.13,0,0,0,5.79,3c18.83-.12,37.66-.06,56.49-.07,1.2,0,2.4-.11,3.83-.18v-4q0-113.76,0-227.51c0-9-4.35-13.32-13.3-13.32H45.46Zm292.23,0v-245c-14.42,0-28.5-.05-42.59.08A5.31,5.31,0,0,0,291.74,17c-4,4.44-7.86,9-11.8,13.56-6.58,7.56-14.63,7.06-20-1.26-2.38-3.66-4.84-7.28-7-11.07A5.61,5.61,0,0,0,247.26,15c-11.47.17-22.95.07-34.42.07-9.5,0-13.72,4.2-13.72,13.66V260c1.11.08,1.71.16,2.32.16,18.45,0,36.91,0,55.37-.05a10.8,10.8,0,0,0,4.57-1.26c8.91-4.46,17.76-9,26.65-13.57,7.33-3.72,13.34-1.7,17,5.7,1.17,2.34,2.12,4.81,3.47,7a4.43,4.43,0,0,0,3,2.05C320.1,260.21,328.7,260.14,337.69,260.14ZM99.14,256.68c-4.11,5-7.91,9.5-11.47,14.15a10.6,10.6,0,0,1-9.34,4.4c-8.6-.16-17.21,0-25.82-.05a85,85,0,0,1-8.6-.12c-8.6-.85-13.69-7.41-13.69-17.46q0-108,0-216V36.51h-15V293.72c1.27.06,2.36.17,3.45.17,41,0,82.08.12,123.12-.13a55.6,55.6,0,0,0,16.78-3.11c8.23-2.74,15-7.86,20.92-15.47h-4.8c-18.58,0-37.17-.08-55.75.06-4.44,0-7.58-1.47-10-5.17C105.9,265.61,102.59,261.39,99.14,256.68Z"/><path d="M383.22,140.36a7.47,7.47,0,1,1-7.2-7.58A7.52,7.52,0,0,1,383.22,140.36Z"/><path d="M112.48,126.05q-18.51,0-37,0c-5.56,0-8.83-2.77-8.87-7.39s3.37-7.59,8.74-7.59q37.2,0,74.4,0c5.4,0,8.86,3,8.9,7.46s-3.36,7.51-8.78,7.52C137.4,126.07,124.94,126.05,112.48,126.05Z"/><path d="M112.58,149.18q18.49,0,37,0c5.7,0,9.16,2.95,9,7.61-.11,4.5-3.55,7.37-9,7.37q-37.2,0-74.4,0c-4.69,0-7.88-2.39-8.55-6.2a7.25,7.25,0,0,1,4.49-8.15,12.66,12.66,0,0,1,4.38-.61C87.9,149.16,100.24,149.18,112.58,149.18Z"/><path d="M112.77,88c-12.83,0-25.66.06-38.49,0-4.51,0-7.49-3-7.67-7s2.78-7.42,7.32-7.84c1.12-.11,2.24-.06,3.36-.06h55.32c6.23,0,12.47-.12,18.69.1a7.43,7.43,0,0,1,2.18,14.51A17.82,17.82,0,0,1,149,88q-18.12,0-36.26,0Z"/><path d="M112.56,187.25h38.13c3.45,0,6,1.4,7.36,4.68,1.25,3,.73,5.89-1.64,7.85a10.32,10.32,0,0,1-6,2.35c-25.17.16-50.33.14-75.5.07-5.14,0-8.36-3.2-8.29-7.66s3.27-7.26,8.59-7.28C87.65,187.21,100.11,187.24,112.56,187.25Z"/><path d="M268.36,126.05q-18.5,0-37,0c-5.37,0-8.86-3-8.86-7.47s3.53-7.51,8.87-7.51q37.2,0,74.39,0c5.54,0,8.75,2.83,8.75,7.53s-3.19,7.44-8.76,7.45Q287.06,126.07,268.36,126.05Z"/><path d="M268.73,149.18q18.51,0,37,0c5.58,0,8.76,2.75,8.77,7.44s-3.25,7.53-8.75,7.54q-37.18,0-74.39,0c-5.34,0-8.86-3-8.87-7.52s3.47-7.45,8.85-7.46Q250,149.16,268.73,149.18Z"/><path d="M268.24,88c-12.7,0-25.41.06-38.12,0a7.35,7.35,0,0,1-7.62-7.14c-.17-4.1,3-7.36,7.49-7.75,1.11-.1,2.24-.05,3.36-.05h63.91c2.74,0,5.48,0,8.22,0,5.79.07,9.09,2.89,9,7.65S311.26,88,305.62,88c-12.46,0-24.92,0-37.38,0Z"/><path d="M268.58,187.25c12.7,0,25.41,0,38.12,0,3.94,0,6.77,2.16,7.61,5.39a7.17,7.17,0,0,1-3.42,8.35,11.57,11.57,0,0,1-5,1.17q-37.38.1-74.75,0c-5.34,0-8.8-3.25-8.66-7.73s3.44-7.21,8.71-7.22C243.66,187.21,256.12,187.24,268.58,187.25Z"/></g></g></svg>