<svg xmlns="http://www.w3.org/2000/svg" viewBox="0 0 478.11 478.99"><defs><style>.cls-1{fill:#fff;}</style></defs><g id="Слой_2" data-name="Слой 2"><g id="Слой_1-2" data-name="Слой 1"><path d="M0,19.63c1.73-3.44,3-7.2,5.27-10.25C10.5,2.29,18,0,26.62,0Q98.41.11,170.2,0q85.37,0,170.72,0c13,0,22.45,6.61,25.31,17.89a38.24,38.24,0,0,1,.88,9.26q.09,71.57,0,143.12a23.47,23.47,0,0,1-.45,5.57,7.09,7.09,0,0,1-7,5.77c-3.89.2-6.72-1.59-7.82-5.3a25,25,0,0,1-.67-6.93q-.06-70.4,0-140.78c0-10.59-2-12.67-12.46-12.67H28.6c-10.5,0-12.66,2.14-12.66,12.54V450.86c0,9.89,2.28,12.2,12,12.2H339c9.89,0,12.12-2.22,12.13-12.05q0-35.77,0-71.56a24.94,24.94,0,0,1,.61-6.47c1-3.76,3.79-5.62,7.67-5.49s6.47,2.19,7.27,6a30.48,30.48,0,0,1,.41,6.05c0,22.76-.47,45.53.18,68.28.43,15.13-4.24,26.1-19.29,31.16H19.65Q4.44,474.55,0,459.35Z"/><path class="cls-1" d="M0,459.35Q4.44,474.56,19.65,479H0Z"/><path d="M447,198.18c-1,1.67-1.88,3.11-2.72,4.58-20.91,36.3-41.46,72.81-62.94,108.77-6.66,11.13-16,20.64-23.87,31.07-5.62,7.43-11.15,15-16.17,22.82-6.12,9.55-14.19,14.5-25.76,13.37a6.23,6.23,0,0,0-4.53,2.08c-5.29,6.34-10.26,12.94-15.47,19.36-9.41,11.6-23.4,9.57-29.12-4.16-1.35-3.25-2.65-6.52-4.23-10.39-1.75,2.39-3,4.27-4.44,6a15,15,0,0,1-15.84,5.56c-6.19-1.42-10.79-5.38-11.73-11.91-1.28-8.92-1.89-17.95-2.79-26.93a10.39,10.39,0,0,0-1.45-5c-1.38,4-2.78,8-4.12,12.09-4.67,14-9.3,28.06-14,42.07-2,6.07-5.58,8.44-10.15,6.93-5.17-1.71-6.94-5.92-4.89-12.13q9.16-27.69,18.47-55.34c2.93-8.67,9.35-13,17.55-12.24,7.53.75,13.11,6.69,14.07,15.65,1,9.68,1.68,19.4,2.57,30.06,1.84-2.52,3-4.3,4.34-5.93,7.21-8.78,20.42-7.81,25.95,2.13,2.4,4.32,4,9.06,6.28,14.24,5.72-7,11.26-13.63,16.54-20.45.62-.81.21-2.88-.35-4.06-3.48-7.18-4.25-14.68-.29-21.57,10.32-18,16.13-37.73,23.75-56.78a69.85,69.85,0,0,1,4.14-8.85q31.35-54.47,62.8-108.86c.77-1.34,1.51-2.71,2.35-4.24-5-3.88-14.25-6.08-9.39-14.75s11.55-2.12,17.66.62l18.25-31.14c4-6.79,5.11-7.38,13.07-6.65,4.25-8.17,9.34-15.82,19.41-17.81a23.81,23.81,0,0,1,17.16,2.73c12.87,7.54,14.41,19.6,5,39.82,4.84,4.36,3.8,9,.73,14.1-6.09,10.14-11.86,20.48-18.05,31.22,1.86,1.14,3.65,2.25,5.46,3.33,13.34,7.92,17,21.31,9.37,34.83-9.92,17.47-20,34.83-30.1,52.21-3.16,5.47-7.7,7.15-11.91,4.63s-4.93-7-1.68-12.71q13.83-24.1,27.78-48.15C460.31,207,459.52,204.42,447,198.18ZM369,300.58c21.41-37.11,42.53-73.7,63.82-110.61l-27.62-16c-21.38,37.07-42.56,73.77-63.83,110.62Zm87.77-152-27.61-15.95-16,27.62,27.63,15.92Zm-122,150.62c-3.88,10.39-7.55,20.23-11.3,30.3l15.75,9.19,20.65-24.95ZM444,122.76l13.87,7.91c2.58-5,7.19-9,3.81-14.47a10,10,0,0,0-7.14-4C448.12,112.06,447.13,118.21,444,122.76ZM330.73,352.27l-13.81-7.82c-2.65,4.84-7.07,8.93-3.8,14.34a9.86,9.86,0,0,0,7.1,4C326.57,362.89,327.74,356.92,330.73,352.27Z"/><path d="M88.08,63.85v16h6.07q94.24,0,188.49,0a33.44,33.44,0,0,1,6.49.5c4.13.83,6.13,3.83,6,7.76s-2.29,6.76-6.46,7.39a37.28,37.28,0,0,1-5.59.32H84.3c-10.37,0-12.39-2-12.39-12.19,0-8.41,0-16.83,0-25.25,0-7.68,2.75-10.46,10.41-10.49,17.31-.06,34.61,0,51.92,0q74.37,0,148.74,0a25,25,0,0,1,6.92.73c3.75,1.11,5.5,4.11,5.21,7.88a7.17,7.17,0,0,1-6.33,7,37.07,37.07,0,0,1-6.06.27H88.08Z"/><path d="M98.76,311.41c14.71.33,26.65,3.79,37.53,10.82,7,4.56,8.92,8.81,5.92,13.43s-7.53,4.5-14.72-.13a50.61,50.61,0,0,0-25.53-8C74,326.21,50.6,347,48,375.46c-2.49,27.32,17.91,51.62,46.45,55.34,26.33,3.43,51.83-16,56.3-42.89.46-2.76.56-5.57.86-8.35.55-5.2,3.87-8.4,8.41-8.18s7.41,3.65,7.47,9c.42,38.52-36.16,71.09-74.49,66.32-33.29-4.15-56.88-27.89-60.78-61.17-4.05-34.65,22.88-68.89,57.61-73.21C93.4,311.87,97,311.59,98.76,311.41Z"/><path d="M223.17,183.57H139.51a25.27,25.27,0,0,1-5.58-.31,7.17,7.17,0,0,1-6-6.87c-.32-3.67,1.23-6.5,4.62-7.81a18.12,18.12,0,0,1,6.41-.93q84.58-.06,169.19,0a17.18,17.18,0,0,1,5.95.83c3.62,1.35,5.32,4.22,4.88,8.1a7.16,7.16,0,0,1-6.13,6.71,28.87,28.87,0,0,1-5.59.28Z"/><path d="M143.1,231.54H68.82c-1.56,0-3.12.05-4.67-.09-5.1-.46-8.1-3.42-8.1-7.88s3-7.4,8.09-7.95a39.14,39.14,0,0,1,4.2-.09q75.45,0,150.9,0a25,25,0,0,1,6.48.6c3.75,1,5.64,3.76,5.53,7.64s-2.14,6.47-6,7.29a29.62,29.62,0,0,1-6,.45Q181.18,231.56,143.1,231.54Z"/><path d="M183.32,111.84q38.09,0,76.16,0c8.06,0,11.86,2.62,11.8,8s-3.89,8-11.95,8q-75.69,0-151.39,0a25,25,0,0,1-6.47-.63c-3.79-1-5.63-3.92-5.48-7.69s2.17-6.5,6.06-7.25a32,32,0,0,1,6-.39Q145.71,111.82,183.32,111.84Z"/><path d="M103.4,271.38c-12.47,0-24.94,0-37.41,0-6.43,0-10-2.87-9.95-7.92s3.62-8,10-8q37.88-.06,75.75,0c5.82,0,9.33,2.77,9.73,7.33.43,4.86-3.18,8.52-8.83,8.56C129.59,271.44,116.49,271.38,103.4,271.38Z"/><path d="M97.56,386.37c9.42-9.5,18-18.36,26.82-26.85,1.93-1.84,5.24-3.49,7.66-3.19s5.71,2.92,6.18,5.06a11.17,11.17,0,0,1-2.34,8.67c-6.87,7.62-14.35,14.69-21.62,21.95-2,2-3.9,4-6,5.83-6.35,5.35-14.71,5.56-20.87,0s-11.89-11.42-17.58-17.39c-3.43-3.59-3.29-8.2-.22-11.32,3.23-3.29,7.82-3.33,11.64.39C86.63,374.84,91.81,380.43,97.56,386.37Z"/><path d="M283,231.54c-8.1,0-16.19,0-24.28,0a20.92,20.92,0,0,1-5.55-.52,7.78,7.78,0,0,1-.44-14.75,16.68,16.68,0,0,1,5.52-.69q25.22-.08,50.42,0a20.76,20.76,0,0,1,4.16.43c4.06.86,6.12,3.5,6.23,7.58a7.15,7.15,0,0,1-6.68,7.61c-4.31.44-8.69.32-13,.36C293.91,231.58,288.46,231.54,283,231.54Z"/><path d="M203.27,271.38c-8.72,0-17.44.05-26.16,0-5.82-.05-9.57-3.33-9.46-8.06s3.7-7.81,9.3-7.83q26.63-.14,53.25,0c5.55,0,9.16,3.33,9.22,7.91.06,4.75-3.65,7.93-9.52,8C221,271.43,212.15,271.38,203.27,271.38Z"/></g></g></svg>