<svg xmlns="http://www.w3.org/2000/svg" viewBox="0 0 334.61 346.66"><g id="Слой_2" data-name="Слой 2"><g id="Слой_1-2" data-name="Слой 1"><path d="M317.32,270.87c0,5.75,0,11.1,0,16.45,0,4.58-1.47,6-6.06,6.05q-18.75,0-37.51,0h-4.43v46.34c0,5.94-1,6.93-7,6.93H12.9c-2.37,0-4.75,0-7.12,0-4.4-.07-5.77-1.45-5.77-5.89Q0,199.5.1,58.26a9,9,0,0,1,2.45-5.84q26-25.18,52.36-50A9.42,9.42,0,0,1,60.83.1Q161.92-.08,263,0c5.16,0,6.31,1.19,6.31,6.46q0,50.27,0,100.54v4.46c3,.34,5.75.47,8.41,1,15,2.87,25.4,16.73,23.2,31.86-3.36,23.11-7.3,46.13-11,69.2-.32,2-.6,3.94-1,6.34,8.5,0,16.83,0,25.17,0a29.85,29.85,0,0,1,6.68.64,17.52,17.52,0,0,1,13.72,17c.12,9.25.06,18.51,0,27.76,0,4.05-1.59,5.5-5.79,5.55C325.14,270.9,321.52,270.87,317.32,270.87ZM9.27,60.78V337.47H260.08V293.38H255.8q-21.57,0-43.13,0c-5,0-6.36-1.36-6.37-6.48s0-10.44,0-16c-4.31,0-8.28,0-12.24,0-3.16,0-4.86-1.64-5-4.82,0-.82-.1-1.64-.15-2.67H51a29.29,29.29,0,0,1-3.38-.05c-2.56-.3-4.15-1.7-4.19-4.38s1.5-4.15,4.06-4.51a23.68,23.68,0,0,1,3.37-.06h138V237.85H50.93c-1.25,0-2.84.43-3.67-.17-1.53-1.1-3.59-2.82-3.6-4.3s2.08-3.13,3.53-4.38c.59-.5,1.93-.15,2.93-.15h31.5q53.26,0,106.52,0c1.36,0,3.31-.22,4-1.1,4.79-6.36,11.24-8.15,18.82-7.91,7.83.25,15.67.06,23.72.06-.48-2.76-.88-5.06-1.31-7.51H51.16c-1.12,0-2.26.07-3.37,0-2.76-.26-4.43-1.71-4.39-4.59.05-2.67,1.67-4.06,4.24-4.34a31.54,31.54,0,0,1,3.37,0H232c-.93-5.72-1.78-11-2.68-16.51H135.75q-43.32,0-86.63,0c-3.12,0-5.51-.85-5.72-4.42-.17-2.92,1.83-4.51,5.54-4.59,1,0,2,0,3,0h176c-.95-5.79-1.82-11.06-2.71-16.51H50.87c-1.37,0-3.1.42-4-.24-1.44-1-3.22-2.82-3.21-4.28s1.81-3.23,3.26-4.24c1-.65,2.67-.23,4-.23H223.68c-.35-2.48-.67-4.55-.94-6.63-2.41-18.83,10.58-33.75,29.53-33.89,2.58,0,5.17,0,7.77,0V9.31H63.76V53.87c0,5.92-1,6.9-7,6.9ZM279.65,219c.25-1.07.54-2,.7-3,3.89-24.16,7.85-48.3,11.61-72.47a19.71,19.71,0,0,0-18.56-22.62c-7.73-.29-15.5-.29-23.23,0a19.8,19.8,0,0,0-18.58,22.62c2.33,15.05,4.77,30.08,7.2,45.11,1.63,10.09,3.32,20.16,5,30.34Zm28.48,51.91H249.81c-1.25,0-2.85.38-3.66-.23-1.44-1.09-3.31-2.81-3.32-4.26s1.87-3.18,3.3-4.26c.82-.62,2.42-.24,3.67-.24h75.6v-8.05H198.29v8.05c9,0,17.71,0,26.44,0,3.57,0,5.76,1.85,5.5,4.64-.29,3.24-2.42,4.39-5.45,4.35s-6.16,0-9.2,0v13.32h92.55ZM198,244.36H325.31c1.39-10.8-1.41-15.84-13.85-15.63-25.22.41-50.46.12-75.69.12-9.24,0-18.48,0-27.73,0-6.33,0-9.9,3.68-10,10C198,240.64,198,242.38,198,244.36ZM16.05,51.5h38.4V15Z"/><path d="M45.56,104.1A39.87,39.87,0,1,1,85.4,144.15,39.66,39.66,0,0,1,45.56,104.1Zm9,0a30.87,30.87,0,1,0,31.5-30.66C68.47,73.25,54.72,86.63,54.56,104.1Z"/><path d="M101.27,279.87h50.61c1.12,0,2.59-.4,3.3.16,1.51,1.16,3.61,2.82,3.62,4.3s-2.05,3.18-3.54,4.37c-.69.56-2.17.17-3.29.17H50.38a18.74,18.74,0,0,1-3-.06c-2.54-.42-4.46-2-3.83-4.54.41-1.66,2.31-3.08,3.81-4.27.61-.5,1.93-.13,2.93-.13Z"/><path d="M253.08,173.77c.23,2.91-.89,4.93-3.64,5.4s-4.64-1-5.1-3.77c-1.91-11.45-4-22.87-5.46-34.38-.82-6.58,5.33-12.7,11.9-12.93,2.69-.1,4.77.77,5.2,3.67s-.93,4.67-3.72,5.09c-3.93.6-4.72,2.75-4.09,6.39C250,153.45,251.48,163.69,253.08,173.77Z"/><path d="M246.05,189.41c1.52-1.32,2.95-3.53,4.57-3.69s3.69,1.62,4.7,3.12a7,7,0,0,1-2.54,9.91c-2.32,1-4.39-.47-5.13-3a51.09,51.09,0,0,1-1-5.52Z"/><path d="M60.55,104.18A24.61,24.61,0,1,1,85.27,129,24.64,24.64,0,0,1,60.55,104.18Zm9-.05A15.59,15.59,0,1,0,85,88.58,15.67,15.67,0,0,0,69.57,104.13Z"/></g></g></svg>