<svg width="24" height="24" viewBox="0 0 24 24" fill="none" xmlns="http://www.w3.org/2000/svg">
<path d="M14 9C14 10.1046 13.1046 11 12 11C10.8954 11 10 10.1046 10 9C10 7.89543 10.8954 7 12 7C13.1046 7 14 7.89543 14 9Z" stroke="white"/>
<path d="M18 9C18 12.3137 14 17 12 17C10 17 6 12.3137 6 9C6 5.68629 8.68629 3 12 3C15.3137 3 18 5.68629 18 9Z" stroke="white"/>
<path d="M14.9994 15H16.1259C17.313 15 18.4388 15.5273 19.1987 16.4393L20.2657 17.7196C21.3513 19.0223 20.425 21 18.7293 21H5.26945C3.57377 21 2.64746 19.0223 3.733 17.7196L4.79998 16.4393C5.55995 15.5273 6.68574 15 7.87286 15H8.99936" stroke="white" stroke-linejoin="round"/>
</svg>
