<svg width="24" height="24" viewBox="0 0 24 24" fill="none" xmlns="http://www.w3.org/2000/svg">
<path d="M9.35355 8.64645C9.15829 8.45118 8.84171 8.45118 8.64645 8.64645C8.45118 8.84171 8.45118 9.15829 8.64645 9.35355L9.35355 8.64645ZM13.4142 10.5858L13.0607 10.2322L13.4142 10.5858ZM15.3536 9.35355C15.5488 9.15829 15.5488 8.84171 15.3536 8.64645C15.1583 8.45118 14.8417 8.45118 14.6464 8.64645L15.3536 9.35355ZM11.5 11C11.5 11.2761 11.7239 11.5 12 11.5C12.2761 11.5 12.5 11.2761 12.5 11H11.5ZM12.5 6C12.5 5.72386 12.2761 5.5 12 5.5C11.7239 5.5 11.5 5.72386 11.5 6H12.5ZM7.6 13.8L7.2 14.1L7.6 13.8ZM8.8 15.4L9.2 15.1L8.8 15.4ZM15.2 15.4L14.8 15.1L15.2 15.4ZM16.4 13.8L16 13.5L16.4 13.8ZM8.64645 9.35355L10.2322 10.9393L10.9393 10.2322L9.35355 8.64645L8.64645 9.35355ZM13.7678 10.9393L15.3536 9.35355L14.6464 8.64645L13.0607 10.2322L13.7678 10.9393ZM12.5 11V6H11.5V11H12.5ZM10.2322 10.9393C11.2085 11.9156 12.7915 11.9157 13.7678 10.9393L13.0607 10.2322C12.4749 10.818 11.5251 10.818 10.9393 10.2322L10.2322 10.9393ZM21.5 16V19H22.5V16H21.5ZM19 21.5H5V22.5H19V21.5ZM2.5 19V16H1.5V19H2.5ZM5 13.5H6V12.5H5V13.5ZM7.2 14.1L8.4 15.7L9.2 15.1L8 13.5L7.2 14.1ZM18 13.5H19V12.5H18V13.5ZM15.6 15.7L16.8 14.1L16 13.5L14.8 15.1L15.6 15.7ZM12 17.5C13.4164 17.5 14.7502 16.8331 15.6 15.7L14.8 15.1C14.139 15.9813 13.1017 16.5 12 16.5V17.5ZM18 12.5C17.2131 12.5 16.4721 12.8705 16 13.5L16.8 14.1C17.0833 13.7223 17.5279 13.5 18 13.5V12.5ZM8.4 15.7C9.24984 16.8331 10.5836 17.5 12 17.5V16.5C10.8983 16.5 9.86099 15.9813 9.2 15.1L8.4 15.7ZM6 13.5C6.47214 13.5 6.91672 13.7223 7.2 14.1L8 13.5C7.52786 12.8705 6.78689 12.5 6 12.5V13.5ZM5 21.5C3.61929 21.5 2.5 20.3807 2.5 19H1.5C1.5 20.933 3.067 22.5 5 22.5V21.5ZM21.5 19C21.5 20.3807 20.3807 21.5 19 21.5V22.5C20.933 22.5 22.5 20.933 22.5 19H21.5ZM22.5 16C22.5 14.067 20.933 12.5 19 12.5V13.5C20.3807 13.5 21.5 14.6193 21.5 16H22.5ZM2.5 16C2.5 14.6193 3.61929 13.5 5 13.5V12.5C3.067 12.5 1.5 14.067 1.5 16H2.5ZM20.5 13V6H19.5V13H20.5ZM16 1.5H8V2.5H16V1.5ZM3.5 6V13H4.5V6H3.5ZM8 1.5C5.51472 1.5 3.5 3.51472 3.5 6H4.5C4.5 4.067 6.067 2.5 8 2.5V1.5ZM20.5 6C20.5 3.51472 18.4853 1.5 16 1.5V2.5C17.933 2.5 19.5 4.067 19.5 6H20.5Z" fill="white"/>
</svg>
