<svg width="949" height="570" viewBox="0 0 949 570" fill="none" xmlns="http://www.w3.org/2000/svg">
<path d="M558.333 137.919C557.668 132.248 558.351 118.631 558.351 118.631C558.351 118.631 550.785 117.279 548.231 117.316C535.343 117.495 527.728 126.565 514.948 112.005C511.569 108.154 502.628 112.096 501.274 106.852C499.687 99.6074 502.801 99.2607 506.473 95.7108C508.071 94.1654 507.053 90.8245 508.734 88.7625C510.913 86.0851 515.776 84.7487 517.589 83.89C520.041 78.3125 503.631 76.6363 497.432 68.0463C495.944 65.9797 491.503 69.3528 491.668 66.1289C491.746 64.6112 497.083 66.7053 498.675 63.4929C502.856 55.1072 493.711 57.6124 493.26 54.6273C492.935 52.5332 497.999 52.9718 498.346 52.3518C505.799 39.0132 466.116 44.4644 457.649 37.8858C448.827 31.0569 453.479 19.9434 444.904 23.119C437.106 26.0122 430.678 20.4669 421.708 10.8068C404.896 -6.79347 408.829 3.4705 404.079 9.54163C402.394 11.6955 393.542 11.3189 388.194 7.46128C382.543 5.32353 374.548 9.06862 376.125 14.7632C376.974 18.0559 382.913 19.0341 387.821 23.2774C392.485 27.3118 396.11 34.6344 397.386 36.8709C395.335 41.5413 386.762 27.6058 378.031 22.7195C372.245 19.4818 366.432 18.4049 363.269 21.6012C357.748 27.1764 365.516 38.8112 357.62 40.0511C351.281 43.5115 355.957 38.7974 329.679 49.7135C301.558 61.3965 287.955 54.3059 297.839 87.6006C298.395 89.4766 296.483 93.5455 297.406 96.9048C297.748 98.1585 301.265 100.79 301.926 103.015C302.498 104.937 298.06 108.241 297.406 108.526C293.507 110.22 290.126 107.072 285.087 106C275.163 103.906 263.546 101.637 262.048 102.537C260.49 103.476 268.697 109.977 279.322 137.088C283.547 147.88 290.899 160.537 292.597 164.709C297.726 177.308 293.92 186.135 297.707 195.372C301.389 194.454 301.776 196.373 304.488 199.524C307.278 204.605 316.369 193.347 319.763 195.85C322.941 199.753 331.119 196.132 334.548 196.293C342.051 196.647 343.429 197.345 352.277 196.562C359.507 195.923 371.24 194.594 377.582 194.328C379.997 194.224 382.525 191.77 385.779 191.85C392.926 192.027 401.807 195.161 408.381 196.803C413.187 198.004 417.911 197.17 421.34 199.517C426.599 203.124 421.433 206.419 428.488 207.505C455.015 211.581 487.91 210.141 487.91 210.141C487.91 210.141 488.241 229.948 488.166 236.256C488.075 243.994 504.95 232.853 506.919 238.492C507.61 240.515 509.969 249.273 509.969 249.273C509.969 249.273 516.984 249.774 521.611 248.841L523.231 186.1C523.231 186.1 513.941 185.604 507.266 185.62L508.169 137.54C508.169 137.54 534.083 139.072 558.333 137.919Z" fill="#EAEAEA" stroke="#B4B4B4" stroke-width="2" stroke-miterlimit="10"/>
<path d="M658.312 217.285C658.241 217.219 654.06 209.85 654.197 205.315C654.255 203.29 653.196 192.103 653.237 189.68C653.294 186.266 649.62 187.054 649.904 184.351C650.603 177.66 644.597 175.543 638.376 172.489C635.669 171.162 636.518 169.991 634.365 163.265C633.854 161.671 630.841 161.453 630.2 159.639C629.559 157.825 630.769 156.514 630.07 154.519C629.543 153.017 628.153 152.771 627.527 151.226C625.694 146.686 628.777 145.256 627.414 141.102C625.528 135.341 618.051 128.735 613.459 126.126C611.875 125.229 607.149 119.072 603.231 120.016C600.343 120.953 598.743 131.061 596.564 128.223C593.531 124.289 580.934 131.722 577.804 129.371C570.925 124.184 566.259 120.503 563.056 119.008C560.255 117.699 558.496 118.232 558.355 118.648V137.688L508.195 137.336L507.602 185.958L523.179 186.438C522.118 209.111 521.559 249.179 521.559 249.179C533.165 247.96 544.66 248.148 550.532 247.572C556.497 246.982 568.154 250.387 572.146 253.023C573.981 254.233 585.807 260.881 598.39 273.262C611.321 285.985 627.691 302.49 646.427 316.775C657.543 325.252 666.277 336.157 676.604 342.395C684.343 347.07 694.669 347.447 701.641 351.208C707.637 354.423 714.176 360.898 720.919 366.774C732.448 376.838 743.228 386.712 743.228 386.712L725.374 404.202L725.487 442.897C757.37 441.947 814.076 442.778 814.076 442.778C814.076 442.778 820.462 438.275 817.325 431.956C808.945 415.045 838.221 414.14 841.32 414.025C846.584 413.83 855.748 419.828 866.522 413.545C874.432 408.934 876.592 406.296 876.184 395.405C875.968 389.745 893.239 393.203 905.116 400.618C914.172 406.271 920.776 405.32 927.828 404.98C933.46 404.716 936.709 400.918 938.056 397.075C938.624 395.467 940.131 395.623 941.108 392.941C941.726 391.247 937.032 389.727 937.547 387.431C938.684 382.395 936.187 372.965 938.396 368.981C944.115 358.648 950.309 361.973 944.951 355.863C942.328 352.877 939.845 351.621 934.948 350.581C930.545 349.663 928.136 350.448 923.423 349.144C920.024 348.202 918.495 343.442 914.947 342.315C909.316 340.524 903.361 339.224 897.374 337.034C894.489 335.984 891.825 333.59 888.84 333.86C886.241 334.104 882.481 337.185 879.858 336.136C875.632 334.448 870.457 334.108 866.128 332.232C856.433 328.058 847.409 321.606 837.365 316.66C834.894 315.44 811.629 302.589 780.791 285.473C776.724 283.213 770.384 286.29 766.279 283.595C727.913 258.408 681.192 230.102 658.312 217.285Z" fill="#EAEAEA" stroke="#B4B4B4" stroke-width="2" stroke-miterlimit="10"/>
<path fill-rule="evenodd" clip-rule="evenodd" d="M19.9647 116.487C21.7175 114.141 23.6407 111.568 25.1646 108.177L19.4897 100.501C18.0426 97.5619 18.4457 96.1115 18.9258 94.3843C19.1794 93.472 19.4545 92.4824 19.4897 91.1554C19.6694 84.4276 19.1106 74.0235 10.6632 70.1912C2.21577 66.3588 1.25623 64.7171 7.19759 63.0431C9.61918 62.3612 11.2004 57.9089 8.93039 54.5771C8.17548 53.4699 6.4796 52.6916 4.88931 51.9618C3.38596 51.2718 1.97698 50.6252 1.54648 49.7849C0.216455 47.1884 1.35202 46.6526 4.5406 45.1482C5.54777 44.673 6.75978 44.1012 8.16362 43.3372C12.4328 41.0006 16.3512 38.6937 20.0991 36.4872C29.7648 30.7967 38.2963 25.7739 48.7849 22.6302C86.5644 11.3215 122.128 13.2847 122.128 13.2847C122.128 13.2847 150.301 30.6485 166.984 50.9032C168.597 52.8646 168.249 54.0379 167.862 55.34C167.547 56.4037 167.205 57.5534 167.887 59.2889C169.099 62.3638 171.044 65.9935 172.944 69.5398C175.383 74.0917 177.749 78.5061 178.397 81.4333C179.695 87.2999 182.723 89.1667 186.625 91.5725C187.496 92.1093 188.41 92.6729 189.359 93.3138C190.315 93.957 190.935 95.3769 191.564 96.8175C192.296 98.4935 193.041 100.198 194.341 100.74C196.677 101.718 198.559 101.336 200.616 100.918C202.232 100.59 203.957 100.239 206.093 100.51C210.585 101.08 213.907 100.567 217.389 100.03C219.982 99.6303 222.663 99.2167 225.982 99.2265C239.625 99.2655 255.114 101.112 255.591 102.186C255.964 103.031 257.31 102.814 258.696 102.59C260.181 102.351 261.713 102.103 262.145 103.146C265.934 108.91 278.482 135.319 285.475 150.037C287.578 154.462 289.178 157.831 289.887 159.263C294.54 168.587 294.838 172.446 295.426 180.085C295.517 181.261 295.614 182.527 295.736 183.917C296.387 191.391 297.172 197.148 297.896 202.463C299.047 210.911 300.046 218.239 300.115 229.563C300.14 233.486 297.553 233.233 294.917 232.975C292.728 232.761 290.505 232.544 289.718 234.716C284.398 249.933 279.597 257.519 273.765 266.735C270.503 271.889 266.919 277.553 262.741 285.346C260.207 288.872 258.057 293.962 256.052 298.709C254.103 303.325 252.29 307.617 250.395 309.831C244.728 316.448 249.285 316.061 256.18 315.474C260.561 315.101 265.886 314.648 270.133 315.861C270.982 316.099 270.742 317.362 270.497 318.648C270.245 319.971 269.988 321.319 270.909 321.601C275.778 323.098 280.857 324.889 285.421 327.275C288.527 328.897 290.489 328.758 290.563 329.067C290.647 329.423 288.211 330.379 282.105 335.341C279.487 337.025 272.828 333.733 266.609 330.658C264.305 329.519 262.062 328.41 260.107 327.594C258.492 326.921 256.233 328.064 254.271 329.058C252.704 329.851 251.325 330.548 250.613 330.15C245.478 327.275 234.953 323.964 233.324 330.669C232.945 332.237 233.114 334.191 233.266 335.946C233.489 338.525 233.675 340.673 232.025 340.529C227.96 340.17 224.348 340.084 220.878 340.001C214.392 339.847 208.404 339.704 200.895 337.817L200.578 337.737C189.155 334.865 177.645 331.97 162.697 340.372C160.524 341.595 156.118 342.407 152.585 343.058C149.886 343.555 147.697 343.959 147.403 344.379C143.446 350.054 137.891 352.696 133.14 354.956C128.715 357.061 124.987 358.834 123.898 362.416C123.446 363.902 123.331 365.362 123.22 366.766C122.907 370.75 122.629 374.276 114.781 376.632C112.604 377.284 110.526 377.915 108.543 378.518C100.883 380.846 94.6284 382.746 89.4668 383.803C79.6527 385.811 73.6217 384.953 68.8577 384.275C66.9378 384.002 65.2236 383.758 63.5506 383.743C57.2391 383.685 57.329 381.817 57.5093 378.069C57.5807 376.583 57.6664 374.802 57.3731 372.721C57.2171 371.616 57.0245 370.418 56.8193 369.141C56.0274 364.216 55.0484 358.126 55.2634 351.716C55.3265 349.837 55.5672 347.194 55.818 344.44C56.1098 341.236 56.4151 337.883 56.4699 335.413C56.6583 326.823 58.5227 322.363 60.1303 318.517C61.1104 316.173 61.9951 314.056 62.3463 311.372C62.7475 308.294 62.3374 305.087 61.9425 301.998C61.5955 299.284 61.2601 296.662 61.4972 294.299C61.9394 289.909 63.9924 286.32 65.8809 283.018C66.425 282.067 66.9555 281.14 67.4299 280.224C69.0133 277.168 70.3386 275.163 71.4195 273.528C73.0266 271.097 74.0932 269.483 74.6643 266.447C74.771 265.13 72.945 263.273 71.2827 261.582C69.7034 259.975 68.2719 258.519 68.7858 257.82C69.3738 257.022 68.4082 257.069 66.8564 257.143C64.8642 257.238 61.9061 257.38 60.0286 255.843C58.9785 254.986 59.0747 251.829 59.148 249.424C59.1871 248.142 59.2196 247.074 59.0691 246.679C57.2585 241.953 57.1952 242.688 56.9689 245.316C56.8148 247.105 56.5852 249.771 55.6771 252.189C54.3262 251.459 54.2525 249.749 54.164 247.698C54.0807 245.767 53.9844 243.533 52.7963 241.528C52.1027 240.358 51.7284 240.755 51.192 241.324C50.782 241.759 50.2773 242.294 49.4629 242.307C49.4722 240.792 49.6994 239.455 49.8939 238.31C50.4693 234.924 50.7578 233.227 44.2644 233.604C41.401 233.772 38.8018 231.962 36.6358 229.069C35.1737 227.115 24.8029 225.701 25.2664 228.61C28.7515 235.62 22.4138 247.358 23.3971 233.26C24.2506 230.772 23.0433 229.372 21.8088 227.94C20.4366 226.349 19.0308 224.719 20.3842 221.512C21.8054 218.141 24.2558 216.42 26.4678 214.867C27.7014 214.001 28.8608 213.186 29.7262 212.167C30.3286 211.459 30.8855 210.789 31.4023 210.167C33.9867 207.059 35.5668 205.159 36.8069 205.699C38.1786 206.292 36.2254 208.495 34.2691 210.701C32.8366 212.316 31.4024 213.933 31.2706 214.922C31.1168 216.07 35.8105 215.584 38.2776 214.803C39.8124 214.205 41.9319 214.867 43.8734 215.473C45.3487 215.933 46.7212 216.361 47.6564 216.181C49.333 215.856 49.2252 214.512 49.1439 213.499C49.093 212.865 49.0526 212.361 49.465 212.316C52.1244 212.024 51.8463 214.667 51.5997 217.012C51.4412 218.518 51.2956 219.902 51.9516 220.302C53.657 221.345 53.7064 220.541 53.7691 219.52C53.8266 218.584 53.8952 217.466 55.2656 217.427C55.7938 217.413 56.0119 218.037 56.229 218.66C56.6191 219.777 57.0063 220.887 59.1839 218.266C59.7902 216.11 60.7565 216.929 61.6039 217.647C62.364 218.291 63.0284 218.855 63.2517 217.118C62.567 214.455 60.1947 213.502 58.1229 212.669C55.9606 211.801 54.1257 211.064 54.8779 208.651C50.245 207.643 50.5131 207.909 50.8245 208.218C51.1186 208.51 51.4512 208.841 47.7301 208.172C47.312 208.097 47.0552 207.068 46.7716 205.932C46.4101 204.484 46.0052 202.863 45.1677 202.821C42.0599 200.694 47.963 195.228 53.0758 190.493C55.3073 188.427 57.3883 186.5 58.5038 185.051C57.6742 186.119 48.59 182.434 45.5446 180.378C45.0228 179.798 44.1728 180.643 43.0595 181.749C41.7374 183.063 40.0437 184.746 38.087 184.849C33.5687 185.09 28.1255 180.013 27.9912 177.901C23.6383 175.463 20.6182 178.561 19.199 180.016C18.3513 180.886 18.0746 181.17 18.4262 179.338C17.4827 177.423 14.9721 178.859 12.2657 180.407C8.89569 182.335 5.22207 184.436 3.89226 180.457C3.3147 178.727 3.37875 176.34 3.45389 173.54C3.50415 171.667 3.55938 169.609 3.4309 167.439C3.3404 165.922 3.09618 164.333 2.85355 162.754C2.37615 159.648 1.90491 156.582 2.62298 154.181C4.58971 147.612 6.6106 141.412 11.7917 135.858C12.1214 135.502 12.4278 135.267 12.7124 135.049C13.8594 134.17 14.6508 133.563 15.1837 126.388C15.4707 122.501 17.5568 119.709 19.9647 116.487ZM29.72 60.2159C28.8827 62.5838 27.9951 65.0937 30.4087 67.2172C23.3125 85.9723 26.6356 94.9313 29.8639 103.635C30.5082 105.372 31.1487 107.098 31.7018 108.891C32.0784 110.117 31.9072 111.24 31.7239 112.444C31.3799 114.701 30.9932 117.24 34.1018 121.265C37.9945 126.305 40.8036 126.41 44.9531 126.566C47.698 126.669 51.0295 126.793 55.6492 128.383C57.0733 128.873 59.3225 127.055 61.7356 125.105C65.4885 122.072 69.6379 118.719 71.6971 123.226C71.0473 126.675 74.9462 135.017 82.3951 137.334C85.7112 138.362 98.0466 140.075 107.698 139.644C136.168 138.373 127.497 135.331 119.064 132.374C118.463 132.163 117.862 131.952 117.276 131.742C116.269 131.389 112.18 129.152 111.313 127.026C110.475 124.978 112.797 121.143 113.8 121.354C113.974 121.391 114.168 121.43 114.378 121.471C116.272 121.847 119.386 122.464 119.601 124.229C119.91 126.707 123.458 129.442 128.048 130.22C132.906 131.044 144.081 127.522 144.17 123.91C144.357 116.363 143.173 113.464 141.904 110.354C141.629 109.681 141.35 108.999 141.081 108.257C138.575 101.327 135.794 98.4178 129.491 94.2847C128.381 93.5585 126.733 93.0218 124.909 92.4275C122.575 91.6671 119.951 90.8124 117.794 89.3456C116.065 88.1721 114.686 86.5355 113.421 85.0361C112.078 83.4431 110.866 82.0051 109.505 81.4421C107.442 80.5867 106.142 80.8574 105.32 81.0287C104.358 81.229 104.048 81.2936 103.932 79.2653C103.788 76.84 103.47 75.2597 103.122 73.5367C102.915 72.5062 102.697 71.4246 102.5 70.0806C102.2 68.0436 102.515 65.1595 102.82 62.3538C103.176 59.0964 103.519 55.9446 102.877 54.3471C102.067 52.3412 101.006 51.0388 100.022 49.8305C99.0704 48.6624 98.1905 47.5823 97.6784 46.0394C97.0401 44.1197 97.2715 41.9802 97.4854 40.0031C97.7259 37.7804 97.9441 35.7629 96.8791 34.4942C89.9684 26.262 78.8133 26.7044 60.8597 27.4165C59.7036 27.4623 58.5193 27.5093 57.3062 27.5551C46.6235 27.9592 31.7712 34.4161 27.8897 44.5194C27.2391 45.9967 26.1756 47.2422 25.125 48.4725C23.1433 50.7935 21.2075 53.0606 22.1758 56.7282C23.1951 56.438 23.9423 55.7532 24.6479 55.1066C25.8793 53.978 26.9839 52.9657 29.1871 54.37C31.2445 55.9048 30.5043 57.9981 29.72 60.2159Z" fill="#EAEAEA"/>
<path d="M25.1646 108.177L26.0767 108.587L26.3166 108.053L25.9687 107.583L25.1646 108.177ZM19.9647 116.487L20.7657 117.086L19.9647 116.487ZM19.4897 100.501L18.5925 100.943L18.6322 101.023L18.6856 101.095L19.4897 100.501ZM18.9258 94.3843L19.8893 94.6521L18.9258 94.3843ZM19.4897 91.1554L18.49 91.1287L18.49 91.1289L19.4897 91.1554ZM10.6632 70.1912L11.0763 69.2805L10.6632 70.1912ZM7.19759 63.0431L6.92651 62.0806L6.9264 62.0806L7.19759 63.0431ZM8.93039 54.5771L9.75681 54.014L9.75661 54.0137L8.93039 54.5771ZM4.88931 51.9618L4.47219 52.8706H4.47219L4.88931 51.9618ZM1.54648 49.7849L0.656442 50.2408L0.656494 50.2409L1.54648 49.7849ZM4.5406 45.1482L4.1139 44.2438H4.1139L4.5406 45.1482ZM8.16362 43.3372L8.64162 44.2156L8.64374 44.2144L8.16362 43.3372ZM20.0991 36.4872L20.6065 37.3489L20.0991 36.4872ZM48.7849 22.6302L48.4981 21.6722L48.4978 21.6723L48.7849 22.6302ZM122.128 13.2847L122.653 12.4334L122.437 12.3002L122.183 12.2862L122.128 13.2847ZM166.984 50.9032L167.756 50.268L167.756 50.2674L166.984 50.9032ZM167.862 55.34L166.904 55.0555V55.0555L167.862 55.34ZM167.887 59.2889L166.956 59.6545L166.957 59.6556L167.887 59.2889ZM172.944 69.5398L172.063 70.0121L172.944 69.5398ZM178.397 81.4333L179.373 81.2173V81.2173L178.397 81.4333ZM186.625 91.5725L187.15 90.7213V90.7213L186.625 91.5725ZM189.359 93.3138L188.799 94.1424L188.801 94.1436L189.359 93.3138ZM191.564 96.8175L190.648 97.2178V97.2178L191.564 96.8175ZM194.341 100.74L194.727 99.8173L194.725 99.8167L194.341 100.74ZM200.616 100.918L200.815 101.898H200.815L200.616 100.918ZM206.093 100.51L206.219 99.518L206.219 99.518L206.093 100.51ZM217.389 100.03L217.236 99.042L217.389 100.03ZM225.982 99.2265L225.979 100.227H225.979L225.982 99.2265ZM255.591 102.186L256.505 101.782L256.505 101.781L255.591 102.186ZM258.696 102.59L258.856 103.577L258.696 102.59ZM262.145 103.146L261.221 103.529L261.258 103.616L261.31 103.695L262.145 103.146ZM285.475 150.037L284.572 150.466L285.475 150.037ZM289.887 159.263L288.991 159.706L288.993 159.709L289.887 159.263ZM295.426 180.085L294.429 180.161L295.426 180.085ZM295.736 183.917L296.732 183.83V183.83L295.736 183.917ZM297.896 202.463L296.905 202.598L297.896 202.463ZM300.115 229.563L299.115 229.569V229.569L300.115 229.563ZM294.917 232.975L295.015 231.98L294.917 232.975ZM289.718 234.716L288.778 234.375L288.774 234.385L289.718 234.716ZM273.765 266.735L272.92 266.2L273.765 266.735ZM262.741 285.346L263.553 285.93L263.591 285.877L263.622 285.819L262.741 285.346ZM256.052 298.709L255.131 298.32L256.052 298.709ZM250.395 309.831L251.154 310.481L251.154 310.481L250.395 309.831ZM256.18 315.474L256.095 314.478L256.18 315.474ZM270.133 315.861L269.859 316.822L269.863 316.823L270.133 315.861ZM270.497 318.648L271.479 318.835L270.497 318.648ZM270.909 321.601L271.203 320.645L271.202 320.645L270.909 321.601ZM285.421 327.275L284.958 328.161L284.958 328.161L285.421 327.275ZM290.563 329.067L289.59 329.298L289.59 329.298L290.563 329.067ZM282.105 335.341L282.646 336.182L282.693 336.152L282.736 336.117L282.105 335.341ZM266.609 330.658L267.052 329.761L266.609 330.658ZM260.107 327.594L260.492 326.671L260.492 326.671L260.107 327.594ZM254.271 329.058L254.722 329.95L254.271 329.058ZM250.613 330.15L251.102 329.277L251.102 329.277L250.613 330.15ZM233.324 330.669L232.353 330.433L232.352 330.433L233.324 330.669ZM233.266 335.946L234.262 335.86V335.86L233.266 335.946ZM232.025 340.529L231.937 341.525L231.937 341.525L232.025 340.529ZM220.878 340.001L220.901 339.002H220.901L220.878 340.001ZM200.895 337.817L200.651 338.787H200.651L200.895 337.817ZM200.578 337.737L200.822 336.767L200.578 337.737ZM162.697 340.372L162.207 339.501L162.207 339.501L162.697 340.372ZM152.585 343.058L152.404 342.074L152.585 343.058ZM147.403 344.379L146.583 343.807L146.583 343.807L147.403 344.379ZM133.14 354.956L132.71 354.053L133.14 354.956ZM123.898 362.416L124.854 362.707L124.854 362.707L123.898 362.416ZM123.22 366.766L122.223 366.687L123.22 366.766ZM114.781 376.632L115.068 377.589L115.068 377.589L114.781 376.632ZM108.543 378.518L108.252 377.561H108.252L108.543 378.518ZM89.4668 383.803L89.2664 382.823H89.2664L89.4668 383.803ZM68.8577 384.275L68.7169 385.265H68.7169L68.8577 384.275ZM63.5506 383.743L63.5414 384.743H63.5415L63.5506 383.743ZM57.5093 378.069L56.5104 378.021L57.5093 378.069ZM57.3731 372.721L58.3633 372.582L58.3633 372.581L57.3731 372.721ZM56.8193 369.141L55.8319 369.3L56.8193 369.141ZM55.2634 351.716L54.264 351.682L54.264 351.682L55.2634 351.716ZM55.818 344.44L54.8221 344.349L55.818 344.44ZM56.4699 335.413L57.4696 335.435L57.4696 335.435L56.4699 335.413ZM60.1303 318.517L61.0529 318.903L60.1303 318.517ZM62.3463 311.372L63.3378 311.501L63.3379 311.501L62.3463 311.372ZM61.9425 301.998L60.9505 302.125L61.9425 301.998ZM61.4972 294.299L60.5022 294.199L60.5022 294.2L61.4972 294.299ZM65.8809 283.018L65.0128 282.522L65.8809 283.018ZM67.4299 280.224L66.542 279.764L66.5419 279.764L67.4299 280.224ZM71.4195 273.528L72.2537 274.079L71.4195 273.528ZM74.6643 266.447L75.6471 266.631L75.6568 266.58L75.6611 266.527L74.6643 266.447ZM71.2827 261.582L71.9959 260.881L71.2827 261.582ZM68.7858 257.82L67.981 257.226L67.98 257.227L68.7858 257.82ZM66.8564 257.143L66.9042 258.142L66.8564 257.143ZM60.0286 255.843L60.6622 255.069L60.6609 255.068L60.0286 255.843ZM59.148 249.424L58.1485 249.393L59.148 249.424ZM59.0691 246.679L60.0035 246.323L60.0029 246.321L59.0691 246.679ZM56.9689 245.316L55.9726 245.23L56.9689 245.316ZM55.6771 252.189L55.2013 253.069L56.2101 253.615L56.6133 252.541L55.6771 252.189ZM54.164 247.698L53.1649 247.741V247.741L54.164 247.698ZM52.7963 241.528L53.6566 241.018L53.6565 241.018L52.7963 241.528ZM51.192 241.324L50.4645 240.638L50.4645 240.638L51.192 241.324ZM49.4629 242.307L48.4629 242.301L48.4566 243.323L49.4787 243.307L49.4629 242.307ZM49.8939 238.31L50.8797 238.478L49.8939 238.31ZM44.2644 233.604L44.2064 232.606L44.206 232.606L44.2644 233.604ZM36.6358 229.069L35.8351 229.668L35.8353 229.668L36.6358 229.069ZM25.2664 228.61L24.2789 228.767L24.3029 228.918L24.371 229.055L25.2664 228.61ZM23.3971 233.26L22.4512 232.935L22.4087 233.059L22.3996 233.19L23.3971 233.26ZM21.8088 227.94L21.0515 228.593H21.0515L21.8088 227.94ZM20.3842 221.512L21.3055 221.901L21.3057 221.901L20.3842 221.512ZM26.4678 214.867L25.8931 214.048L26.4678 214.867ZM29.7262 212.167L28.9645 211.519L28.9639 211.52L29.7262 212.167ZM31.4023 210.167L32.1712 210.807H32.1712L31.4023 210.167ZM36.8069 205.699L36.4079 206.616L36.4096 206.616L36.8069 205.699ZM34.2691 210.701L33.5209 210.037L34.2691 210.701ZM31.2706 214.922L32.2617 215.055L32.2618 215.055L31.2706 214.922ZM38.2776 214.803L38.5793 215.756L38.6102 215.747L38.6404 215.735L38.2776 214.803ZM43.8734 215.473L44.1713 214.518H44.1713L43.8734 215.473ZM47.6564 216.181L47.8459 217.163L47.8467 217.162L47.6564 216.181ZM49.1439 213.499L48.1471 213.579L49.1439 213.499ZM49.465 212.316L49.5736 213.31L49.5742 213.31L49.465 212.316ZM51.5997 217.012L50.6052 216.907L51.5997 217.012ZM51.9516 220.302L52.4733 219.449L52.4729 219.449L51.9516 220.302ZM53.7691 219.52L52.771 219.459V219.459L53.7691 219.52ZM55.2656 217.427L55.2376 216.428H55.2375L55.2656 217.427ZM56.229 218.66L55.2849 218.989L56.229 218.66ZM59.1839 218.266L59.9531 218.905L60.089 218.741L60.1465 218.536L59.1839 218.266ZM61.6039 217.647L60.9573 218.41H60.9573L61.6039 217.647ZM63.2517 217.118L64.2435 217.245L64.268 217.055L64.2201 216.868L63.2517 217.118ZM58.1229 212.669L58.4956 211.741H58.4956L58.1229 212.669ZM54.8779 208.651L55.8325 208.949L56.1576 207.907L55.0906 207.674L54.8779 208.651ZM50.8245 208.218L50.1199 208.928H50.1199L50.8245 208.218ZM47.7301 208.172L47.907 207.187L47.906 207.187L47.7301 208.172ZM46.7716 205.932L45.8014 206.175L46.7716 205.932ZM45.1677 202.821L44.6028 203.647L44.8361 203.806L45.1186 203.82L45.1677 202.821ZM53.0758 190.493L53.7552 191.227L53.0758 190.493ZM58.5038 185.051L59.2962 185.661L57.7141 184.438L58.5038 185.051ZM45.5446 180.378L44.8009 181.047L44.8832 181.139L44.9852 181.207L45.5446 180.378ZM43.0595 181.749L42.3547 181.04L42.3547 181.04L43.0595 181.749ZM38.087 184.849L38.0342 183.851L38.0337 183.851L38.087 184.849ZM27.9912 177.901L28.9892 177.837L28.9547 177.294L28.4799 177.028L27.9912 177.901ZM19.199 180.016L18.4829 179.318H18.4829L19.199 180.016ZM18.4262 179.338L19.4082 179.527L19.4715 179.197L19.3232 178.896L18.4262 179.338ZM12.2657 180.407L12.7622 181.275L12.7622 181.275L12.2657 180.407ZM3.89226 180.457L2.94375 180.773L2.94381 180.773L3.89226 180.457ZM3.45389 173.54L4.45353 173.567L3.45389 173.54ZM3.4309 167.439L4.42915 167.38L4.42913 167.38L3.4309 167.439ZM2.85355 162.754L3.84195 162.603V162.603L2.85355 162.754ZM2.62298 154.181L1.66499 153.894L1.66491 153.895L2.62298 154.181ZM11.7917 135.858L12.5229 136.54L12.5253 136.537L11.7917 135.858ZM12.7124 135.049L12.1041 134.255H12.1041L12.7124 135.049ZM15.1837 126.388L16.1809 126.462L16.1809 126.462L15.1837 126.388ZM30.4087 67.2172L31.344 67.5711L31.589 66.9237L31.0693 66.4664L30.4087 67.2172ZM29.72 60.2159L30.6628 60.5493L29.72 60.2159ZM29.8639 103.635L28.9263 103.982L29.8639 103.635ZM31.7018 108.891L32.6578 108.597L32.6574 108.596L31.7018 108.891ZM31.7239 112.444L32.7125 112.594L31.7239 112.444ZM34.1018 121.265L34.8932 120.654L34.1018 121.265ZM44.9531 126.566L44.9905 125.566H44.9905L44.9531 126.566ZM55.6492 128.383L55.3238 129.329L55.324 129.329L55.6492 128.383ZM61.7356 125.105L61.1071 124.327L61.7356 125.105ZM71.6971 123.226L72.6799 123.411L72.7386 123.099L72.6067 122.81L71.6971 123.226ZM82.3951 137.334L82.0981 138.289L82.0988 138.289L82.3951 137.334ZM107.698 139.644L107.654 138.645L107.654 138.645L107.698 139.644ZM119.064 132.374L118.733 133.317L119.064 132.374ZM117.276 131.742L117.613 130.801L117.608 130.799L117.276 131.742ZM111.313 127.026L112.239 126.649L112.239 126.647L111.313 127.026ZM113.8 121.354L114.007 120.376L114.006 120.376L113.8 121.354ZM114.378 121.471L114.572 120.49L114.378 121.471ZM119.601 124.229L118.608 124.35L118.608 124.353L119.601 124.229ZM128.048 130.22L128.215 129.234L128.215 129.234L128.048 130.22ZM144.17 123.91L143.17 123.885V123.886L144.17 123.91ZM141.904 110.354L142.829 109.976L141.904 110.354ZM141.081 108.257L140.14 108.597L140.141 108.599L141.081 108.257ZM129.491 94.2847L130.039 93.4485L130.038 93.4479L129.491 94.2847ZM124.909 92.4275L125.219 91.4767L124.909 92.4275ZM117.794 89.3456L118.356 88.5187L118.356 88.5182L117.794 89.3456ZM113.421 85.0361L114.186 84.3915L114.186 84.3915L113.421 85.0361ZM109.505 81.4421L109.122 82.3659L109.123 82.3662L109.505 81.4421ZM105.32 81.0287L105.524 82.0077H105.524L105.32 81.0287ZM103.932 79.2653L104.93 79.2079L104.93 79.2062L103.932 79.2653ZM103.122 73.5367L102.142 73.7342L103.122 73.5367ZM102.5 70.0806L103.489 69.9356L103.489 69.935L102.5 70.0806ZM102.82 62.3538L103.815 62.4622V62.4622L102.82 62.3538ZM102.877 54.3471L103.805 53.974L103.804 53.9728L102.877 54.3471ZM100.022 49.8305L100.797 49.1989V49.1989L100.022 49.8305ZM97.6784 46.0394L98.6275 45.7244L98.6273 45.7239L97.6784 46.0394ZM97.4854 40.0031L98.4796 40.1107V40.1107L97.4854 40.0031ZM96.8791 34.4942L97.6451 33.8513L97.645 33.8512L96.8791 34.4942ZM60.8597 27.4165L60.8993 28.4157L60.8597 27.4165ZM57.3062 27.5551L57.2684 26.5558L57.2684 26.5558L57.3062 27.5551ZM27.8897 44.5194L28.8049 44.9224L28.8145 44.9004L28.8232 44.878L27.8897 44.5194ZM25.125 48.4725L24.3645 47.8232L25.125 48.4725ZM22.1758 56.7282L21.2089 56.9835L21.4691 57.9692L22.4496 57.69L22.1758 56.7282ZM24.6479 55.1066L25.3236 55.8438L25.3236 55.8438L24.6479 55.1066ZM29.1871 54.37L29.785 53.5685L29.7556 53.5465L29.7246 53.5268L29.1871 54.37ZM24.2525 107.767C22.7791 111.045 20.9189 113.54 19.1636 115.889L20.7657 117.086C22.516 114.743 24.5024 112.09 26.0767 108.587L24.2525 107.767ZM18.6856 101.095L24.3605 108.772L25.9687 107.583L20.2938 99.9064L18.6856 101.095ZM17.9623 94.1165C17.726 94.9668 17.4616 95.896 17.4853 97.0094C17.5092 98.1378 17.8228 99.3794 18.5925 100.943L20.3868 100.059C19.7094 98.6834 19.501 97.7304 19.4848 96.967C19.4683 96.1886 19.6455 95.529 19.8893 94.6521L17.9623 94.1165ZM18.49 91.1289C18.4584 92.3229 18.2145 93.2095 17.9623 94.1165L19.8893 94.6521C20.1444 93.7345 20.4506 92.6419 20.4893 91.1819L18.49 91.1289ZM10.2501 71.1018C14.1297 72.8619 16.2339 76.1319 17.3536 79.8741C18.4795 83.6374 18.5793 87.7894 18.49 91.1287L20.4893 91.1821C20.5799 87.7935 20.49 83.3797 19.2697 79.3008C18.043 75.201 15.6442 71.3528 11.0763 69.2805L10.2501 71.1018ZM6.9264 62.0806C5.43345 62.5012 4.22491 62.956 3.45394 63.5204C3.05968 63.8091 2.68895 64.1912 2.51142 64.7012C2.32104 65.2481 2.40509 65.788 2.6414 66.2574C2.86353 66.6986 3.22367 67.0911 3.63642 67.4454C4.057 67.8065 4.58471 68.1723 5.20372 68.5479C6.44082 69.2984 8.12821 70.1392 10.2501 71.1018L11.0763 69.2805C8.97447 68.327 7.37414 67.5254 6.24115 66.838C5.67512 66.4946 5.2472 66.1924 4.93926 65.928C4.62349 65.6569 4.48224 65.4662 4.42779 65.3581C4.38754 65.2781 4.41984 65.3024 4.40024 65.3587C4.3935 65.3781 4.41608 65.2947 4.63538 65.1342C5.09152 64.8002 5.99105 64.422 7.46877 64.0057L6.9264 62.0806ZM8.10397 55.1401C9.05629 56.5379 9.20727 58.1809 8.85469 59.5553C8.4885 60.9828 7.6617 61.8735 6.92651 62.0806L7.46866 64.0057C9.15507 63.5308 10.3297 61.8544 10.792 60.0523C11.2679 58.1971 11.0745 55.948 9.75681 54.014L8.10397 55.1401ZM4.47219 52.8706C5.27776 53.2403 6.04984 53.5957 6.71398 53.9886C7.38756 54.3871 7.85025 54.768 8.10417 55.1404L9.75661 54.0137C9.25562 53.279 8.49291 52.7172 7.73225 52.2672C6.96215 51.8117 6.09114 51.413 5.30642 51.0529L4.47219 52.8706ZM0.656494 50.2409C1.00844 50.9278 1.68342 51.4202 2.30476 51.7894C2.95352 52.1749 3.73422 52.5319 4.47219 52.8706L5.30642 51.0529C4.54105 50.7016 3.86558 50.3904 3.32639 50.07C2.75977 49.7333 2.51501 49.4823 2.43646 49.3289L0.656494 50.2409ZM4.1139 44.2438C3.32842 44.6144 2.62142 44.9473 2.04789 45.272C1.48187 45.5925 0.947245 45.9576 0.567584 46.4331C0.15365 46.9515 -0.0411004 47.5564 0.00725728 48.2465C0.0519345 48.8841 0.300737 49.5464 0.656442 50.2408L2.43651 49.329C2.1272 48.7252 2.01919 48.3468 2.00237 48.1067C1.98922 47.919 2.02827 47.8091 2.13054 47.6809C2.26709 47.5099 2.5311 47.2967 3.03321 47.0125C3.52783 46.7324 4.15849 46.4342 4.9673 46.0526L4.1139 44.2438ZM7.68563 42.4589C6.30956 43.2077 5.12074 43.7688 4.1139 44.2438L4.9673 46.0526C5.97481 45.5773 7.21 44.9947 8.64162 44.2156L7.68563 42.4589ZM19.5918 35.6254C15.8425 37.8328 11.9369 40.132 7.6835 42.46L8.64374 44.2144C12.9286 41.8692 16.8599 39.5546 20.6065 37.3489L19.5918 35.6254ZM48.4978 21.6723C37.8757 24.8561 29.2439 29.943 19.5918 35.6254L20.6065 37.3489C30.2857 31.6505 38.717 26.6918 49.072 23.5881L48.4978 21.6723ZM122.128 13.2847C122.183 12.2862 122.183 12.2862 122.182 12.2862C122.182 12.2862 122.181 12.2861 122.181 12.2861C122.179 12.286 122.178 12.2859 122.175 12.2858C122.17 12.2855 122.163 12.2852 122.154 12.2847C122.136 12.2837 122.109 12.2824 122.074 12.2806C122.004 12.2772 121.899 12.2722 121.762 12.2663C121.489 12.2545 121.084 12.2388 120.556 12.2229C119.501 12.191 117.955 12.1583 115.983 12.1546C112.039 12.1473 106.389 12.2558 99.5561 12.719C85.8946 13.645 67.4805 15.9901 48.4981 21.6722L49.0717 23.5882C67.8687 17.9616 86.1263 15.6339 99.6914 14.7144C106.472 14.2548 112.074 14.1473 115.979 14.1546C117.931 14.1583 119.459 14.1906 120.496 14.222C121.015 14.2376 121.411 14.253 121.676 14.2645C121.809 14.2702 121.909 14.2749 121.976 14.2782C122.009 14.2798 122.034 14.2811 122.05 14.282C122.058 14.2824 122.064 14.2827 122.068 14.2829C122.07 14.283 122.071 14.2831 122.072 14.2831C122.072 14.2832 122.073 14.2832 122.073 14.2832C122.073 14.2832 122.073 14.2832 122.128 13.2847ZM167.756 50.2674C159.341 40.0504 148.054 30.5903 138.901 23.6995C134.32 20.25 130.261 17.4359 127.347 15.4835C125.89 14.5072 124.719 13.746 123.911 13.2283C123.506 12.9694 123.193 12.7714 122.98 12.6378C122.874 12.5709 122.793 12.5202 122.738 12.486C122.71 12.4689 122.689 12.4559 122.675 12.4471C122.668 12.4427 122.662 12.4394 122.659 12.4371C122.657 12.436 122.655 12.4351 122.654 12.4345C122.654 12.4341 122.653 12.4339 122.653 12.4337C122.653 12.4335 122.653 12.4334 122.128 13.2847C121.603 14.136 121.603 14.136 121.603 14.1361C121.604 14.1362 121.604 14.1363 121.604 14.1365C121.605 14.137 121.606 14.1377 121.608 14.1386C121.611 14.1406 121.616 14.1436 121.622 14.1476C121.635 14.1557 121.655 14.1679 121.681 14.1843C121.734 14.217 121.813 14.2663 121.917 14.3315C122.125 14.4621 122.433 14.6569 122.832 14.9124C123.629 15.4234 124.789 16.177 126.234 17.145C129.124 19.0813 133.152 21.8741 137.699 25.2973C146.803 32.1521 157.945 41.5013 166.212 51.5389L167.756 50.2674ZM168.821 55.6245C169.007 54.9977 169.256 54.1977 169.168 53.2747C169.078 52.3199 168.649 51.3538 167.756 50.268L166.211 51.5383C166.932 52.414 167.135 53.0152 167.177 53.4629C167.223 53.9425 167.104 54.3802 166.904 55.0555L168.821 55.6245ZM168.818 58.9233C168.263 57.5117 168.52 56.6375 168.821 55.6245L166.904 55.0555C166.573 56.1699 166.147 57.595 166.956 59.6545L168.818 58.9233ZM173.826 69.0675C171.917 65.5046 170.004 61.9313 168.817 58.9221L166.957 59.6556C168.195 62.7963 170.172 66.4824 172.063 70.0121L173.826 69.0675ZM179.373 81.2173C179.023 79.6351 178.226 77.7131 177.244 75.6635C176.255 73.6009 175.043 71.3383 173.826 69.0675L172.063 70.0121C173.285 72.2931 174.475 74.5138 175.44 76.5281C176.412 78.5555 177.123 80.3044 177.42 81.6494L179.373 81.2173ZM187.15 90.7213C185.176 89.5045 183.564 88.5032 182.264 87.1167C180.993 85.7619 179.988 83.9964 179.373 81.2173L177.42 81.6494C178.103 84.7369 179.261 86.8381 180.805 88.4847C182.319 90.0997 184.172 91.2347 186.101 92.4238L187.15 90.7213ZM189.919 92.4853C188.95 91.831 188.019 91.2569 187.15 90.7213L186.101 92.4238C186.973 92.9617 187.87 93.5149 188.799 94.1424L189.919 92.4853ZM192.481 96.4173C192.171 95.709 191.837 94.9407 191.451 94.2689C191.069 93.6031 190.583 92.9319 189.917 92.4841L188.801 94.1436C189.091 94.3389 189.392 94.6993 189.717 95.2644C190.038 95.8235 190.328 96.4855 190.648 97.2178L192.481 96.4173ZM194.725 99.8167C194.355 99.6625 193.983 99.3056 193.587 98.6734C193.194 98.0446 192.854 97.2719 192.481 96.4173L190.648 97.2178C191.007 98.0392 191.405 98.9565 191.892 99.7343C192.376 100.509 193.026 101.275 193.956 101.663L194.725 99.8167ZM200.417 99.9379C198.355 100.357 196.752 100.665 194.727 99.8173L193.954 101.662C196.602 102.771 198.763 102.315 200.815 101.898L200.417 99.9379ZM206.219 99.518C203.902 99.2244 202.032 99.6098 200.417 99.9379L200.815 101.898C202.433 101.569 204.011 101.254 205.968 101.502L206.219 99.518ZM217.236 99.042C213.761 99.5782 210.559 100.069 206.219 99.518L205.967 101.502C210.61 102.091 214.054 101.557 217.541 101.019L217.236 99.042ZM225.984 98.2265C222.58 98.2165 219.829 98.6421 217.236 99.042L217.541 101.019C220.135 100.619 222.747 100.217 225.979 100.227L225.984 98.2265ZM256.505 101.781C256.399 101.542 256.234 101.388 256.128 101.303C256.013 101.211 255.89 101.139 255.782 101.085C255.567 100.975 255.309 100.881 255.037 100.797C254.487 100.627 253.747 100.458 252.866 100.293C251.098 99.9615 248.662 99.6255 245.83 99.3237C240.163 98.7198 232.845 98.2461 225.984 98.2265L225.979 100.227C232.762 100.246 240.01 100.715 245.618 101.312C248.423 101.611 250.802 101.941 252.498 102.259C253.35 102.419 254.004 102.571 254.446 102.708C254.67 102.777 254.807 102.832 254.877 102.868C254.912 102.886 254.905 102.886 254.877 102.864C254.858 102.849 254.753 102.763 254.677 102.592L256.505 101.781ZM258.537 101.603C257.81 101.72 257.239 101.808 256.806 101.79C256.356 101.771 256.452 101.661 256.505 101.782L254.676 102.591C255.103 103.556 256.059 103.76 256.722 103.788C257.401 103.817 258.196 103.684 258.856 103.577L258.537 101.603ZM263.069 102.763C262.634 101.714 261.646 101.437 260.877 101.389C260.12 101.342 259.245 101.489 258.537 101.603L258.856 103.577C259.633 103.452 260.266 103.355 260.754 103.385C260.987 103.4 261.11 103.441 261.167 103.471C261.201 103.488 261.208 103.497 261.221 103.529L263.069 102.763ZM286.378 149.608C282.882 142.25 277.994 131.963 273.507 122.794C269.035 113.659 264.919 105.545 262.981 102.597L261.31 103.695C263.16 106.511 267.212 114.483 271.71 123.673C276.192 132.83 281.075 143.106 284.572 150.466L286.378 149.608ZM290.784 158.819C290.079 157.396 288.484 154.039 286.378 149.608L284.572 150.466C286.672 154.886 288.277 158.265 288.991 159.706L290.784 158.819ZM296.423 180.008C296.13 176.202 295.904 173.249 295.154 170.076C294.401 166.891 293.129 163.52 290.782 158.816L288.993 159.709C291.298 164.329 292.502 167.55 293.208 170.536C293.916 173.533 294.134 176.329 294.429 180.161L296.423 180.008ZM296.732 183.83C296.611 182.446 296.514 181.185 296.423 180.008L294.429 180.161C294.52 181.338 294.617 182.609 294.739 184.004L296.732 183.83ZM298.887 202.328C298.163 197.015 297.381 191.278 296.732 183.83L294.739 184.004C295.393 191.504 296.181 197.282 296.905 202.598L298.887 202.328ZM301.115 229.557C301.046 218.165 300.039 210.784 298.887 202.328L296.905 202.598C298.055 211.038 299.047 218.313 299.115 229.569L301.115 229.557ZM294.82 233.971C295.468 234.034 296.175 234.104 296.847 234.103C297.518 234.101 298.233 234.03 298.89 233.764C299.575 233.485 300.167 233.006 300.566 232.259C300.952 231.538 301.122 230.636 301.115 229.557L299.115 229.569C299.121 230.451 298.977 230.989 298.802 231.316C298.641 231.617 298.426 231.793 298.138 231.91C297.822 232.039 297.398 232.101 296.843 232.103C296.289 232.104 295.685 232.046 295.015 231.98L294.82 233.971ZM290.659 235.056C290.799 234.668 290.984 234.434 291.178 234.279C291.378 234.12 291.641 234.003 291.993 233.93C292.743 233.777 293.682 233.859 294.82 233.971L295.015 231.98C293.964 231.877 292.696 231.744 291.591 231.971C291.015 232.089 290.438 232.312 289.931 232.716C289.419 233.124 289.031 233.678 288.778 234.375L290.659 235.056ZM274.61 267.269C280.456 258.032 285.305 250.37 290.662 235.046L288.774 234.385C283.492 249.496 278.738 257.007 272.92 266.2L274.61 267.269ZM263.622 285.819C267.782 278.059 271.35 272.421 274.61 267.269L272.92 266.2C269.657 271.356 266.056 277.046 261.859 284.874L263.622 285.819ZM256.973 299.098C258.993 294.317 261.099 289.345 263.553 285.93L261.929 284.763C259.316 288.399 257.122 293.607 255.131 298.32L256.973 299.098ZM251.154 310.481C252.189 309.272 253.162 307.549 254.103 305.607C255.05 303.652 256.001 301.4 256.973 299.098L255.131 298.32C254.153 300.634 253.223 302.836 252.303 304.734C251.377 306.646 250.495 308.175 249.635 309.18L251.154 310.481ZM256.095 314.478C254.359 314.625 252.822 314.755 251.559 314.77C250.245 314.786 249.434 314.668 249.03 314.462C248.866 314.379 248.851 314.322 248.85 314.32C248.844 314.303 248.805 314.183 248.897 313.87C249.095 313.204 249.747 312.125 251.154 310.481L249.635 309.18C248.21 310.845 247.306 312.199 246.98 313.303C246.81 313.875 246.767 314.475 246.984 315.038C247.206 315.616 247.642 316 248.124 316.245C249.012 316.697 250.279 316.786 251.582 316.77C252.935 316.754 254.553 316.616 256.265 316.47L256.095 314.478ZM270.408 314.899C265.949 313.626 260.425 314.109 256.095 314.478L256.265 316.47C260.697 316.093 265.823 315.67 269.859 316.822L270.408 314.899ZM271.479 318.835C271.594 318.23 271.744 317.471 271.725 316.831C271.715 316.503 271.66 316.107 271.462 315.741C271.244 315.336 270.883 315.033 270.404 314.898L269.863 316.823C269.808 316.808 269.735 316.752 269.703 316.691C269.691 316.67 269.72 316.714 269.726 316.892C269.737 317.265 269.644 317.78 269.514 318.461L271.479 318.835ZM271.202 320.645C271.201 320.645 271.206 320.646 271.217 320.652C271.227 320.657 271.239 320.665 271.252 320.676C271.28 320.699 271.295 320.721 271.299 320.729C271.301 320.733 271.269 320.67 271.263 320.479C271.248 320.078 271.346 319.534 271.479 318.835L269.514 318.461C269.396 319.085 269.239 319.877 269.264 320.551C269.276 320.898 269.337 321.307 269.542 321.684C269.766 322.096 270.13 322.408 270.616 322.557L271.202 320.645ZM285.884 326.389C281.24 323.961 276.092 322.149 271.203 320.645L270.615 322.557C275.464 324.048 280.475 325.818 284.958 328.161L285.884 326.389ZM291.536 328.836C291.406 328.289 290.936 328.089 290.846 328.05C290.687 327.981 290.514 327.939 290.389 327.91C290.252 327.879 290.086 327.846 289.923 327.812C289.753 327.777 289.565 327.738 289.356 327.689C288.529 327.497 287.345 327.152 285.884 326.389L284.958 328.161C286.603 329.02 287.953 329.417 288.903 329.637C289.138 329.692 289.346 329.736 289.522 329.772C289.705 329.809 289.835 329.835 289.942 329.859C290.059 329.886 290.075 329.896 290.051 329.885C290.036 329.879 289.964 329.847 289.878 329.774C289.786 329.696 289.648 329.541 289.59 329.298L291.536 328.836ZM282.736 336.117C285.76 333.659 287.869 332.199 289.208 331.31C289.858 330.879 290.386 330.544 290.707 330.32C290.866 330.21 291.041 330.081 291.179 329.945C291.247 329.877 291.351 329.764 291.433 329.608C291.52 329.444 291.614 329.167 291.536 328.836L289.59 329.298C289.522 329.011 289.607 328.783 289.665 328.674C289.693 328.62 289.721 328.582 289.737 328.562C289.754 328.541 289.767 328.528 289.769 328.526C289.774 328.521 289.762 328.533 289.723 328.564C289.685 328.593 289.634 328.63 289.564 328.679C289.262 328.89 288.815 329.171 288.102 329.644C286.718 330.563 284.556 332.061 281.474 334.565L282.736 336.117ZM266.166 331.554C269.26 333.084 272.535 334.705 275.369 335.725C276.786 336.235 278.143 336.614 279.345 336.746C280.527 336.877 281.709 336.785 282.646 336.182L281.564 334.5C281.192 334.74 280.56 334.868 279.563 334.758C278.586 334.651 277.399 334.33 276.046 333.843C273.342 332.87 270.178 331.307 267.052 329.761L266.166 331.554ZM259.722 328.517C261.642 329.318 263.854 330.411 266.166 331.554L267.052 329.761C264.757 328.627 262.483 327.501 260.492 326.671L259.722 328.517ZM254.722 329.95C255.72 329.445 256.703 328.95 257.626 328.653C258.567 328.35 259.249 328.32 259.722 328.517L260.492 326.671C259.35 326.195 258.095 326.401 257.013 326.749C255.912 327.104 254.784 327.677 253.819 328.165L254.722 329.95ZM250.125 331.022C250.536 331.253 250.977 331.287 251.35 331.255C251.723 331.223 252.101 331.119 252.456 330.993C253.159 330.743 253.958 330.337 254.722 329.95L253.819 328.165C253.017 328.572 252.343 328.91 251.786 329.108C251.512 329.206 251.314 329.251 251.179 329.262C251.045 329.274 251.046 329.246 251.102 329.277L250.125 331.022ZM234.296 330.905C234.63 329.53 235.385 328.727 236.404 328.266C237.474 327.78 238.903 327.646 240.554 327.812C243.853 328.143 247.635 329.628 250.125 331.022L251.102 329.277C248.457 327.796 244.408 326.189 240.754 325.822C238.928 325.639 237.099 325.754 235.578 326.444C234.004 327.157 232.833 328.455 232.353 330.433L234.296 330.905ZM234.262 335.86C234.106 334.057 233.963 332.281 234.296 330.904L232.352 330.433C231.926 332.193 232.122 334.326 232.269 336.032L234.262 335.86ZM231.937 341.525C232.584 341.582 233.206 341.413 233.67 340.927C234.087 340.489 234.257 339.915 234.336 339.414C234.491 338.424 234.369 337.097 234.262 335.86L232.269 336.032C232.385 337.374 232.468 338.411 232.36 339.104C232.335 339.263 232.303 339.375 232.273 339.451C232.243 339.525 232.221 339.548 232.223 339.546C232.264 339.502 232.29 339.548 232.112 339.532L231.937 341.525ZM220.854 341.001C224.326 341.084 227.909 341.169 231.937 341.525L232.113 339.532C228.012 339.171 224.37 339.084 220.901 339.002L220.854 341.001ZM200.651 338.787C208.28 340.704 214.368 340.847 220.854 341.001L220.901 339.002C214.417 338.847 208.529 338.705 201.139 336.847L200.651 338.787ZM200.334 338.707L200.651 338.787L201.139 336.847L200.822 336.767L200.334 338.707ZM163.187 341.244C177.77 333.047 188.934 335.84 200.334 338.707L200.822 336.767C189.376 333.889 177.521 330.893 162.207 339.501L163.187 341.244ZM152.767 344.041C154.528 343.717 156.54 343.346 158.385 342.901C160.208 342.462 161.971 341.928 163.188 341.244L162.207 339.501C161.251 340.039 159.724 340.522 157.917 340.957C156.133 341.387 154.176 341.748 152.404 342.074L152.767 344.041ZM148.223 344.952C148.131 345.083 148.042 345.121 148.088 345.094C148.116 345.079 148.181 345.048 148.298 345.005C148.531 344.921 148.872 344.826 149.32 344.721C150.213 344.512 151.408 344.291 152.767 344.041L152.404 342.074C151.064 342.321 149.814 342.551 148.864 342.774C148.391 342.884 147.96 343 147.616 343.125C147.444 343.188 147.269 343.261 147.11 343.35C146.971 343.428 146.749 343.57 146.583 343.807L148.223 344.952ZM133.569 355.859C138.304 353.607 144.097 350.87 148.223 344.951L146.583 343.807C142.796 349.238 137.478 351.785 132.71 354.053L133.569 355.859ZM124.854 362.707C125.313 361.2 126.333 360.025 127.848 358.947C129.383 357.854 131.334 356.922 133.569 355.859L132.71 354.053C130.52 355.095 128.395 356.102 126.688 357.317C124.961 358.547 123.572 360.05 122.941 362.125L124.854 362.707ZM124.217 366.844C124.329 365.428 124.439 364.073 124.854 362.707L122.941 362.125C122.453 363.73 122.333 365.296 122.223 366.687L124.217 366.844ZM115.068 377.589C119.107 376.377 121.394 374.807 122.664 372.855C123.915 370.934 124.064 368.794 124.217 366.844L122.223 366.687C122.063 368.722 121.917 370.337 120.988 371.764C120.079 373.16 118.303 374.531 114.494 375.674L115.068 377.589ZM108.834 379.475C110.817 378.872 112.893 378.241 115.068 377.589L114.494 375.674C112.315 376.327 110.235 376.959 108.252 377.561L108.834 379.475ZM89.6673 384.782C94.8849 383.715 101.191 381.798 108.834 379.475L108.252 377.561C100.576 379.894 94.3719 381.778 89.2664 382.823L89.6673 384.782ZM68.7169 385.265C73.5267 385.949 79.6892 386.824 89.6673 384.782L89.2664 382.823C79.6162 384.797 73.7166 383.956 68.9985 383.285L68.7169 385.265ZM63.5415 384.743C65.1361 384.757 66.7823 384.99 68.7169 385.265L68.9985 383.285C67.0932 383.014 65.3111 382.759 63.5596 382.743L63.5415 384.743ZM56.5104 378.021C56.4664 378.936 56.4212 379.833 56.4939 380.62C56.5678 381.423 56.7715 382.226 57.3105 382.909C57.8543 383.598 58.6433 384.044 59.6526 384.323C60.6502 384.598 61.9272 384.728 63.5414 384.743L63.5597 382.743C62.0182 382.729 60.9396 382.603 60.1847 382.395C59.4413 382.19 59.0807 381.924 58.8806 381.67C58.6756 381.411 58.5411 381.041 58.4854 380.437C58.4284 379.818 58.462 379.076 58.5081 378.117L56.5104 378.021ZM56.3829 372.861C56.6617 374.838 56.5819 376.535 56.5104 378.021L58.5081 378.117C58.5796 376.631 58.6712 374.765 58.3633 372.582L56.3829 372.861ZM55.8319 369.3C56.0375 370.579 56.2285 371.767 56.3829 372.861L58.3633 372.581C58.2057 371.465 58.0114 370.257 57.8066 368.982L55.8319 369.3ZM54.264 351.682C54.0453 358.202 55.0415 364.383 55.8319 369.3L57.8066 368.982C57.0133 364.048 56.0515 358.049 56.2629 351.749L54.264 351.682ZM54.8221 344.349C54.5724 347.091 54.3282 349.768 54.264 351.682L56.2629 351.749C56.3247 349.906 56.562 347.296 56.8139 344.531L54.8221 344.349ZM55.4701 335.39C55.4163 337.818 55.1151 341.132 54.8221 344.349L56.8139 344.531C57.1045 341.339 57.414 337.947 57.4696 335.435L55.4701 335.39ZM59.2076 318.132C57.5776 322.031 55.6624 326.623 55.4701 335.391L57.4696 335.435C57.6541 327.022 59.4677 322.695 61.0529 318.903L59.2076 318.132ZM61.3547 311.242C61.0232 313.777 60.1917 315.778 59.2076 318.132L61.0529 318.903C62.0292 316.568 62.9671 314.336 63.3378 311.501L61.3547 311.242ZM60.9505 302.125C61.3487 305.239 61.7363 308.315 61.3547 311.242L63.3379 311.501C63.7587 308.273 63.3261 304.935 62.9344 301.871L60.9505 302.125ZM60.5022 294.2C60.2515 296.698 60.6073 299.441 60.9505 302.125L62.9344 301.871C62.5836 299.128 62.2687 296.626 62.4922 294.399L60.5022 294.2ZM65.0128 282.522C63.1368 285.802 60.9688 289.567 60.5022 294.199L62.4922 294.4C62.91 290.251 64.8481 286.838 66.7489 283.515L65.0128 282.522ZM66.5419 279.764C66.0788 280.658 65.5591 281.567 65.0128 282.522L66.7489 283.515C67.291 282.567 67.8322 281.621 68.3178 280.684L66.5419 279.764ZM70.5853 272.976C69.4997 274.618 68.1506 276.659 66.542 279.764L68.3178 280.684C69.8761 277.676 71.1775 275.707 72.2537 274.079L70.5853 272.976ZM73.6816 266.262C73.1505 269.086 72.1859 270.555 70.5853 272.976L72.2537 274.079C73.8672 271.639 75.036 269.881 75.6471 266.631L73.6816 266.262ZM70.5696 262.283C71.412 263.14 72.2387 263.983 72.8463 264.767C73.1484 265.157 73.3713 265.501 73.5105 265.796C73.6529 266.098 73.6747 266.278 73.6676 266.366L75.6611 266.527C75.7073 265.957 75.5408 265.412 75.3189 264.942C75.0938 264.465 74.7763 263.993 74.4274 263.542C73.7332 262.646 72.8157 261.715 71.9959 260.881L70.5696 262.283ZM67.98 257.227C67.5842 257.766 67.647 258.369 67.7883 258.793C67.9262 259.206 68.183 259.607 68.4504 259.962C68.9901 260.679 69.7974 261.497 70.5696 262.283L71.9959 260.881C71.1888 260.06 70.4907 259.347 70.0482 258.759C69.8245 258.462 69.7212 258.267 69.6858 258.16C69.6538 258.065 69.7304 258.223 69.5916 258.412L67.98 257.227ZM66.9042 258.142C67.2983 258.123 67.6277 258.107 67.903 258.105C68.1926 258.103 68.3457 258.117 68.4107 258.132C68.4418 258.138 68.39 258.132 68.308 258.081C68.2111 258.019 68.062 257.885 67.993 257.655C67.9283 257.44 67.9748 257.275 67.994 257.221C68.0122 257.171 68.023 257.169 67.981 257.226L69.5906 258.413C69.6956 258.271 69.8049 258.097 69.8767 257.896C69.9496 257.693 70.005 257.401 69.9082 257.079C69.7033 256.398 69.0561 256.225 68.8363 256.177C68.5395 256.113 68.197 256.103 67.8874 256.105C67.5636 256.108 67.1903 256.126 66.8085 256.144L66.9042 258.142ZM59.3951 256.616C60.5423 257.556 61.9667 257.942 63.2819 258.098C64.6001 258.254 65.9184 258.189 66.9042 258.142L66.8085 256.144C65.8022 256.192 64.6454 256.246 63.5171 256.112C62.3859 255.978 61.3924 255.667 60.6622 255.069L59.3951 256.616ZM58.1485 249.393C58.1123 250.582 58.0669 252.032 58.1704 253.296C58.2222 253.928 58.3142 254.557 58.4807 255.106C58.6413 255.637 58.9079 256.219 59.3964 256.617L60.6609 255.068C60.6243 255.038 60.5092 254.904 60.3948 254.527C60.2863 254.168 60.21 253.697 60.1637 253.132C60.0711 252.002 60.1105 250.671 60.1476 249.454L58.1485 249.393ZM58.1347 247.035C58.1243 247.008 58.1404 247.042 58.1554 247.193C58.1688 247.328 58.177 247.506 58.1797 247.731C58.1852 248.182 58.1682 248.745 58.1485 249.393L60.1476 249.454C60.1669 248.821 60.1857 248.209 60.1796 247.707C60.1765 247.454 60.1671 247.211 60.1455 246.995C60.1255 246.794 60.0892 246.547 60.0035 246.323L58.1347 247.035ZM57.9652 245.402C58.0237 244.722 58.0663 244.241 58.1219 243.934C58.1526 243.765 58.1699 243.756 58.1399 243.813C58.1241 243.843 58.0494 243.98 57.8728 244.094C57.6521 244.236 57.3832 244.269 57.1461 244.2C56.9575 244.145 56.855 244.046 56.8383 244.03C56.8132 244.005 56.8145 244 56.8414 244.04C56.895 244.119 56.9817 244.271 57.1061 244.533C57.3518 245.049 57.6833 245.857 58.1353 247.036L60.0029 246.321C59.5496 245.138 59.1942 244.266 58.9118 243.673C58.7721 243.379 58.6344 243.12 58.4958 242.916C58.4266 242.814 58.3399 242.7 58.2338 242.597C58.1363 242.502 57.9599 242.354 57.7037 242.279C57.399 242.191 57.0687 242.233 56.7918 242.411C56.559 242.561 56.4335 242.761 56.371 242.88C56.2479 243.113 56.1893 243.382 56.154 243.577C56.0775 243.999 56.0273 244.595 55.9726 245.23L57.9652 245.402ZM56.6133 252.541C57.5767 249.975 57.8125 247.175 57.9652 245.402L55.9726 245.23C55.8172 247.035 55.5936 249.567 54.741 251.838L56.6133 252.541ZM53.1649 247.741C53.2078 248.734 53.2488 249.79 53.4784 250.687C53.7181 251.624 54.1971 252.526 55.2013 253.069L56.153 251.31C55.8062 251.122 55.5729 250.804 55.4159 250.191C55.2488 249.538 55.2087 248.713 55.1631 247.655L53.1649 247.741ZM51.9361 242.038C52.9775 243.795 53.0803 245.778 53.1649 247.741L55.1631 247.655C55.0812 245.756 54.9913 243.27 53.6566 241.018L51.9361 242.038ZM51.9195 242.01C51.9535 241.974 51.984 241.942 52.0136 241.911C52.043 241.88 52.0695 241.853 52.094 241.828C52.1186 241.803 52.1399 241.783 52.1586 241.766C52.1773 241.748 52.192 241.736 52.2032 241.727C52.2144 241.717 52.2203 241.713 52.2212 241.713C52.2221 241.712 52.216 241.716 52.2032 241.723C52.1773 241.736 52.1181 241.761 52.032 241.769C51.9892 241.774 51.9446 241.773 51.8997 241.767C51.855 241.761 51.8152 241.751 51.7815 241.739C51.7151 241.714 51.6832 241.687 51.6853 241.688C51.6859 241.689 51.6931 241.695 51.7064 241.709C51.7197 241.724 51.7378 241.744 51.7604 241.774C51.783 241.803 51.8092 241.839 51.8388 241.883C51.8685 241.927 51.9009 241.979 51.9361 242.038L53.6565 241.018C53.4594 240.686 53.2381 240.381 52.9716 240.157C52.6836 239.915 52.2974 239.734 51.8384 239.779C51.4253 239.819 51.1198 240.029 50.9397 240.176C50.7571 240.325 50.5854 240.51 50.4645 240.638L51.9195 242.01ZM49.4787 243.307C50.768 243.286 51.5424 242.41 51.9195 242.01L50.4645 240.638C50.0217 241.107 49.7866 241.301 49.447 241.307L49.4787 243.307ZM48.908 238.143C48.7142 239.283 48.4727 240.694 48.4629 242.301L50.4628 242.313C50.4716 240.889 50.6846 239.626 50.8797 238.478L48.908 238.143ZM44.3225 234.602C45.9171 234.51 47.0244 234.55 47.786 234.688C48.5498 234.826 48.8403 235.04 48.962 235.186C49.0783 235.326 49.1756 235.564 49.1702 236.083C49.1647 236.616 49.0563 237.27 48.908 238.143L50.8797 238.478C51.0192 237.657 51.1626 236.829 51.1701 236.104C51.1778 235.364 51.0493 234.567 50.4979 233.905C49.952 233.251 49.1331 232.9 48.1427 232.72C47.1501 232.54 45.8585 232.51 44.2064 232.606L44.3225 234.602ZM35.8353 229.668C38.0813 232.669 40.9632 234.799 44.3229 234.602L44.206 232.606C41.8388 232.744 39.5223 231.256 37.4363 228.47L35.8353 229.668ZM26.254 228.453C26.2492 228.423 26.2409 228.449 26.2599 228.43C26.3256 228.366 26.5088 228.249 26.8974 228.146C27.6642 227.943 28.8294 227.899 30.1431 228.012C31.4385 228.124 32.7865 228.381 33.8819 228.719C34.4301 228.889 34.8934 229.072 35.2467 229.256C35.6204 229.451 35.7857 229.602 35.8351 229.668L37.4365 228.47C37.1204 228.048 36.6418 227.728 36.1702 227.482C35.6784 227.226 35.0952 227.001 34.4727 226.809C33.2269 226.423 31.737 226.142 30.3149 226.02C28.911 225.899 27.4791 225.924 26.386 226.213C25.8447 226.356 25.2823 226.59 24.8639 226.998C24.3987 227.452 24.1677 228.07 24.2789 228.767L26.254 228.453ZM22.3996 233.19C22.2747 234.98 22.2638 236.389 22.3406 237.466C22.4152 238.512 22.5783 239.353 22.8771 239.928C23.0285 240.219 23.27 240.55 23.6586 240.739C24.0936 240.952 24.5416 240.906 24.8991 240.738C25.222 240.587 25.4702 240.343 25.6535 240.115C25.8446 239.878 26.0143 239.598 26.1641 239.298C26.7538 238.121 27.2116 236.293 27.3052 234.324C27.3992 232.347 27.1319 230.116 26.1619 228.165L24.371 229.055C25.1435 230.609 25.3909 232.474 25.3075 234.229C25.2237 235.992 24.8119 237.532 24.3758 238.403C24.2691 238.616 24.1725 238.765 24.096 238.86C24.0117 238.965 23.9908 238.955 24.0516 238.927C24.1471 238.882 24.34 238.847 24.5352 238.942C24.684 239.014 24.7011 239.101 24.6518 239.006C24.5492 238.808 24.4057 238.308 24.3355 237.324C24.2676 236.372 24.2737 235.064 24.3947 233.329L22.3996 233.19ZM21.0515 228.593C21.6899 229.334 22.1855 229.922 22.4627 230.588C22.7144 231.193 22.8021 231.912 22.4512 232.935L24.343 233.584C24.8457 232.119 24.7564 230.894 24.3092 229.82C23.8875 228.806 23.1623 227.979 22.5661 227.287L21.0515 228.593ZM19.4629 221.124C18.7058 222.918 18.6819 224.385 19.1309 225.664C19.5578 226.879 20.3873 227.823 21.0515 228.593L22.5661 227.287C21.8581 226.466 21.2986 225.8 21.0179 225.001C20.7593 224.265 20.7092 223.314 21.3055 221.901L19.4629 221.124ZM25.8931 214.048C23.6863 215.598 21.0068 217.461 19.4628 221.124L21.3057 221.901C22.604 218.821 24.8253 217.242 27.0425 215.685L25.8931 214.048ZM28.9639 211.52C28.1967 212.423 27.1511 213.165 25.8931 214.048L27.0425 215.685C28.2517 214.836 29.5249 213.949 30.4885 212.814L28.9639 211.52ZM30.6334 209.528C30.1163 210.15 29.5627 210.816 28.9645 211.519L30.4879 212.815C31.0945 212.102 31.6548 211.428 32.1712 210.807L30.6334 209.528ZM37.2059 204.782C36.5883 204.513 35.9672 204.581 35.4189 204.809C34.8993 205.025 34.4044 205.398 33.9349 205.826C32.9984 206.68 31.9058 207.998 30.6334 209.528L32.1712 210.807C33.4833 209.229 34.4729 208.042 35.2825 207.304C35.6861 206.936 35.9803 206.741 36.1865 206.655C36.364 206.582 36.4055 206.614 36.4079 206.616L37.2059 204.782ZM35.0173 211.364C35.9729 210.287 37.0183 209.113 37.6346 208.124C37.9321 207.647 38.2247 207.069 38.2621 206.484C38.2825 206.166 38.2295 205.807 38.0256 205.473C37.8214 205.138 37.521 204.918 37.2042 204.781L36.4096 206.616C36.4357 206.628 36.3743 206.606 36.3183 206.514C36.2624 206.423 36.2666 206.351 36.2662 206.357C36.2621 206.421 36.2013 206.643 35.9374 207.066C35.431 207.879 34.5217 208.909 33.5209 210.037L35.0173 211.364ZM32.2618 215.055C32.2708 214.987 32.3177 214.828 32.4676 214.558C32.611 214.3 32.8165 213.996 33.0786 213.651C33.6049 212.958 34.2938 212.18 35.0173 211.364L33.5209 210.037C32.812 210.837 32.0674 211.675 31.4856 212.442C31.1936 212.826 30.9263 213.214 30.719 213.587C30.5181 213.949 30.3363 214.363 30.2793 214.79L32.2618 215.055ZM37.9759 213.85C36.8305 214.212 35.125 214.516 33.7395 214.587C33.0362 214.624 32.4962 214.596 32.1747 214.523C32.0049 214.484 31.9971 214.455 32.0522 214.499C32.1576 214.584 32.2968 214.793 32.2617 215.055L30.2794 214.79C30.2059 215.339 30.4581 215.784 30.8005 216.059C31.0924 216.293 31.4454 216.408 31.7325 216.473C32.3249 216.607 33.0837 216.624 33.843 216.585C35.3828 216.505 37.2576 216.175 38.5793 215.756L37.9759 213.85ZM44.1713 214.518C43.2144 214.219 42.1343 213.881 41.093 213.701C40.0602 213.523 38.9324 213.475 37.9148 213.871L38.6404 215.735C39.1577 215.533 39.857 215.517 40.753 215.672C41.6406 215.825 42.591 216.12 43.5756 216.427L44.1713 214.518ZM47.467 215.199C47.2057 215.249 46.7926 215.225 46.1827 215.09C45.5883 214.959 44.9198 214.751 44.1713 214.518L43.5756 216.427C44.3023 216.654 45.0577 216.89 45.7522 217.043C46.4311 217.193 47.1719 217.293 47.8459 217.163L47.467 215.199ZM48.1471 213.579C48.1916 214.133 48.2061 214.503 48.1134 214.774C48.0773 214.879 48.0306 214.946 47.9664 215C47.8979 215.057 47.7564 215.143 47.4661 215.199L47.8467 217.162C48.3948 217.056 48.8685 216.852 49.2488 216.534C49.6334 216.213 49.869 215.82 50.0054 215.422C50.2575 214.686 50.1775 213.878 50.1407 213.419L48.1471 213.579ZM49.3565 211.322C49.0303 211.358 48.7076 211.503 48.4685 211.787C48.2541 212.042 48.1769 212.326 48.1443 212.523C48.0843 212.883 48.1257 213.312 48.1471 213.579L50.1407 213.419C50.1275 213.254 50.1176 213.129 50.1141 213.02C50.1124 212.968 50.1124 212.928 50.1136 212.897C50.1142 212.882 50.115 212.871 50.1158 212.863C50.1166 212.855 50.1172 212.851 50.1172 212.851C50.1172 212.851 50.1163 212.856 50.1138 212.866C50.1114 212.875 50.1069 212.89 50.0993 212.909C50.0841 212.948 50.0543 213.009 49.9989 213.075C49.9413 213.143 49.8674 213.203 49.7816 213.247C49.6981 213.289 49.6237 213.305 49.5736 213.31L49.3565 211.322ZM52.5942 217.116C52.7106 216.01 52.8771 214.559 52.5916 213.43C52.4399 212.83 52.1357 212.207 51.5326 211.781C50.9275 211.353 50.1764 211.232 49.3558 211.322L49.5742 213.31C50.0834 213.254 50.2947 213.355 50.3777 213.413C50.4628 213.474 50.5723 213.603 50.6527 213.92C50.8313 214.627 50.7354 215.669 50.6052 216.907L52.5942 217.116ZM52.4729 219.449C52.6246 219.542 52.4947 219.605 52.4692 219.028C52.4474 218.534 52.5123 217.895 52.5942 217.116L50.6052 216.907C50.5285 217.635 50.4414 218.441 50.4712 219.116C50.4973 219.707 50.6227 220.662 51.4303 221.156L52.4729 219.449ZM52.771 219.459C52.7629 219.59 52.7562 219.699 52.747 219.799C52.7379 219.9 52.7281 219.972 52.7175 220.026C52.7066 220.081 52.6995 220.091 52.7066 220.076C52.7149 220.057 52.7486 219.991 52.8288 219.923C52.9164 219.849 53.016 219.809 53.0995 219.795C53.1717 219.783 53.2017 219.796 53.166 219.788C53.1308 219.78 53.0569 219.758 52.9349 219.702C52.8147 219.646 52.6627 219.565 52.4733 219.449L51.4299 221.155C51.8888 221.436 52.322 221.648 52.7265 221.739C53.152 221.835 53.6837 221.821 54.1239 221.447C54.5064 221.122 54.6276 220.676 54.6795 220.414C54.7353 220.132 54.7528 219.817 54.7672 219.582L52.771 219.459ZM55.2375 216.428C54.7585 216.441 54.3145 216.552 53.9322 216.791C53.5459 217.032 53.2909 217.361 53.1261 217.699C52.8265 218.314 52.7964 219.044 52.771 219.459L54.7672 219.582C54.782 219.34 54.795 219.139 54.8232 218.954C54.8512 218.769 54.8876 218.65 54.9239 218.575C54.9547 218.512 54.9775 218.496 54.9912 218.487C55.009 218.476 55.0875 218.433 55.2937 218.427L55.2375 216.428ZM57.1732 218.33C57.0763 218.053 56.9305 217.618 56.7077 217.268C56.4659 216.888 55.9999 216.407 55.2376 216.428L55.2935 218.427C55.2093 218.429 55.1177 218.402 55.0491 218.355C54.9961 218.319 54.9914 218.296 55.0203 218.342C55.0484 218.386 55.0863 218.46 55.1347 218.579C55.1828 218.697 55.2289 218.829 55.2849 218.989L57.1732 218.33ZM58.4147 217.627C57.8918 218.256 57.5243 218.601 57.2801 218.774C57.0191 218.959 57.0484 218.845 57.2454 218.887C57.4538 218.931 57.4922 219.074 57.4184 218.944C57.3472 218.819 57.2792 218.634 57.1732 218.33L55.2849 218.989C55.3739 219.244 55.5006 219.617 55.6797 219.932C55.8562 220.243 56.2007 220.709 56.8268 220.843C57.4416 220.974 58.0004 220.715 58.4367 220.406C58.8897 220.085 59.3872 219.586 59.9531 218.905L58.4147 217.627ZM62.2505 216.884C62.0493 216.714 61.7824 216.486 61.5029 216.302C61.2339 216.125 60.8365 215.908 60.3626 215.88C59.8135 215.848 59.3197 216.075 58.9475 216.498C58.6148 216.877 58.3897 217.396 58.2212 217.995L60.1465 218.536C60.2813 218.057 60.4043 217.87 60.4498 217.819C60.465 217.801 60.4494 217.825 60.3965 217.848C60.3406 217.873 60.2842 217.879 60.2444 217.877C60.1938 217.874 60.2348 217.862 60.4042 217.973C60.5632 218.078 60.7349 218.221 60.9573 218.41L62.2505 216.884ZM62.2598 216.99C62.236 217.175 62.2089 217.308 62.1835 217.401C62.171 217.447 62.16 217.478 62.1518 217.499C62.1436 217.52 62.1397 217.526 62.1426 217.521C62.1473 217.513 62.1897 217.443 62.293 217.376C62.345 217.343 62.4047 217.316 62.4695 217.298C62.5338 217.28 62.5933 217.275 62.6436 217.275C62.6929 217.276 62.7306 217.283 62.7542 217.289C62.7774 217.294 62.7901 217.3 62.7909 217.3C62.7919 217.301 62.7852 217.298 62.7701 217.289C62.7552 217.281 62.7351 217.268 62.7092 217.251C62.656 217.215 62.5915 217.167 62.5115 217.102C62.4314 217.038 62.3474 216.966 62.2505 216.884L60.9573 218.41C61.1353 218.561 61.3643 218.757 61.5921 218.91C61.7948 219.046 62.1627 219.269 62.6146 219.275C63.2015 219.284 63.6289 218.943 63.8712 218.527C64.0787 218.17 64.1825 217.719 64.2435 217.245L62.2598 216.99ZM57.7501 213.597C59.908 214.464 61.7425 215.264 62.2832 217.367L64.2201 216.868C63.3914 213.645 60.4814 212.539 58.4956 211.741L57.7501 213.597ZM53.9232 208.354C53.697 209.079 53.6387 209.765 53.7905 210.405C53.9443 211.054 54.2922 211.565 54.7241 211.969C55.5259 212.72 56.7311 213.188 57.7501 213.597L58.4956 211.741C57.3524 211.282 56.559 210.947 56.0908 210.509C55.8877 210.319 55.7828 210.139 55.7365 209.944C55.6883 209.74 55.6827 209.43 55.8325 208.949L53.9232 208.354ZM51.5291 207.509C51.478 207.458 51.4842 207.462 51.4983 207.48C51.5072 207.491 51.5442 207.537 51.5811 207.611C51.6145 207.679 51.6881 207.848 51.6728 208.079C51.6548 208.354 51.5215 208.587 51.3424 208.74C51.1931 208.867 51.0483 208.909 50.9973 208.922C50.8988 208.948 50.8564 208.936 50.9531 208.94C51.3227 208.956 52.3215 209.118 54.6652 209.629L55.0906 207.674C52.8014 207.176 51.6178 206.967 51.0411 206.942C50.9012 206.936 50.6994 206.934 50.4999 206.985C50.3984 207.011 50.2176 207.07 50.0446 207.218C49.8417 207.391 49.6969 207.647 49.6771 207.948C49.6601 208.207 49.7418 208.405 49.7908 208.503C49.8432 208.608 49.9032 208.688 49.9401 208.734C50.0105 208.821 50.0931 208.901 50.1199 208.928L51.5291 207.509ZM47.5531 209.156C48.492 209.325 49.1904 209.433 49.7055 209.495C50.1973 209.554 50.5921 209.58 50.885 209.55C51.0086 209.538 51.2766 209.502 51.5249 209.331C51.6705 209.23 51.8302 209.067 51.9215 208.827C52.0123 208.587 52.0002 208.364 51.9621 208.201C51.8976 207.925 51.7387 207.737 51.6942 207.684C51.6296 207.608 51.5577 207.537 51.5291 207.509L50.1199 208.928C50.1648 208.973 50.1676 208.977 50.163 208.971C50.1585 208.966 50.138 208.941 50.1133 208.901C50.0908 208.864 50.0434 208.779 50.0146 208.656C49.9837 208.524 49.9711 208.329 50.0517 208.117C50.1328 207.903 50.2726 207.765 50.3866 207.686C50.5718 207.558 50.7299 207.556 50.6809 207.561C50.6286 207.566 50.4272 207.567 49.9441 207.509C49.4841 207.454 48.8286 207.353 47.907 207.187L47.5531 209.156ZM45.8014 206.175C45.9383 206.723 46.0875 207.326 46.2631 207.798C46.3506 208.034 46.4657 208.296 46.6246 208.523C46.772 208.734 47.0658 209.069 47.5541 209.156L47.906 207.187C48.1853 207.237 48.2902 207.415 48.263 207.376C48.2473 207.354 48.2022 207.275 48.1377 207.101C48.0095 206.757 47.8884 206.277 47.7418 205.69L45.8014 206.175ZM45.1186 203.82C44.9776 203.813 44.9279 203.735 44.9754 203.788C45.0317 203.851 45.121 203.989 45.2276 204.24C45.4417 204.744 45.6148 205.427 45.8014 206.175L47.7418 205.69C47.5669 204.99 47.3569 204.138 47.0687 203.459C46.9242 203.118 46.7326 202.753 46.4662 202.455C46.1909 202.147 45.7765 201.85 45.2168 201.823L45.1186 203.82ZM52.3964 189.76C49.8617 192.107 47.037 194.718 45.2491 197.022C44.3643 198.162 43.6429 199.337 43.3969 200.447C43.27 201.02 43.2588 201.622 43.461 202.204C43.6667 202.795 44.0634 203.277 44.6028 203.647L45.7326 201.996C45.495 201.834 45.3963 201.68 45.35 201.547C45.3001 201.403 45.2802 201.193 45.3496 200.88C45.4961 200.218 45.9874 199.332 46.829 198.248C48.4939 196.103 51.1772 193.614 53.7552 191.227L52.3964 189.76ZM57.7114 184.441C56.6601 185.807 54.6582 187.665 52.3964 189.76L53.7552 191.227C55.9564 189.189 58.1164 187.194 59.2962 185.661L57.7114 184.441ZM44.9852 181.207C46.6027 182.299 49.7191 183.766 52.5006 184.821C53.8978 185.351 55.2564 185.794 56.3387 186.036C56.8739 186.156 57.3884 186.238 57.8259 186.241C58.044 186.243 58.2865 186.226 58.5211 186.161C58.7505 186.098 59.0612 185.964 59.2934 185.665L57.7141 184.438C57.8426 184.272 57.9852 184.234 57.9888 184.233C57.9977 184.231 57.957 184.242 57.8414 184.241C57.6115 184.24 57.2563 184.192 56.7757 184.085C55.8262 183.872 54.5678 183.466 53.2096 182.951C50.4803 181.916 47.5318 180.513 46.1039 179.55L44.9852 181.207ZM43.7644 182.458C44.3512 181.875 44.7618 181.474 45.0771 181.264C45.2342 181.16 45.2562 181.182 45.1794 181.188C45.0275 181.202 44.874 181.128 44.8009 181.047L46.2882 179.71C45.9543 179.338 45.4988 179.153 45.006 179.196C44.5883 179.232 44.2304 179.426 43.9706 179.598C43.4522 179.942 42.8812 180.516 42.3547 181.04L43.7644 182.458ZM38.1398 185.848C39.3876 185.782 40.4852 185.218 41.3942 184.565C42.3033 183.913 43.1127 183.106 43.7644 182.458L42.3547 181.04C41.6842 181.706 40.9857 182.397 40.2282 182.94C39.4707 183.484 38.743 183.813 38.0342 183.851L38.1398 185.848ZM26.9933 177.964C27.0471 178.811 27.579 179.728 28.2014 180.527C28.8595 181.371 29.7557 182.253 30.7831 183.048C32.8021 184.611 35.5297 185.987 38.1403 185.848L38.0337 183.851C36.126 183.952 33.8729 182.911 32.0071 181.467C31.0922 180.759 30.32 179.991 29.7786 179.297C29.2013 178.556 29.0026 178.047 28.9892 177.837L26.9933 177.964ZM19.915 180.715C20.6347 179.976 21.6221 178.977 22.8987 178.413C24.1086 177.879 25.6197 177.719 27.5026 178.773L28.4799 177.028C26.0098 175.645 23.8344 175.814 22.0912 176.584C20.4148 177.323 19.1825 178.601 18.4829 179.318L19.915 180.715ZM17.4441 179.15C17.3556 179.611 17.2944 179.997 17.2805 180.292C17.2739 180.432 17.2732 180.626 17.3209 180.823C17.3636 180.999 17.514 181.439 18.0111 181.626C18.459 181.795 18.8364 181.614 18.9526 181.553C19.1063 181.473 19.2356 181.368 19.3237 181.293C19.5044 181.137 19.7164 180.918 19.915 180.715L18.4829 179.318C18.2577 179.549 18.1172 179.692 18.0186 179.777C17.967 179.822 17.975 179.807 18.0258 179.781C18.0537 179.766 18.1257 179.731 18.2319 179.711C18.3433 179.69 18.5184 179.68 18.7147 179.754C19.1461 179.916 19.2497 180.29 19.2645 180.351C19.2843 180.433 19.2746 180.464 19.2783 180.386C19.2849 180.246 19.3209 179.982 19.4082 179.527L17.4441 179.15ZM12.7622 181.275C14.1557 180.478 15.3421 179.807 16.2845 179.534C16.7473 179.401 17.0286 179.403 17.186 179.445C17.289 179.473 17.4061 179.531 17.5291 179.78L19.3232 178.896C18.9744 178.188 18.4239 177.707 17.7063 177.514C17.043 177.335 16.3506 177.434 15.7295 177.613C14.5042 177.967 13.082 178.788 11.7691 179.539L12.7622 181.275ZM2.94381 180.773C3.3275 181.922 3.93119 182.777 4.79297 183.268C5.64893 183.755 6.59883 183.791 7.48967 183.631C9.20424 183.325 11.1334 182.207 12.7622 181.275L11.7691 179.539C10.028 180.535 8.43533 181.431 7.13813 181.663C6.5231 181.772 6.09462 181.707 5.78246 181.53C5.47611 181.355 5.12192 180.981 4.84071 180.14L2.94381 180.773ZM2.45425 173.513C2.38106 176.241 2.29725 178.837 2.94375 180.773L4.84077 180.14C4.33214 178.617 4.37643 176.44 4.45353 173.567L2.45425 173.513ZM2.43265 167.499C2.55822 169.619 2.50463 171.636 2.45425 173.513L4.45353 173.567C4.50367 171.699 4.56054 169.6 4.42915 167.38L2.43265 167.499ZM1.86516 162.906C2.10925 164.495 2.34544 166.036 2.43267 167.499L4.42913 167.38C4.33536 165.808 4.08311 164.172 3.84195 162.603L1.86516 162.906ZM1.66491 153.895C1.2579 155.256 1.20083 156.755 1.29178 158.264C1.38279 159.773 1.628 161.363 1.86516 162.906L3.84195 162.603C3.6017 161.039 3.37259 159.544 3.28815 158.143C3.20365 156.742 3.26999 155.508 3.58105 154.468L1.66491 153.895ZM11.0604 135.176C5.70503 140.917 3.63231 147.323 1.66499 153.894L3.58097 154.468C5.54711 147.901 7.51617 141.907 12.5229 136.54L11.0604 135.176ZM12.1041 134.255C11.8179 134.474 11.451 134.754 11.0581 135.178L12.5253 136.537C12.7918 136.249 13.0378 136.059 13.3206 135.843L12.1041 134.255ZM14.1864 126.314C13.9202 129.899 13.5947 131.726 13.2351 132.748C13.0629 133.237 12.8931 133.509 12.7393 133.694C12.5768 133.889 12.399 134.029 12.1041 134.255L13.3206 135.843C13.5992 135.629 13.9505 135.364 14.2757 134.974C14.6096 134.573 14.886 134.081 15.1216 133.412C15.5776 132.116 15.9143 130.053 16.1809 126.462L14.1864 126.314ZM19.1636 115.889C16.7834 119.074 14.4982 122.092 14.1864 126.314L16.1809 126.462C16.4432 122.911 18.3303 120.345 20.7657 117.086L19.1636 115.889ZM31.0693 66.4664C30.0964 65.6105 29.826 64.7406 29.845 63.8291C29.8659 62.8308 30.2316 61.7687 30.6628 60.5493L28.7772 59.8825C28.3711 61.031 27.8743 62.4078 27.8455 63.7873C27.8148 65.2536 28.3075 66.7004 29.7482 67.968L31.0693 66.4664ZM30.8015 103.287C29.1859 98.9312 27.6 94.6418 27.2628 89.1342C26.926 83.6341 27.8338 76.8485 31.344 67.5711L29.4734 66.8633C25.8875 76.341 24.9087 83.4124 25.2665 89.2565C25.6239 95.093 27.3137 99.6348 28.9263 103.982L30.8015 103.287ZM32.6574 108.596C32.0947 106.772 31.4443 105.02 30.8015 103.287L28.9263 103.982C29.5721 105.723 30.2027 107.424 30.7463 109.186L32.6574 108.596ZM32.7125 112.594C32.8918 111.417 33.1109 110.073 32.6578 108.597L30.7459 109.184C31.0458 110.161 30.9226 111.064 30.7353 112.293L32.7125 112.594ZM34.8932 120.654C33.4162 118.741 32.8184 117.247 32.6031 116.019C32.3857 114.779 32.5397 113.728 32.7125 112.594L30.7353 112.293C30.5641 113.417 30.3528 114.765 30.6332 116.364C30.9156 117.976 31.6788 119.764 33.3103 121.876L34.8932 120.654ZM44.9905 125.566C42.8838 125.488 41.3203 125.419 39.7991 124.817C38.3107 124.228 36.7697 123.083 34.8932 120.654L33.3103 121.876C35.3265 124.487 37.1364 125.914 39.0631 126.677C40.9571 127.426 42.8729 127.489 44.9157 127.565L44.9905 125.566ZM55.9746 127.438C51.2118 125.799 47.7605 125.67 44.9905 125.566L44.9157 127.565C47.6356 127.667 50.8472 127.788 55.3238 129.329L55.9746 127.438ZM61.1071 124.327C59.8839 125.316 58.774 126.21 57.7999 126.806C57.3158 127.102 56.9102 127.295 56.5795 127.392C56.2489 127.49 56.0674 127.469 55.9744 127.438L55.324 129.329C55.943 129.542 56.5768 129.478 57.1438 129.311C57.7108 129.144 58.2853 128.853 58.8431 128.512C59.953 127.834 61.1742 126.844 62.3642 125.883L61.1071 124.327ZM72.6067 122.81C72.0211 121.529 71.2105 120.646 70.1459 120.253C69.0985 119.867 68.0049 120.029 67.0038 120.4C65.0516 121.124 62.9347 122.85 61.1071 124.327L62.3642 125.883C64.2894 124.327 66.1237 122.86 67.6992 122.276C68.462 121.993 69.0264 121.972 69.4535 122.13C69.8633 122.281 70.3436 122.67 70.7876 123.641L72.6067 122.81ZM82.6921 136.379C79.2459 135.307 76.5807 132.825 74.8475 130.159C73.9833 128.83 73.3662 127.478 73.005 126.272C72.6377 125.047 72.5588 124.054 72.6799 123.411L70.7144 123.041C70.5106 124.123 70.6754 125.466 71.0891 126.846C71.5089 128.247 72.2103 129.772 73.1707 131.249C75.0866 134.196 78.0953 137.044 82.0981 138.289L82.6921 136.379ZM107.654 138.645C102.895 138.857 97.4526 138.542 92.7771 138.042C88.0783 137.54 84.2492 136.862 82.6913 136.379L82.0988 138.289C83.857 138.834 87.8537 139.527 92.5646 140.031C97.2988 140.537 102.85 140.862 107.743 140.643L107.654 138.645ZM118.733 133.317C120.858 134.063 122.929 134.79 124.429 135.486C125.186 135.837 125.727 136.149 126.045 136.411C126.435 136.731 126.173 136.693 126.252 136.388C126.284 136.268 126.341 136.256 126.249 136.329C126.157 136.401 125.977 136.509 125.659 136.636C125.024 136.889 124.011 137.15 122.506 137.401C119.509 137.901 114.762 138.327 107.654 138.645L107.743 140.643C114.87 140.325 119.715 139.894 122.835 139.374C124.389 139.115 125.567 138.825 126.399 138.494C126.816 138.328 127.189 138.135 127.487 137.899C127.786 137.664 128.072 137.336 128.187 136.894C128.436 135.945 127.765 135.236 127.316 134.866C126.796 134.438 126.067 134.041 125.27 133.671C123.663 132.926 121.487 132.164 119.395 131.43L118.733 133.317ZM116.94 132.684C117.529 132.895 118.132 133.106 118.733 133.317L119.395 131.43C118.793 131.219 118.196 131.009 117.613 130.801L116.94 132.684ZM110.387 127.403C110.677 128.114 111.202 128.764 111.767 129.322C112.341 129.889 113.015 130.416 113.673 130.871C114.971 131.769 116.327 132.469 116.945 132.686L117.608 130.799C117.218 130.662 116.026 130.067 114.811 129.227C114.213 128.813 113.639 128.36 113.171 127.899C112.694 127.428 112.383 127.001 112.239 126.649L110.387 127.403ZM114.006 120.376C113.544 120.279 113.141 120.436 112.881 120.582C112.607 120.735 112.36 120.95 112.147 121.173C111.718 121.622 111.307 122.233 110.974 122.892C110.639 123.554 110.359 124.311 110.223 125.07C110.089 125.816 110.08 126.652 110.388 127.405L112.239 126.647C112.128 126.376 112.094 125.964 112.192 125.423C112.287 124.893 112.492 124.321 112.759 123.794C113.027 123.265 113.332 122.828 113.594 122.554C113.726 122.415 113.819 122.349 113.86 122.325C113.917 122.294 113.805 122.378 113.594 122.333L114.006 120.376ZM114.572 120.49C114.361 120.449 114.173 120.411 114.007 120.376L113.593 122.333C113.775 122.371 113.976 122.411 114.183 122.452L114.572 120.49ZM120.593 124.109C120.412 122.62 119.056 121.832 117.994 121.402C116.849 120.938 115.5 120.674 114.572 120.49L114.183 122.452C115.149 122.644 116.305 122.876 117.244 123.256C118.266 123.67 118.574 124.073 118.608 124.35L120.593 124.109ZM128.215 129.234C126.061 128.869 124.173 128.047 122.807 127.053C121.408 126.035 120.698 124.948 120.593 124.105L118.608 124.353C118.813 125.988 120.031 127.507 121.631 128.671C123.264 129.858 125.445 130.793 127.881 131.206L128.215 129.234ZM143.17 123.886C143.16 124.289 142.8 124.934 141.709 125.727C140.676 126.477 139.214 127.191 137.558 127.788C134.212 128.993 130.396 129.604 128.215 129.234L127.881 131.206C130.558 131.66 134.759 130.922 138.236 129.67C139.993 129.037 141.645 128.245 142.884 127.345C144.065 126.487 145.135 125.338 145.169 123.935L143.17 123.886ZM140.978 110.732C141.612 112.285 142.193 113.713 142.604 115.673C143.015 117.635 143.262 120.167 143.17 123.885L145.169 123.935C145.264 120.106 145.012 117.414 144.561 115.263C144.11 113.109 143.465 111.532 142.829 109.976L140.978 110.732ZM140.141 108.599C140.418 109.361 140.704 110.061 140.978 110.732L142.829 109.976C142.554 109.301 142.283 108.636 142.021 107.915L140.141 108.599ZM128.942 95.1209C132.068 97.1703 134.244 98.869 135.948 100.87C137.643 102.862 138.914 105.205 140.14 108.597L142.021 107.917C140.742 104.379 139.369 101.803 137.471 99.5739C135.582 97.3548 133.217 95.5322 130.039 93.4485L128.942 95.1209ZM124.599 93.3783C126.473 93.9887 127.97 94.4848 128.943 95.1215L130.038 93.4479C128.791 92.6321 126.993 92.0548 125.219 91.4767L124.599 93.3783ZM117.232 90.1725C119.526 91.7329 122.291 92.6263 124.599 93.3783L125.219 91.4767C122.859 90.7079 120.376 89.8918 118.356 88.5187L117.232 90.1725ZM112.657 85.6807C113.906 87.1619 115.371 88.9092 117.232 90.173L118.356 88.5182C116.76 87.435 115.465 85.909 114.186 84.3915L112.657 85.6807ZM109.123 82.3662C109.632 82.5767 110.167 82.976 110.77 83.5667C111.37 84.1562 111.978 84.875 112.657 85.6807L114.186 84.3915C113.522 83.6042 112.852 82.8076 112.17 82.139C111.49 81.4718 110.739 80.8705 109.887 80.518L109.123 82.3662ZM105.524 82.0077C106.252 81.8559 107.322 81.6196 109.122 82.3659L109.888 80.5184C107.561 79.5537 106.032 79.8588 105.116 80.0498L105.524 82.0077ZM102.933 79.3228C102.963 79.844 103.008 80.2837 103.086 80.6387C103.159 80.9742 103.291 81.3789 103.602 81.6896C103.962 82.0507 104.397 82.1278 104.729 82.1228C105.012 82.1185 105.317 82.0507 105.524 82.0077L105.116 80.0498C104.991 80.0758 104.901 80.0944 104.823 80.1076C104.745 80.1207 104.709 80.1229 104.698 80.123C104.689 80.1232 104.732 80.121 104.801 80.1437C104.879 80.1694 104.956 80.2155 105.016 80.2758C105.115 80.3742 105.087 80.4273 105.039 80.2106C104.996 80.0136 104.958 79.7008 104.93 79.2079L102.933 79.3228ZM102.142 73.7342C102.488 75.4486 102.794 76.9722 102.933 79.3245L104.93 79.2062C104.782 76.7077 104.452 75.0709 104.103 73.3392L102.142 73.7342ZM101.51 70.2256C101.712 71.5987 101.935 72.7036 102.142 73.7342L104.103 73.3392C103.895 72.3088 103.682 71.2505 103.489 69.9356L101.51 70.2256ZM101.826 62.2455C101.526 64.9987 101.188 68.0328 101.511 70.2261L103.489 69.935C103.213 68.0545 103.503 65.3204 103.815 62.4622L101.826 62.2455ZM101.949 54.7201C102.185 55.306 102.273 56.3051 102.223 57.6922C102.175 59.0433 102.005 60.6067 101.826 62.2455L103.815 62.4622C103.991 60.8435 104.171 59.2023 104.222 57.7638C104.272 56.3613 104.211 54.9857 103.805 53.974L101.949 54.7201ZM99.2467 50.4621C100.227 51.666 101.201 52.8675 101.949 54.7213L103.804 53.9728C102.933 51.8149 101.785 50.4116 100.797 49.1989L99.2467 50.4621ZM96.7293 46.3545C97.3069 48.0947 98.305 49.3061 99.2467 50.4621L100.797 49.1989C99.8359 48.0188 99.074 47.0698 98.6275 45.7244L96.7293 46.3545ZM96.4912 39.8956C96.2824 41.826 96.0103 44.1921 96.7295 46.355L98.6273 45.7239C98.0699 44.0474 98.2607 42.1344 98.4796 40.1107L96.4912 39.8956ZM96.1132 35.1371C96.4475 35.5354 96.63 36.1062 96.6731 36.9424C96.7167 37.7876 96.6138 38.7626 96.4912 39.8956L98.4796 40.1107C98.5975 39.0209 98.7239 37.8758 98.6705 36.8394C98.6166 35.794 98.3757 34.7217 97.6451 33.8513L96.1132 35.1371ZM60.8993 28.4157C69.9093 28.0583 77.0835 27.7774 82.8712 28.5915C88.6114 29.3989 92.8658 31.2688 96.1132 35.1372L97.645 33.8512C93.9817 29.4875 89.2032 27.4624 83.1498 26.611C77.1439 25.7662 69.7637 26.0625 60.82 26.4172L60.8993 28.4157ZM57.344 28.5544C58.5582 28.5085 59.7434 28.4615 60.8993 28.4157L60.82 26.4172C59.6638 26.4631 58.4805 26.51 57.2684 26.5558L57.344 28.5544ZM28.8232 44.878C30.6418 40.1443 35.0877 36.1555 40.5151 33.284C45.9263 30.4211 52.1641 28.7504 57.344 28.5544L57.2684 26.5558C51.7656 26.764 45.2358 28.5238 39.5798 31.5162C33.9401 34.5 29.0191 38.7912 26.9562 44.1607L28.8232 44.878ZM25.8855 49.1219C26.9185 47.9121 28.0849 46.5571 28.8049 44.9224L26.9745 44.1163C26.3932 45.4362 25.4327 46.5722 24.3645 47.8232L25.8855 49.1219ZM23.1426 56.473C22.3221 53.3651 23.8716 51.4805 25.8855 49.1219L24.3645 47.8232C22.415 50.1064 20.0929 52.7561 21.2089 56.9835L23.1426 56.473ZM23.9723 54.3693C23.2416 55.0389 22.6593 55.5508 21.9019 55.7664L22.4496 57.69C23.731 57.3252 24.6431 56.4674 25.3236 55.8438L23.9723 54.3693ZM29.7246 53.5268C28.4548 52.7174 27.3225 52.5031 26.2571 52.8333C25.2968 53.1308 24.5458 53.8437 23.9723 54.3693L25.3236 55.8438C25.9815 55.2408 26.3984 54.8833 26.8491 54.7437C27.1946 54.6366 27.7162 54.6184 28.6496 55.2133L29.7246 53.5268ZM30.6628 60.5493C31.0397 59.4835 31.488 58.2454 31.5188 57.0629C31.5526 55.7713 31.094 54.5449 29.785 53.5685L28.5892 55.1716C29.3377 55.7299 29.5376 56.3175 29.5195 57.0107C29.4986 57.813 29.1846 58.7305 28.7772 59.8825L30.6628 60.5493Z" fill="#B4B4B4"/>
<path d="M11.6558 251.782C11.1793 253.709 12.3316 255.649 11.8269 257.7C10.5879 262.731 11.5821 267.755 11.9287 272.786C12.3619 271.667 12.4399 270.551 12.4789 269.431C12.7301 262.331 12.6955 255.195 14.5322 248.272L14.099 247.5C12.4594 248.398 12.0522 250.173 11.6558 251.782Z" fill="#EAEAEA" stroke="#B4B4B4" stroke-width="2" stroke-miterlimit="10"/>
<path d="M814.068 442.782C766.945 440.626 725.479 442.901 725.479 442.901C725.026 425.292 725.366 404.206 725.366 404.206L743.221 386.716C743.221 386.716 727.926 372.64 707.284 354.969C696.807 346 684.383 348.539 675.076 341.311C663.813 332.572 641.226 311.394 627.725 301.417C616.618 293.206 606.52 281.778 602.751 277.936C595.674 269.789 582.631 258.251 571.898 252.908C559.903 246.924 550.541 247.587 550.541 247.587L550.388 259.895C550.388 259.895 536.092 259.95 528.608 259.851C526.161 259.821 527.824 265.686 528.327 281.895C529.823 293.006 518.363 279.929 518.796 293.879C518.931 298.324 520.488 301.307 512.34 301.307C507.819 301.307 531.171 344.56 544.546 351.024C558.393 357.715 558.642 368.323 546.694 369.593C542.854 370.002 554.943 381.214 551.551 382.222C543.894 384.518 537.933 377.295 539.913 385.276C543.757 400.778 558.391 418.456 573.063 437.308C578.034 443.698 588.355 455.119 585.117 469.976C584.429 473.131 584.989 491.238 584.966 494.334C584.924 499.831 584.966 504.239 588.345 504.324C598.139 504.554 593.194 509.835 591.747 512.784C590.547 515.229 576.165 511.812 574.042 516.687C575.383 517.006 577.58 520.763 581.424 522.359C583.562 523.245 587.595 520.432 588.96 523.238C590.004 525.383 586.902 527.273 587.227 530.106C588.13 538.012 580.629 539.52 581.199 541.766C583.532 551.011 599.008 548.972 600.11 548.884C612.013 547.846 620.941 541.975 630.434 555.872C633.575 560.464 639.532 572.135 643.68 568.204C645.051 566.611 651.715 560.781 653.713 561.743C667.956 568.126 665.259 560.824 677.671 557.19C687.134 554.205 682.414 555.137 689.764 550.122C694.576 546.818 703.36 547.97 701.404 543.054C695.3 527.718 710.828 531.038 710.332 527.599C709.37 520.96 698.48 519.617 702.194 517.296C708.792 514.311 725.474 518.494 733.385 509.509C736.439 506.04 743.301 508.242 754.612 505.128C760.601 503.477 768.242 509.261 768.413 505.511C768.318 498.836 768.305 495.052 772.041 494.653C775.548 494.279 782.763 497.229 784.247 493.335C814.259 470.226 798.086 480.853 814.068 442.782Z" fill="#EAEAEA" stroke="#B4B4B4" stroke-width="2" stroke-miterlimit="10"/>
<g filter="url(#filter0_b_89_4414)">
<path d="M522.512 248.907C539.355 247.38 550.415 247.403 550.415 247.403L550.27 259.72C550.27 259.72 535.977 259.775 528.495 259.676C526.048 259.646 527.711 265.509 528.214 281.715C529.71 292.824 518.252 279.75 518.685 293.696C518.819 298.141 520.376 301.123 512.23 301.123C507.71 301.123 531.057 344.367 544.429 350.83C558.274 357.52 558.523 368.126 546.578 369.395C542.738 369.804 554.824 381.014 551.433 382.022C543.777 384.317 537.818 377.095 539.797 385.075C543.641 400.573 558.272 418.248 572.941 437.096C577.911 443.485 588.23 454.904 584.993 469.757C584.304 472.912 584.865 491.016 584.841 494.11C584.8 499.606 584.841 504.014 588.219 504.099C598.012 504.329 593.068 509.609 591.621 512.556C590.422 515.001 576.042 511.585 573.92 516.459C575.26 516.778 577.456 520.534 581.3 522.13C583.438 523.016 587.47 520.203 588.834 523.009C589.878 525.153 586.777 527.042 587.102 529.875C588.005 537.779 580.505 539.288 581.075 541.533L579.583 540.576C576.834 538.24 574.241 535.705 571.824 532.988H566.477C566.477 532.988 558.642 534.345 563.229 521.17C563.229 521.17 565.563 509.354 560.593 508.633C555.623 507.912 554.114 506.567 554.415 506.399C554.716 506.232 558.256 501.209 560.065 498.254C561.873 495.299 562.627 486.117 559.086 480.607C555.545 475.097 558.785 457.131 558.785 457.131L504.174 457.769L480.673 426.947L473.895 426.148C473.895 426.148 467.342 421.038 464.932 420.718C462.521 420.399 450.855 419.52 450.855 419.52C450.855 419.52 441.366 408.98 439.181 405.945C436.996 402.91 436.169 394.446 436.169 394.446C436.169 394.446 428.282 388.374 423.461 387.178C418.64 385.982 402.271 377.12 402.271 377.12C402.271 377.12 396.669 386.248 385.022 376.161C381.46 373.075 379.654 380.192 377.189 380.472C371.949 381.074 365.97 377.993 363.406 377.279C359.724 376.25 359.263 378.397 358.208 375.362C357.574 373.526 357.293 371.575 357.379 369.623C357.379 369.623 343.303 365.63 340.507 363.794C337.711 361.957 330.639 358.284 327.024 357.565C323.41 356.847 310.451 355.809 310.451 355.809C310.451 355.809 302.166 352.694 301.037 351.975C299.909 351.257 298.476 347.531 300.059 344.17C301.642 340.809 296.442 334.016 294.484 332.019C293.226 330.761 291.834 329.661 290.337 328.74L285.37 327.345C280.807 324.962 275.729 323.171 270.86 321.674C269.046 321.116 271.807 316.417 270.085 315.935C259.156 312.817 241.086 320.726 250.35 309.906C254.194 305.416 257.698 292.381 262.694 285.429C274.34 263.703 281.372 258.533 289.666 234.806C291.399 230.024 300.106 236.838 300.061 229.657C299.979 216.193 298.584 208.378 297.178 197.616L297.651 195.244C301.332 194.326 301.72 196.245 304.431 199.395C307.22 204.475 316.309 193.219 319.702 195.722C322.879 199.624 331.057 196.004 334.485 196.165C341.986 196.518 343.363 197.216 352.21 196.433C359.438 195.795 371.169 194.466 377.51 194.2C379.925 194.096 382.452 191.642 385.704 191.723C392.851 191.899 401.73 195.033 408.302 196.675C413.107 197.875 417.831 197.042 421.259 199.388C426.517 202.995 421.352 206.289 428.405 207.375C454.927 211.45 487.815 210.01 487.815 210.01C487.815 210.01 488.146 229.813 488.071 236.12C487.98 243.856 504.852 232.717 506.82 238.356C507.511 240.378 509.869 249.134 509.869 249.134L522.512 248.907Z" fill="#0080C7" fill-opacity="0.5"/>
<path d="M522.512 248.907C539.355 247.38 550.415 247.403 550.415 247.403L550.27 259.72C550.27 259.72 535.977 259.775 528.495 259.676C526.048 259.646 527.711 265.509 528.214 281.715C529.71 292.824 518.252 279.75 518.685 293.696C518.819 298.141 520.376 301.123 512.23 301.123C507.71 301.123 531.057 344.367 544.429 350.83C558.274 357.52 558.523 368.126 546.578 369.395C542.738 369.804 554.824 381.014 551.433 382.022C543.777 384.317 537.818 377.095 539.797 385.075C543.641 400.573 558.272 418.248 572.941 437.096C577.911 443.485 588.23 454.904 584.993 469.757C584.304 472.912 584.865 491.016 584.841 494.11C584.8 499.606 584.841 504.014 588.219 504.099C598.012 504.329 593.068 509.609 591.621 512.556C590.422 515.001 576.042 511.585 573.92 516.459C575.26 516.778 577.456 520.534 581.3 522.13C583.438 523.016 587.47 520.203 588.834 523.009C589.878 525.153 586.777 527.042 587.102 529.875C588.005 537.779 580.505 539.288 581.075 541.533L579.583 540.576C576.834 538.24 574.241 535.705 571.824 532.988H566.477C566.477 532.988 558.642 534.345 563.229 521.17C563.229 521.17 565.563 509.354 560.593 508.633C555.623 507.912 554.114 506.567 554.415 506.399C554.716 506.232 558.256 501.209 560.065 498.254C561.873 495.299 562.627 486.117 559.086 480.607C555.545 475.097 558.785 457.131 558.785 457.131L504.174 457.769L480.673 426.947L473.895 426.148C473.895 426.148 467.342 421.038 464.932 420.718C462.521 420.399 450.855 419.52 450.855 419.52C450.855 419.52 441.366 408.98 439.181 405.945C436.996 402.91 436.169 394.446 436.169 394.446C436.169 394.446 428.282 388.374 423.461 387.178C418.64 385.982 402.271 377.12 402.271 377.12C402.271 377.12 396.669 386.248 385.022 376.161C381.46 373.075 379.654 380.192 377.189 380.472C371.949 381.074 365.97 377.993 363.406 377.279C359.724 376.25 359.263 378.397 358.208 375.362C357.574 373.526 357.293 371.575 357.379 369.623C357.379 369.623 343.303 365.63 340.507 363.794C337.711 361.957 330.639 358.284 327.024 357.565C323.41 356.847 310.451 355.809 310.451 355.809C310.451 355.809 302.166 352.694 301.037 351.975C299.909 351.257 298.476 347.531 300.059 344.17C301.642 340.809 296.442 334.016 294.484 332.019C293.226 330.761 291.834 329.661 290.337 328.74L285.37 327.345C280.807 324.962 275.729 323.171 270.86 321.674C269.046 321.116 271.807 316.417 270.085 315.935C259.156 312.817 241.086 320.726 250.35 309.906C254.194 305.416 257.698 292.381 262.694 285.429C274.34 263.703 281.372 258.533 289.666 234.806C291.399 230.024 300.106 236.838 300.061 229.657C299.979 216.193 298.584 208.378 297.178 197.616L297.651 195.244C301.332 194.326 301.72 196.245 304.431 199.395C307.22 204.475 316.309 193.219 319.702 195.722C322.879 199.624 331.057 196.004 334.485 196.165C341.986 196.518 343.363 197.216 352.21 196.433C359.438 195.795 371.169 194.466 377.51 194.2C379.925 194.096 382.452 191.642 385.704 191.723C392.851 191.899 401.73 195.033 408.302 196.675C413.107 197.875 417.831 197.042 421.259 199.388C426.517 202.995 421.352 206.289 428.405 207.375C454.927 211.45 487.815 210.01 487.815 210.01C487.815 210.01 488.146 229.813 488.071 236.12C487.98 243.856 504.852 232.717 506.82 238.356C507.511 240.378 509.869 249.134 509.869 249.134L522.512 248.907Z" stroke="#0080C7" stroke-width="2" stroke-miterlimit="10"/>
</g>
<defs>
<filter id="filter0_b_89_4414" x="231.793" y="175.721" width="378.361" height="383.021" filterUnits="userSpaceOnUse" color-interpolation-filters="sRGB">
<feFlood flood-opacity="0" result="BackgroundImageFix"/>
<feGaussianBlur in="BackgroundImageFix" stdDeviation="7.5"/>
<feComposite in2="SourceAlpha" operator="in" result="effect1_backgroundBlur_89_4414"/>
<feBlend mode="normal" in="SourceGraphic" in2="effect1_backgroundBlur_89_4414" result="shape"/>
</filter>
</defs>
</svg>
