<svg width="37" height="23" viewBox="0 0 37 23" fill="none" xmlns="http://www.w3.org/2000/svg">
<path d="M37 0.242188H0V22.4422H37V0.242188Z" fill="#496E2D"/>
<path d="M9.7131 0.242188H3.88086V22.4422H9.7131V0.242188Z" fill="#BF0236"/>
<path fill-rule="evenodd" clip-rule="evenodd" d="M3.88086 6.44463V6.27456L4.13444 5.84371L4.06828 5.75301L4.22264 5.52624L4.17854 5.43554L4.06828 5.60561L4.03521 5.52624L4.36596 4.92532L4.43211 5.00469L4.36596 5.0954L4.47621 5.26547L4.72979 4.83462L4.47621 4.42645L4.36596 4.57384L4.43211 4.66455L4.36596 4.74391L4.03521 4.143L4.06828 4.06363L4.17854 4.2337L4.22264 4.143L4.06828 3.91623L4.13444 3.82553L3.88086 3.39468V3.22461L4.22264 3.82553L4.17854 3.91623L4.32186 4.143L4.22264 4.3244L4.32186 4.49448L4.47621 4.2337L4.80696 4.83462L4.47621 5.43554L4.32186 5.17476L4.22264 5.34483L4.32186 5.52624L4.17854 5.75301L4.22264 5.84371L3.88086 6.44463Z" fill="#E0852A"/>
<path fill-rule="evenodd" clip-rule="evenodd" d="M3.88086 4.32422L3.94701 4.49429V4.74373H4.10136L4.17853 4.83443L4.10136 4.92514H3.94701V5.17458L3.88086 5.34465V4.32422Z" fill="#E0852A"/>
<path fill-rule="evenodd" clip-rule="evenodd" d="M3.88086 10.5153V10.3453L4.13444 9.92574L4.06828 9.83504L4.22264 9.57426L4.17854 9.48356L4.06828 9.65363L4.03521 9.57426L4.36596 8.99602L4.43211 9.08672L4.36596 9.16609L4.47621 9.33616L4.72979 8.90531L4.47621 8.50848L4.36596 8.65587L4.43211 8.74658L4.36596 8.82595L4.03521 8.22503L4.06828 8.13432L4.17854 8.30439L4.22264 8.22503L4.06828 7.96425L4.13444 7.87355L3.88086 7.47671V7.30664L4.22264 7.87355L4.17854 7.96425L4.32186 8.22503L4.22264 8.3951L4.32186 8.56517L4.47621 8.30439L4.80696 8.90531L4.47621 9.48356L4.32186 9.25679L4.22264 9.42687L4.32186 9.57426L4.17854 9.83504L4.22264 9.92574L3.88086 10.5153Z" fill="#E0852A"/>
<path fill-rule="evenodd" clip-rule="evenodd" d="M3.88086 8.39453L3.94701 8.5646V8.82538H4.10136L4.17853 8.90475L4.10136 8.99545H3.94701V9.25623L3.88086 9.4263V8.39453Z" fill="#E0852A"/>
<path fill-rule="evenodd" clip-rule="evenodd" d="M3.88086 14.5962V14.4261L4.13444 13.9953L4.06828 13.9046L4.22264 13.6438L4.17854 13.5644L4.06828 13.7345L4.03521 13.6438L4.36596 13.0656L4.43211 13.1336L4.36596 13.2243L4.47621 13.3944L4.72979 12.9862L4.47621 12.5554L4.36596 12.7254L4.43211 12.8161L4.36596 12.8955L4.03521 12.2946L4.06828 12.2152L4.17854 12.3853L4.22264 12.2946L4.06828 12.0451L4.13444 11.9544L3.88086 11.5236V11.3535L4.22264 11.9544L4.17854 12.0451L4.32186 12.2946L4.22264 12.4646L4.32186 12.6347L4.47621 12.3853L4.80696 12.9862L4.47621 13.5644L4.32186 13.3037L4.22264 13.4737L4.32186 13.6438L4.17854 13.9046L4.22264 13.9953L3.88086 14.5962Z" fill="#E0852A"/>
<path fill-rule="evenodd" clip-rule="evenodd" d="M3.88086 12.4648L3.94701 12.6349V12.8957H4.10136L4.17853 12.9864L4.10136 13.0658H3.94701V13.3039L3.88086 13.4739V12.4648Z" fill="#E0852A"/>
<path fill-rule="evenodd" clip-rule="evenodd" d="M3.88086 18.4052V18.2351L4.13444 17.8156L4.06828 17.7249L4.22264 17.4641L4.17854 17.3734L4.06828 17.5548L4.03521 17.4641L4.36596 16.8632L4.43211 16.9539L4.36596 17.0333L4.47621 17.2033L4.72979 16.7838L4.47621 16.3757L4.36596 16.5457L4.43211 16.6251L4.36596 16.7158L4.03521 16.1149L4.06828 16.0242L4.17854 16.2056L4.22264 16.1149L4.06828 15.8541L4.13444 15.7747L3.88086 15.3439V15.1738L4.22264 15.7747L4.17854 15.8541L4.32186 16.1149L4.22264 16.285L4.32186 16.455L4.47621 16.2056L4.80696 16.7952L4.47621 17.3734L4.32186 17.124L4.22264 17.2941L4.32186 17.4641L4.17854 17.7249L4.22264 17.8156L3.88086 18.4052Z" fill="#E0852A"/>
<path fill-rule="evenodd" clip-rule="evenodd" d="M3.88086 16.2852L3.94701 16.4552V16.716H4.10136L4.17853 16.784L4.10136 16.8634H3.94701V17.1242L3.88086 17.2942V16.2852Z" fill="#E0852A"/>
<path fill-rule="evenodd" clip-rule="evenodd" d="M9.71293 6.44463V6.27456L9.45935 5.84371L9.5255 5.75301L9.38218 5.52624L9.42628 5.43554L9.5255 5.60561L9.5696 5.52624L9.23885 4.92532L9.1727 5.00469L9.23885 5.0954L9.1286 5.26547L8.89708 4.83462L9.1286 4.42645L9.23885 4.57384L9.1727 4.66455L9.23885 4.74391L9.5696 4.143L9.5255 4.06363L9.42628 4.2337L9.38218 4.143L9.5255 3.91623L9.45935 3.82553L9.71293 3.39468V3.22461L9.38218 3.82553L9.42628 3.91623L9.27193 4.143L9.38218 4.3244L9.27193 4.49448L9.1286 4.2337L8.79785 4.83462L9.1286 5.43554L9.27193 5.17476L9.38218 5.34483L9.27193 5.52624L9.42628 5.75301L9.38218 5.84371L9.71293 6.44463Z" fill="#E0852A"/>
<path fill-rule="evenodd" clip-rule="evenodd" d="M9.71341 4.32422L9.66931 4.49429V4.74373H9.52598L9.42676 4.83443L9.52598 4.92514H9.66931V5.17458L9.71341 5.34465V4.32422Z" fill="#E0852A"/>
<path fill-rule="evenodd" clip-rule="evenodd" d="M9.71293 10.5153V10.3453L9.45935 9.92574L9.5255 9.83504L9.38218 9.57426L9.42628 9.48356L9.5255 9.65363L9.5696 9.57426L9.23885 8.99602L9.1727 9.08672L9.23885 9.16609L9.1286 9.33616L8.89708 8.90531L9.1286 8.50848L9.23885 8.65587L9.1727 8.74658L9.23885 8.82595L9.5696 8.22503L9.5255 8.13432L9.42628 8.30439L9.38218 8.22503L9.5255 7.96425L9.45935 7.87355L9.71293 7.47671V7.30664L9.38218 7.87355L9.42628 7.96425L9.27193 8.22503L9.38218 8.3951L9.27193 8.56517L9.1286 8.30439L8.79785 8.90531L9.1286 9.48356L9.27193 9.25679L9.38218 9.42687L9.27193 9.57426L9.42628 9.83504L9.38218 9.92574L9.71293 10.5153Z" fill="#E0852A"/>
<path fill-rule="evenodd" clip-rule="evenodd" d="M9.71341 8.39453L9.66931 8.5646V8.82538H9.52598L9.42676 8.90475L9.52598 8.99545H9.66931V9.25623L9.71341 9.4263V8.39453Z" fill="#E0852A"/>
<path fill-rule="evenodd" clip-rule="evenodd" d="M9.71293 14.5962V14.4261L9.45935 13.9953L9.5255 13.9046L9.38218 13.6438L9.42628 13.5644L9.5255 13.7345L9.5696 13.6438L9.23885 13.0656L9.1727 13.1336L9.23885 13.2243L9.1286 13.3944L8.89708 12.9862L9.1286 12.5554L9.23885 12.7254L9.1727 12.8161L9.23885 12.8955L9.5696 12.2946L9.5255 12.2152L9.42628 12.3853L9.38218 12.2946L9.5255 12.0451L9.45935 11.9544L9.71293 11.5236V11.3535L9.38218 11.9544L9.42628 12.0451L9.27193 12.2946L9.38218 12.4646L9.27193 12.6347L9.1286 12.3853L8.79785 12.9862L9.1286 13.5644L9.27193 13.3037L9.38218 13.4737L9.27193 13.6438L9.42628 13.9046L9.38218 13.9953L9.71293 14.5962Z" fill="#E0852A"/>
<path fill-rule="evenodd" clip-rule="evenodd" d="M9.71341 12.4648L9.66931 12.6349V12.8957H9.52598L9.42676 12.9864L9.52598 13.0658H9.66931V13.3039L9.71341 13.4739V12.4648Z" fill="#E0852A"/>
<path fill-rule="evenodd" clip-rule="evenodd" d="M9.71293 18.4052V18.2351L9.45935 17.8156L9.5255 17.7249L9.38218 17.4641L9.42628 17.3734L9.5255 17.5548L9.5696 17.4641L9.23885 16.8632L9.1727 16.9539L9.23885 17.0333L9.1286 17.2033L8.89708 16.7838L9.1286 16.3757L9.23885 16.5457L9.1727 16.6251L9.23885 16.7158L9.5696 16.1149L9.5255 16.0242L9.42628 16.2056L9.38218 16.1149L9.5255 15.8541L9.45935 15.7747L9.71293 15.3439V15.1738L9.38218 15.7747L9.42628 15.8541L9.27193 16.1149L9.38218 16.285L9.27193 16.455L9.1286 16.2056L8.79785 16.7952L9.1286 17.3734L9.27193 17.124L9.38218 17.2941L9.27193 17.4641L9.42628 17.7249L9.38218 17.8156L9.71293 18.4052Z" fill="#E0852A"/>
<path fill-rule="evenodd" clip-rule="evenodd" d="M9.71341 16.2852L9.66931 16.4552V16.716H9.52598L9.42676 16.784L9.52598 16.8634H9.66931V17.1242L9.71341 17.2942V16.2852Z" fill="#E0852A"/>
<path fill-rule="evenodd" clip-rule="evenodd" d="M3.88086 1.87487V1.7048L4.13444 1.27395L4.06828 1.19459L4.22264 0.922474L4.17854 0.843107L4.06828 1.01318L4.03521 0.922474L4.36596 0.332892L4.43211 0.412259L4.36596 0.502964L4.47621 0.673035L4.72979 0.242188H4.80696L4.47621 0.843107L4.32186 0.582331L4.22264 0.76374L4.32186 0.922474L4.17854 1.19459L4.22264 1.27395L3.88086 1.87487Z" fill="#E0852A"/>
<path fill-rule="evenodd" clip-rule="evenodd" d="M3.88086 0.242188H4.17853L4.10136 0.332892H3.94701V0.582331L3.88086 0.76374V0.242188Z" fill="#E0852A"/>
<path fill-rule="evenodd" clip-rule="evenodd" d="M9.71293 1.87487V1.7048L9.45935 1.27395L9.5255 1.19459L9.38218 0.922474L9.42628 0.843107L9.5255 1.01318L9.5696 0.922474L9.23885 0.332892L9.1727 0.412259L9.23885 0.502964L9.1286 0.673035L8.89708 0.242188H8.79785L9.1286 0.843107L9.27193 0.582331L9.38218 0.76374L9.27193 0.922474L9.42628 1.19459L9.38218 1.27395L9.71293 1.87487Z" fill="#E0852A"/>
<path fill-rule="evenodd" clip-rule="evenodd" d="M9.71341 0.242188H9.42676L9.52598 0.332892H9.66931V0.582331L9.71341 0.76374V0.242188Z" fill="#E0852A"/>
<path fill-rule="evenodd" clip-rule="evenodd" d="M6.30566 22.2491C6.48937 21.9966 6.76296 21.8295 7.06639 21.7842C7.58457 21.7049 7.66174 22.0223 7.98147 22.0223C8.24966 21.9869 8.51038 21.9065 8.75322 21.7842C8.51286 22.0059 8.21324 22.1481 7.89327 22.1924C7.54047 22.1924 7.40817 21.977 7.04434 22.0223C6.79152 22.0561 6.54354 22.1208 6.30566 22.2151V22.2491Z" fill="#E0852A"/>
<path fill-rule="evenodd" clip-rule="evenodd" d="M7.33147 22.2491C7.24774 22.1268 7.14131 22.0228 7.01832 21.943C6.89533 21.8632 6.7582 21.8093 6.61485 21.7842C6.08565 21.7049 5.98642 22.0223 5.68874 22.0223C5.41975 21.9909 5.15839 21.9103 4.91699 21.7842C5.14778 22.0073 5.44089 22.15 5.75489 22.1924C6.12975 22.1924 6.26205 21.977 6.6369 22.0223C6.87917 22.0551 7.11632 22.1199 7.3425 22.2151L7.33147 22.2491Z" fill="#E0852A"/>
<path fill-rule="evenodd" clip-rule="evenodd" d="M5.62239 21.7164C5.51214 21.6257 5.51214 21.2402 5.51214 21.1949C5.51214 21.1495 5.85391 21.5577 5.83186 21.9092C5.66649 21.9659 5.11523 21.9092 5.11523 21.7731C5.11523 21.6371 5.46804 21.6711 5.62239 21.7731V21.7164Z" fill="#E0852A"/>
<path fill-rule="evenodd" clip-rule="evenodd" d="M5.29182 21.3892C5.29182 21.2871 5.20362 20.879 5.29182 20.8563C5.38002 20.8336 5.55642 21.2871 5.47925 21.6273C5.31387 21.6273 4.78467 21.4119 4.82877 21.3098C4.87287 21.2078 5.18157 21.3098 5.31387 21.3892H5.29182Z" fill="#E0852A"/>
<path fill-rule="evenodd" clip-rule="evenodd" d="M5.01613 21.0031C5.01613 20.9238 5.01613 20.5156 5.01613 20.4929C5.01613 20.4703 5.24766 20.9691 5.11536 21.2639C4.94998 21.2639 4.45385 20.9691 4.48693 20.8784C4.52 20.7877 4.83973 20.8784 4.97203 21.0031H5.01613Z" fill="#E0852A"/>
<path fill-rule="evenodd" clip-rule="evenodd" d="M4.80695 20.6508C4.80695 20.5488 4.80695 20.1406 4.90618 20.1406C5.0054 20.1406 5.08258 20.6508 4.90618 20.9343C4.7408 20.9343 4.2998 20.5261 4.3439 20.4468C4.388 20.3674 4.6967 20.5488 4.80695 20.6508Z" fill="#E0852A"/>
<path fill-rule="evenodd" clip-rule="evenodd" d="M4.66333 20.2082C4.66333 20.1062 4.7405 19.7207 4.8287 19.7207C4.87647 19.8507 4.89339 19.9905 4.87805 20.1285C4.86271 20.2666 4.81555 20.3988 4.7405 20.5144C4.55308 20.4463 4.17823 19.9815 4.22233 19.9135C4.26643 19.8454 4.55308 20.0835 4.66333 20.2082Z" fill="#E0852A"/>
<path fill-rule="evenodd" clip-rule="evenodd" d="M4.69681 19.745C4.69681 20.1418 4.59758 20.1418 4.45426 19.847C4.41016 19.745 4.41016 19.2461 4.41016 19.2461C4.41016 19.2461 4.67476 19.5749 4.67476 19.745H4.69681Z" fill="#E0852A"/>
<path fill-rule="evenodd" clip-rule="evenodd" d="M8.0258 21.7848C8.0258 21.6941 8.16912 21.3086 8.10297 21.2632C8.03682 21.2179 7.77222 21.6261 7.79427 21.9662C7.95965 22.0342 8.49987 21.9662 8.49987 21.8415C8.49987 21.7168 8.14707 21.7394 8.0258 21.7848Z" fill="#E0852A"/>
<path fill-rule="evenodd" clip-rule="evenodd" d="M8.33458 21.4341C8.33458 21.3207 8.41176 20.9239 8.33458 20.9012C8.25741 20.8786 8.05896 21.3207 8.14716 21.6722C8.31253 21.6722 8.83071 21.4568 8.81968 21.3548C8.80866 21.2527 8.45586 21.3548 8.31253 21.4341H8.33458Z" fill="#E0852A"/>
<path fill-rule="evenodd" clip-rule="evenodd" d="M8.5995 21.0475C8.5995 20.9682 8.5995 20.5486 8.5995 20.5373C8.5995 20.526 8.36797 21.0022 8.48925 21.3083C8.66565 21.3083 9.16177 21.0022 9.11767 20.9228C9.07357 20.8434 8.76487 20.9228 8.63257 21.0475H8.5995Z" fill="#E0852A"/>
<path fill-rule="evenodd" clip-rule="evenodd" d="M8.81958 20.6505C8.81958 20.5371 8.81958 20.1289 8.70933 20.1289C8.64561 20.253 8.6123 20.3911 8.6123 20.5314C8.6123 20.6717 8.64561 20.8099 8.70933 20.9339C8.87471 20.9339 9.31571 20.5257 9.27161 20.435C9.22751 20.3443 8.94086 20.5371 8.81958 20.6505Z" fill="#E0852A"/>
<path fill-rule="evenodd" clip-rule="evenodd" d="M8.96301 20.2551C8.96301 20.1417 8.87481 19.7676 8.79763 19.7676C8.72046 19.7676 8.68738 20.2778 8.89686 20.5499C9.07326 20.5499 9.43709 20.0284 9.40401 19.9603C9.37094 19.8923 9.07326 20.1304 8.96301 20.2551Z" fill="#E0852A"/>
<path fill-rule="evenodd" clip-rule="evenodd" d="M8.94099 19.7786C8.94099 20.1867 9.0292 20.1867 9.17252 19.8919C9.2497 19.7786 9.2497 19.291 9.17252 19.291C9.09535 19.291 8.91895 19.6198 8.91895 19.7786H8.94099Z" fill="#E0852A"/>
<path fill-rule="evenodd" clip-rule="evenodd" d="M8.81975 15.5156H8.52208V15.7764H8.25747V16.0258H7.1219L6.93447 16.2866L7.04472 16.4227H7.49675L7.607 16.2866H7.1219L7.23215 16.1619H7.8716L7.607 16.5474H6.93447L6.74705 16.4227L6.55962 16.5474H5.92017L5.64454 16.1619H6.29502L6.37219 16.2866H5.92017L6.01939 16.4227H6.47142L6.55962 16.2866L6.37219 16.0258H5.34687V15.7764H5.07124V15.5156H4.80664V14.3365H5.07124V14.0757H5.34687V13.8262H6.37219L6.55962 13.5655L6.47142 13.4294H6.01939L5.92017 13.5655H6.37219L6.29502 13.6902H5.64454L5.92017 13.3047H6.55962L6.74705 13.4294L6.93447 13.3047H7.607L7.8716 13.6902H7.23215L7.1219 13.5655H7.607L7.49675 13.4294H7.04472L6.93447 13.5655L7.1219 13.8262H8.25747V14.0757H8.52208V14.3365H8.81975V15.5156Z" fill="#C03F2A"/>
<path fill-rule="evenodd" clip-rule="evenodd" d="M4.88379 14.4828V15.3899H5.15941V15.6507H5.45709V15.9001H6.37217L6.74702 16.2856L7.12187 15.9001H8.1472V15.6507H8.44487V15.3899H8.70947V14.4602H8.44487V14.2107L8.1472 14.2334V13.9499H7.12187L6.74702 13.5645L6.37217 13.9499H5.45709V14.2334H5.15941V14.4828H4.88379Z" fill="#496E2D"/>
<path d="M4.95038 15.3911H4.8291V14.4841H4.95038V15.3911ZM4.88423 15.4478V15.3911V15.4478ZM4.88423 15.3231H5.15985V15.4478H4.88423V15.3231ZM5.15985 15.3231H5.226V15.3911H5.15985V15.3231ZM5.226 15.6519H5.0937V15.3911H5.226V15.6519ZM5.15985 15.7086H5.0937V15.6519H5.15985V15.7086ZM5.15985 15.5839H5.51265V15.7086H5.15985V15.5839ZM5.45753 15.5839H5.51265V15.6519L5.45753 15.5839ZM5.45753 15.9013H5.39138V15.6519H5.51265L5.45753 15.9013ZM5.45753 15.9694H5.39138V15.9013H5.51265L5.45753 15.9694ZM5.45753 15.8333H6.37261V15.9694H5.51265L5.45753 15.8333ZM6.37261 15.8333H6.43876L6.37261 15.9013V15.8333ZM6.43876 15.8333L6.79156 16.2188L6.70336 16.3322L6.32851 15.9467L6.43876 15.8333ZM6.70336 16.2188L7.07821 15.8333L7.16641 15.9467L6.79156 16.3322L6.70336 16.2188ZM7.07821 15.8333V15.9013V15.8333ZM7.07821 15.8333H8.10354V15.9694H7.12231L7.07821 15.8333ZM8.18071 15.9694H8.14764V15.9013H8.21379L8.18071 15.9694ZM8.04841 15.6519H8.18071V15.9013H8.08149L8.04841 15.6519ZM8.04841 15.5839H8.11456V15.6519H8.08149L8.04841 15.5839ZM8.11456 15.5839H8.41224V15.7086H8.14764L8.11456 15.5839ZM8.46736 15.7086V15.6519V15.7086ZM8.34609 15.3911H8.46736V15.6519H8.37916L8.34609 15.3911ZM8.34609 15.3231H8.41224V15.3911H8.37916L8.34609 15.3231ZM8.41224 15.3231H8.70991V15.4478H8.44531L8.41224 15.3231ZM8.74299 15.4478H8.70991V15.3911H8.82016L8.74299 15.4478ZM8.62171 14.4614H8.82016V15.3911H8.65479L8.62171 14.4614ZM8.67684 14.3934H8.82016V14.4614H8.70991L8.67684 14.3934ZM8.67684 14.5294H8.44531V14.3934H8.70991L8.67684 14.5294ZM8.41224 14.5294H8.37916V14.4614H8.44531L8.41224 14.5294ZM8.34609 14.212H8.46736V14.4614H8.37916L8.34609 14.212ZM8.41224 14.1439V14.212V14.1439ZM8.41224 14.28H8.14764V14.1553H8.44531L8.41224 14.28ZM8.11456 14.28H8.08149V14.2233H8.14764L8.11456 14.28ZM8.04841 13.9399H8.18071V14.2233H8.08149L8.04841 13.9399ZM8.14764 13.8491H8.21379V13.9172H8.14764V13.8491ZM8.14764 13.9852H7.12231V13.8491H8.14764V13.9852ZM7.12231 13.9852V13.9172V13.9852ZM7.12231 13.9852L6.74746 13.5884L6.83566 13.4863L7.21051 13.8718L7.12231 13.9852ZM6.83566 13.5884L6.48286 13.9852L6.37261 13.8718L6.74746 13.4863L6.83566 13.5884ZM6.48286 13.9852H6.37261V13.9172L6.48286 13.9852ZM6.41671 13.9852H5.51265V13.8491H6.42773L6.41671 13.9852ZM5.39138 13.8491H5.51265V13.9172H5.39138V13.8491ZM5.51265 14.2006H5.39138V13.9172H5.51265V14.2006ZM5.51265 14.2573V14.2006V14.2573ZM5.51265 14.2573H5.15985V14.1326H5.51265V14.2573ZM5.14883 14.1326H5.21498V14.2006H5.0937L5.14883 14.1326ZM5.28113 14.4501H5.0937V14.2006H5.226L5.28113 14.4501ZM5.28113 14.5181H5.15985V14.4501H5.226L5.28113 14.5181ZM5.21498 14.5181H4.88423V14.3934H5.15985L5.21498 14.5181ZM4.88423 14.3934V14.4501V14.3934Z" fill="#E0852A"/>
<path fill-rule="evenodd" clip-rule="evenodd" d="M6.20681 14.0742L5.64453 14.7205V14.0742H6.20681Z" fill="#C03F2A"/>
<path fill-rule="evenodd" clip-rule="evenodd" d="M7.30957 14.0742L7.87185 14.7205V14.0742H7.30957Z" fill="#C03F2A"/>
<path fill-rule="evenodd" clip-rule="evenodd" d="M6.20681 15.7752L5.64453 15.1289V15.7752H6.20681Z" fill="#C03F2A"/>
<path fill-rule="evenodd" clip-rule="evenodd" d="M7.30957 15.7752L7.87185 15.1289V15.7752H7.30957Z" fill="#C03F2A"/>
<path fill-rule="evenodd" clip-rule="evenodd" d="M7.497 14.4609L7.30957 14.7217H7.68442L7.497 14.4609Z" fill="#C03F2A"/>
<path fill-rule="evenodd" clip-rule="evenodd" d="M6.01946 14.4609L5.83203 14.7217H6.20688L6.01946 14.4609Z" fill="#C03F2A"/>
<path fill-rule="evenodd" clip-rule="evenodd" d="M6.01946 15.3897L5.83203 15.1289H6.20688L6.01946 15.3897Z" fill="#C03F2A"/>
<path fill-rule="evenodd" clip-rule="evenodd" d="M7.497 15.3897L7.30957 15.1289H7.68442L7.497 15.3897Z" fill="#C03F2A"/>
<path fill-rule="evenodd" clip-rule="evenodd" d="M6.747 16.0248L6.55957 15.7754H6.93442L6.747 16.0248Z" fill="#E0852A"/>
<path fill-rule="evenodd" clip-rule="evenodd" d="M6.747 14.7217L6.55957 14.4609H6.93442L6.747 14.7217Z" fill="#E0852A"/>
<path fill-rule="evenodd" clip-rule="evenodd" d="M6.747 13.8262L6.55957 14.0756H6.93442L6.747 13.8262Z" fill="#E0852A"/>
<path fill-rule="evenodd" clip-rule="evenodd" d="M6.747 15.1289L6.55957 15.3897H6.93442L6.747 15.1289Z" fill="#E0852A"/>
<path d="M7.68442 14.7207H7.30957V14.8568H7.68442V14.7207Z" fill="#E0852A"/>
<path d="M6.10735 14.8574H5.91992V15.0048H6.10735V14.8574Z" fill="#CF3B1D"/>
<path d="M7.59563 14.8574H7.4082V15.0048H7.59563V14.8574Z" fill="#CF3B1D"/>
<path d="M6.93442 14.0742H6.55957V14.1989H6.93442V14.0742Z" fill="#AD3B2B"/>
<path d="M6.93442 14.3359H6.55957V14.4607H6.93442V14.3359Z" fill="#AD3B2B"/>
<path d="M7.04498 14.2109H6.47168V14.347H7.04498V14.2109Z" fill="#AD3B2B"/>
<path d="M6.93442 15.3906H6.55957V15.5267H6.93442V15.3906Z" fill="#AD3B2B"/>
<path d="M6.93442 15.6504H6.55957V15.7751H6.93442V15.6504Z" fill="#AD3B2B"/>
<path d="M7.04498 15.5156H6.47168V15.6403H7.04498V15.5156Z" fill="#AD3B2B"/>
<path d="M7.68442 15.0059H7.30957V15.1419H7.68442V15.0059Z" fill="#E0852A"/>
<path d="M6.20688 14.7207H5.83203V14.8568H6.20688V14.7207Z" fill="#E0852A"/>
<path d="M6.20688 15.0059H5.83203V15.1419H6.20688V15.0059Z" fill="#E0852A"/>
<path d="M5.90911 14.8574H5.72168V15.0048H5.90911V14.8574Z" fill="#E0852A"/>
<path d="M6.2841 14.8574H6.09668V15.0048H6.2841V14.8574Z" fill="#E0852A"/>
<path d="M7.41985 14.8574H7.23242V15.0048H7.41985V14.8574Z" fill="#E0852A"/>
<path d="M7.7728 14.8574H7.60742V15.0048H7.7728V14.8574Z" fill="#E0852A"/>
<path fill-rule="evenodd" clip-rule="evenodd" d="M7.12207 12.1028L7.28745 12.0234L7.43077 12.1028H7.12207Z" fill="white"/>
<path fill-rule="evenodd" clip-rule="evenodd" d="M6.64746 12.1028L6.81284 12.0234L6.95616 12.1028H6.64746Z" fill="white"/>
<path fill-rule="evenodd" clip-rule="evenodd" d="M6.16309 12.1028L6.32846 12.0234L6.47179 12.1028H6.16309Z" fill="white"/>
<path fill-rule="evenodd" clip-rule="evenodd" d="M7.12207 9.85742L7.28745 9.93679L7.43077 9.85742H7.12207Z" fill="white"/>
<path fill-rule="evenodd" clip-rule="evenodd" d="M6.64746 9.85742L6.81284 9.93679L6.95616 9.85742H6.64746Z" fill="white"/>
<path fill-rule="evenodd" clip-rule="evenodd" d="M6.16309 9.85742L6.32846 9.93679L6.47179 9.85742H6.16309Z" fill="white"/>
<path fill-rule="evenodd" clip-rule="evenodd" d="M7.00068 12.0566L6.81325 12.2267L6.62583 12.0566L6.4384 12.2267L6.25098 12.0566V12.1473L6.37225 12.2267L6.3061 12.2947V12.3854H6.37225L6.4384 12.2947L6.49353 12.3854H6.55968V12.2947L6.49353 12.2267L6.62583 12.1473L6.7471 12.2267L6.68095 12.2947V12.3854H6.7471L6.81325 12.2947L6.8794 12.3854H6.93453V12.2947L6.8794 12.2267L7.00068 12.1473L7.12195 12.2267L7.06683 12.2947V12.3854H7.12195L7.16605 12.2947L7.2322 12.3854H7.28733V12.2947L7.2322 12.2267L7.35348 12.1473V12.0566L7.16605 12.2267L7.00068 12.0566Z" fill="#496E2D"/>
<path fill-rule="evenodd" clip-rule="evenodd" d="M7.00068 9.83385L6.81325 9.67512L6.62583 9.83385L6.4384 9.67512L6.25098 9.83385V9.76582L6.37225 9.67512L6.3061 9.61843V9.53906H6.37225L6.4384 9.61843L6.49353 9.53906H6.55968V9.61843L6.49353 9.67512L6.62583 9.76582L6.7471 9.67512L6.68095 9.61843V9.53906H6.7471L6.81325 9.61843L6.8794 9.53906H6.93453V9.61843L6.8794 9.67512L7.00068 9.76582L7.12195 9.67512L7.06683 9.61843V9.53906H7.12195L7.16605 9.61843L7.2322 9.53906H7.28733V9.61843L7.2322 9.67512L7.35348 9.76582V9.83385L7.16605 9.67512L7.00068 9.83385Z" fill="#496E2D"/>
<path fill-rule="evenodd" clip-rule="evenodd" d="M8.40039 11.1166L8.59884 10.9465L8.40039 10.7991L8.59884 10.6291L8.40039 10.459H8.49962L8.59884 10.561L8.70909 10.5157H8.81934V10.561L8.70909 10.6291L8.81934 10.6744V10.7311H8.70909L8.59884 10.6744L8.49962 10.7991L8.59884 10.9012L8.70909 10.8445H8.81934V10.9012L8.70909 10.9465L8.81934 11.0146V11.0712H8.70909L8.59884 11.0146L8.49962 11.1166L8.59884 11.23L8.70909 11.1846H8.81934V11.23L8.70909 11.298L8.81934 11.3547V11.4H8.70909L8.59884 11.3547L8.49962 11.4567H8.40039L8.59884 11.298L8.40039 11.1166Z" fill="#496E2D"/>
<path fill-rule="evenodd" clip-rule="evenodd" d="M5.20354 11.1166L4.99407 10.9465L5.20354 10.7991L4.99407 10.6291L5.20354 10.459H5.09329L4.99407 10.561L4.88382 10.5157H4.80664V10.561L4.88382 10.6291L4.80664 10.6744V10.7311H4.88382L4.99407 10.6744L5.09329 10.7991L4.99407 10.9012L4.88382 10.8445H4.80664V10.9012L4.88382 10.9465L4.80664 11.0146V11.0712H4.88382L4.99407 11.0146L5.09329 11.1166L4.99407 11.23L4.88382 11.1846H4.80664V11.23L4.88382 11.298L4.80664 11.3547V11.4H4.88382L4.99407 11.3547L5.09329 11.4567H5.20354L4.99407 11.298L5.20354 11.1166Z" fill="#496E2D"/>
<path d="M8.56574 11.6836H8.47754V11.763H8.56574V11.6836Z" fill="#496E2D"/>
<path d="M8.48859 11.7617H8.40039V11.8411H8.48859V11.7617Z" fill="#496E2D"/>
<path d="M8.09211 12.1484H8.00391V12.2278H8.09211V12.1484Z" fill="#496E2D"/>
<path d="M8.15823 12.0566H8.08105V12.1473H8.15823V12.0566Z" fill="#496E2D"/>
<path d="M5.51272 12.0566H5.43555V12.1473H5.51272V12.0566Z" fill="#496E2D"/>
<path d="M5.12629 11.6836H5.03809V11.763H5.12629V11.6836Z" fill="#496E2D"/>
<path d="M5.20343 11.7617H5.11523V11.8411H5.20343V11.7617Z" fill="#496E2D"/>
<path d="M5.20343 10.0605H5.11523V10.1513H5.20343V10.0605Z" fill="#496E2D"/>
<path d="M5.12629 10.1523H5.03809V10.2204H5.12629V10.1523Z" fill="#496E2D"/>
<path d="M5.6009 9.67578H5.5127V9.76649H5.6009V9.67578Z" fill="#496E2D"/>
<path d="M5.51272 9.76758H5.43555V9.82427H5.51272V9.76758Z" fill="#496E2D"/>
<path d="M8.09211 9.67578H8.00391V9.76649H8.09211V9.67578Z" fill="#496E2D"/>
<path d="M8.15823 9.76758H8.08105V9.82427H8.15823V9.76758Z" fill="#496E2D"/>
<path d="M8.48859 10.0605H8.40039V10.1513H8.48859V10.0605Z" fill="#496E2D"/>
<path d="M8.56574 10.1523H8.47754V10.2204H8.56574V10.1523Z" fill="#496E2D"/>
<path d="M5.6009 12.1484H5.5127V12.2278H5.6009V12.1484Z" fill="#496E2D"/>
<path fill-rule="evenodd" clip-rule="evenodd" d="M6.61478 10.9453H6.32812V10.7979H6.47145V10.6732H6.61478V10.5371H6.7581V10.6845C6.70998 10.7062 6.66998 10.7433 6.64414 10.7903C6.61829 10.8373 6.60799 10.8917 6.61478 10.9453Z" fill="white"/>
<path fill-rule="evenodd" clip-rule="evenodd" d="M7.02254 10.9453H7.27612V10.7979H7.09972V10.6732H6.95639V10.5371H6.79102V10.6845C6.82288 10.686 6.85415 10.6939 6.88304 10.7078C6.91193 10.7217 6.93787 10.7413 6.95937 10.7655C6.98088 10.7897 6.99753 10.8181 7.00837 10.8489C7.01921 10.8798 7.02402 10.9125 7.02254 10.9453Z" fill="#E0852A"/>
<path fill-rule="evenodd" clip-rule="evenodd" d="M7.02254 10.9453H7.27612V11.0927H7.09972V11.2514H6.95639V11.3762H6.79102V11.2288C6.85726 11.2203 6.91793 11.1863 6.96087 11.1338C7.00381 11.0812 7.02584 11.0139 7.02254 10.9453Z" fill="white"/>
<path fill-rule="evenodd" clip-rule="evenodd" d="M6.61478 10.9453H6.32812V11.0927H6.47145V11.2514H6.61478V11.3762H6.7581V11.2288C6.70703 11.2046 6.66523 11.1636 6.63929 11.1123C6.61334 11.0609 6.60472 11.0022 6.61478 10.9453Z" fill="#E0852A"/>
<path fill-rule="evenodd" clip-rule="evenodd" d="M7.02254 10.9463H6.79102V10.6855C6.85346 10.6936 6.91106 10.7243 6.9535 10.7721C6.99593 10.8199 7.02041 10.8816 7.02254 10.9463Z" fill="#496E2D"/>
<path fill-rule="evenodd" clip-rule="evenodd" d="M7.02254 10.9453H6.79102V11.2288C6.85726 11.2203 6.91793 11.1863 6.96087 11.1338C7.00381 11.0812 7.02584 11.0139 7.02254 10.9453Z" fill="#C03F2A"/>
<path fill-rule="evenodd" clip-rule="evenodd" d="M6.61432 10.9453H6.84585V11.2288C6.8125 11.2259 6.78003 11.2163 6.75031 11.2005C6.72059 11.1847 6.69421 11.163 6.67269 11.1366C6.65117 11.1103 6.63493 11.0798 6.62491 11.047C6.6149 11.0141 6.61129 10.9796 6.61432 10.9453Z" fill="#496E2D"/>
<path fill-rule="evenodd" clip-rule="evenodd" d="M6.61524 10.9463H6.84676V10.6855C6.7834 10.6912 6.72443 10.7212 6.68155 10.7695C6.63866 10.8178 6.615 10.8809 6.61524 10.9463Z" fill="#C03F2A"/>
<path fill-rule="evenodd" clip-rule="evenodd" d="M7.04442 11.91L6.8129 11.7626L6.55932 11.91L6.32779 11.7626L6.07422 11.91V11.842L6.25062 11.7626L6.16242 11.6833V11.6152H6.25062L6.32779 11.6833L6.39394 11.6152H6.47112V11.6833L6.39394 11.7626L6.55932 11.842L6.7247 11.7626L6.64752 11.6833V11.6152H6.7247L6.8129 11.6833L6.87905 11.6152H6.95622V11.6833L6.87905 11.7626L7.04442 11.842L7.2098 11.7626L7.1216 11.6833V11.6152H7.2098L7.28697 11.6833L7.35312 11.6152H7.4303V11.6833L7.35312 11.7626L7.5185 11.842V11.91L7.28697 11.7626L7.04442 11.91Z" fill="#496E2D"/>
<path fill-rule="evenodd" clip-rule="evenodd" d="M7.04442 10.0039L6.8129 10.1513L6.55932 10.0039L6.32779 10.1513L6.07422 10.0039V10.0606L6.25062 10.1513L6.16242 10.2193V10.2987H6.25062L6.32779 10.2193L6.39394 10.2987H6.47112V10.2193L6.39394 10.1513L6.55932 10.0606L6.7247 10.1513L6.64752 10.2193V10.2987H6.7247L6.8129 10.2193L6.87905 10.2987H6.95622V10.2193L6.87905 10.1513L7.04442 10.0606L7.2098 10.1513L7.1216 10.2193V10.2987H7.2098L7.28697 10.2193L7.35312 10.2987H7.4303V10.2193L7.35312 10.1513L7.5185 10.0606V10.0039L7.28697 10.1513L7.04442 10.0039Z" fill="#496E2D"/>
<path fill-rule="evenodd" clip-rule="evenodd" d="M7.9161 11.1389L7.81687 10.9462L7.9161 10.7534L7.81687 10.5607L7.9161 10.3906H7.86097L7.81687 10.5153L7.75072 10.4587H7.68457V10.5153L7.75072 10.5607L7.68457 10.6287V10.6854H7.75072L7.81687 10.6287L7.86097 10.7534L7.81687 10.8782L7.75072 10.8215H7.68457V10.8782L7.75072 10.9462L7.68457 11.0142V11.0709H7.75072L7.81687 11.0142L7.86097 11.1389L7.81687 11.2637L7.75072 11.207H7.68457V11.2637L7.75072 11.3317L7.68457 11.3997V11.4564H7.75072L7.81687 11.3997L7.86097 11.5244H7.9161L7.81687 11.3317L7.9161 11.1389Z" fill="#496E2D"/>
<path fill-rule="evenodd" clip-rule="evenodd" d="M6.0741 10.0607L5.7654 10.4462V11.5801L6.0741 11.8975H7.51838L7.83811 11.5801V10.4462L7.51838 10.1174L6.0741 10.0607ZM5.99693 9.83398L5.20312 10.605V11.3079L5.99693 12.0563H7.60658L8.40038 11.3079V10.605L7.60658 9.83398H5.99693Z" fill="#496E2D"/>
<path fill-rule="evenodd" clip-rule="evenodd" d="M6.41602 11.9102L6.53729 12.0576L6.65857 11.9102H6.41602Z" fill="#E0852A"/>
<path fill-rule="evenodd" clip-rule="evenodd" d="M6.41602 10.0041L6.53729 9.83398L6.65857 10.0041H6.41602Z" fill="#E0852A"/>
<path fill-rule="evenodd" clip-rule="evenodd" d="M6.93457 10.0041L7.06687 9.83398L7.18815 10.0041H6.93457Z" fill="#E0852A"/>
<path fill-rule="evenodd" clip-rule="evenodd" d="M6.93457 11.9102L7.06687 12.0576L7.18815 11.9102H6.93457Z" fill="#E0852A"/>
<path fill-rule="evenodd" clip-rule="evenodd" d="M6.16309 10.0041L6.29539 9.83398L6.41666 10.0041H6.16309Z" fill="#C03F2A"/>
<path fill-rule="evenodd" clip-rule="evenodd" d="M6.65918 10.0041L6.81353 9.83398L6.93481 10.0041H6.65918Z" fill="#C03F2A"/>
<path fill-rule="evenodd" clip-rule="evenodd" d="M7.18848 10.0041L7.30975 9.83398L7.43103 10.0041H7.18848Z" fill="#C03F2A"/>
<path fill-rule="evenodd" clip-rule="evenodd" d="M5.85449 11.6836L6.07499 11.9104H5.85449V11.6836Z" fill="#C03F2A"/>
<path fill-rule="evenodd" clip-rule="evenodd" d="M5.67773 11.1389L5.81003 10.9462L5.67773 10.7534L5.81003 10.5607L5.67773 10.3906H5.74388L5.81003 10.5153L5.85413 10.4587H5.92028V10.5153L5.85413 10.5607L5.92028 10.6287V10.6854H5.85413L5.81003 10.6287L5.74388 10.7534L5.81003 10.8782L5.85413 10.8215H5.92028V10.8782L5.85413 10.9462L5.92028 11.0142V11.0709H5.85413L5.81003 11.0142L5.74388 11.1389L5.81003 11.2637L5.85413 11.207H5.92028V11.2637L5.85413 11.3317L5.92028 11.3997V11.4564H5.85413L5.81003 11.3997L5.74388 11.5244H5.67773L5.81003 11.3317L5.67773 11.1389Z" fill="#496E2D"/>
<path fill-rule="evenodd" clip-rule="evenodd" d="M8.00391 10.7539H8.33466L8.40081 10.8219L8.33466 10.8786H8.00391V10.7539Z" fill="#C03F2A"/>
<path fill-rule="evenodd" clip-rule="evenodd" d="M5.85416 10.2207L5.67776 10.3908V11.5246L5.85416 11.6833H5.60059V10.2207H5.85416Z" fill="#C03F2A"/>
<path fill-rule="evenodd" clip-rule="evenodd" d="M6.16309 11.9102L6.29539 12.0576L6.41666 11.9102H6.16309Z" fill="#C03F2A"/>
<path fill-rule="evenodd" clip-rule="evenodd" d="M6.65918 11.9102L6.81353 12.0576L6.93481 11.9102H6.65918Z" fill="#C03F2A"/>
<path fill-rule="evenodd" clip-rule="evenodd" d="M7.18848 11.9102L7.30975 12.0576L7.43103 11.9102H7.18848Z" fill="#C03F2A"/>
<path fill-rule="evenodd" clip-rule="evenodd" d="M7.77246 10.2207L7.91579 10.3908V11.5246L7.77246 11.6833H8.00399V10.2207H7.77246Z" fill="#C03F2A"/>
<path fill-rule="evenodd" clip-rule="evenodd" d="M7.77213 11.6836L7.51855 11.9104H7.77213V11.6836Z" fill="#C03F2A"/>
<path fill-rule="evenodd" clip-rule="evenodd" d="M7.77213 10.2193L7.51855 10.0039H7.77213V10.2193Z" fill="#C03F2A"/>
<path fill-rule="evenodd" clip-rule="evenodd" d="M5.85449 10.2193L6.07499 10.0039H5.85449V10.2193Z" fill="#C03F2A"/>
<path fill-rule="evenodd" clip-rule="evenodd" d="M6.07464 10.0606L5.76593 10.4461V11.5799L6.07464 11.8974H7.51891L7.83864 11.5799V10.4461L7.51891 10.1173L6.07464 10.0606ZM6.07464 10.0039L5.67773 10.4461V11.5799L6.07464 11.9654H7.51891L7.91581 11.5799V10.4461L7.51891 10.0606L6.07464 10.0039Z" fill="#496E2D"/>
<path fill-rule="evenodd" clip-rule="evenodd" d="M8.00391 10.877H8.33466L8.40081 10.945L8.33466 11.0357H8.00391V10.877Z" fill="#E0852A"/>
<path fill-rule="evenodd" clip-rule="evenodd" d="M8.00391 11.0371H8.33466L8.40081 11.0938L8.33466 11.1618H8.00391V11.0371Z" fill="#C03F2A"/>
<path fill-rule="evenodd" clip-rule="evenodd" d="M8.00391 11.1621H8.33466L8.40081 11.2301L8.33466 11.3095H8.00391V11.1621Z" fill="#E0852A"/>
<path fill-rule="evenodd" clip-rule="evenodd" d="M8.00391 10.6055H8.33466L8.40081 10.6848L8.33466 10.7529H8.00391V10.6055Z" fill="#E0852A"/>
<path fill-rule="evenodd" clip-rule="evenodd" d="M5.60003 10.7539H5.29133L5.20312 10.8219L5.29133 10.8786H5.60003V10.7539Z" fill="#C03F2A"/>
<path fill-rule="evenodd" clip-rule="evenodd" d="M5.60003 10.877H5.29133L5.20312 10.945L5.29133 11.0357H5.60003V10.877Z" fill="#E0852A"/>
<path fill-rule="evenodd" clip-rule="evenodd" d="M5.60003 11.0371H5.29133L5.20312 11.0938L5.29133 11.1618H5.60003V11.0371Z" fill="#C03F2A"/>
<path fill-rule="evenodd" clip-rule="evenodd" d="M5.60003 11.1621H5.29133L5.20312 11.2301L5.29133 11.3095H5.60003V11.1621Z" fill="#E0852A"/>
<path fill-rule="evenodd" clip-rule="evenodd" d="M5.60003 10.6055H5.29133L5.20312 10.6848L5.29133 10.7529H5.60003V10.6055Z" fill="#E0852A"/>
<path fill-rule="evenodd" clip-rule="evenodd" d="M5.11523 10.1531V11.7631H5.51214V12.1486H8.08097V11.7631H8.47787V10.1531H8.08097V9.76758H5.51214V10.1531H5.11523ZM5.20343 10.2211V11.6837H5.60034V12.0579H8.00379V11.6837H8.40069V10.2211H8.00379V9.83561H5.60034V10.2211H5.20343Z" fill="#AB3B2C"/>
<path fill-rule="evenodd" clip-rule="evenodd" d="M8.81975 2.26086L8.56618 1.87537V1.60325L8.33465 1.29712H7.83852L7.4306 1.01367H6.16272L5.76582 1.29712H5.29174L5.03817 1.60325V1.87537L4.80664 2.26086V3.00918L5.03817 3.39467V3.67813L5.29174 3.95024H5.76582L6.16272 4.23369H7.4306L7.83852 3.95024H8.33465L8.56618 3.67813V3.39467L8.81975 3.00918V2.26086Z" fill="#C03F2A"/>
<path fill-rule="evenodd" clip-rule="evenodd" d="M4.87305 2.62305V2.9065L5.1156 3.29199V3.56411L5.34712 3.87024H5.85427L6.25118 4.14235H6.81345V2.62305H4.87305Z" fill="#E0852A"/>
<path fill-rule="evenodd" clip-rule="evenodd" d="M6.11876 3.29297L5.83211 3.53107H5.66674L5.72186 3.61044L5.60059 3.78051L5.66674 3.87121L5.83211 3.78051L5.88724 3.87121L5.92031 3.65579L6.25106 3.39501L6.11876 3.29297Z" fill="#C03F2A"/>
<path fill-rule="evenodd" clip-rule="evenodd" d="M5.81017 3.09961L5.51249 3.36039H5.32507L5.39122 3.42841L5.29199 3.58715L5.32507 3.67785L5.51249 3.58715L5.57864 3.67785L5.60069 3.46243L5.92042 3.20165L5.81017 3.09961Z" fill="#C03F2A"/>
<path fill-rule="evenodd" clip-rule="evenodd" d="M5.64444 2.72656L5.34676 2.976H5.18138L5.24754 3.05537L5.11523 3.20276L5.18138 3.29347L5.34676 3.20276L5.41291 3.29347L5.43496 3.07804L5.76571 2.81727L5.64444 2.72656Z" fill="#C03F2A"/>
<path fill-rule="evenodd" clip-rule="evenodd" d="M8.73183 2.62282V2.33937L8.47826 1.96521V1.68176L8.25776 1.39831H7.77265L7.3537 1.10352H6.81348V2.62282H8.73183Z" fill="#E0852A"/>
<path fill-rule="evenodd" clip-rule="evenodd" d="M6.81318 4.1427H6.6478L6.4714 3.94995H6.2068L6.06348 3.87058L6.14065 3.7572L6.295 3.87058H6.43833L6.58165 3.56445L6.81318 3.67783V3.87058H6.58165L6.81318 4.1427Z" fill="#C03F2A"/>
<path fill-rule="evenodd" clip-rule="evenodd" d="M4.87305 2.62282V2.33937L5.1156 1.96521V1.68176L5.34712 1.39831H5.85427L6.25118 1.10352H6.81345V2.62282H4.87305Z" fill="white"/>
<path fill-rule="evenodd" clip-rule="evenodd" d="M6.81318 1.10352H6.6478L6.4714 1.29626H6.2068L6.06348 1.39831L6.14065 1.48901L6.295 1.39831H6.43833L6.58165 1.68176L6.81318 1.60239V1.39831H6.58165L6.81318 1.10352Z" fill="#C03F2A"/>
<path fill-rule="evenodd" clip-rule="evenodd" d="M6.81348 1.10352H6.9568L7.12218 1.29626H7.3978L7.54113 1.39831L7.47498 1.48901L7.3096 1.39831H7.16628L7.02295 1.68176L6.81348 1.60239V1.39831H7.02295L6.81348 1.10352Z" fill="#C03F2A"/>
<path fill-rule="evenodd" clip-rule="evenodd" d="M8.73183 2.62305V2.9065L8.47826 3.29199V3.56411L8.25776 3.87024H7.77265L7.3537 4.14235H6.81348V2.62305H8.73183Z" fill="white"/>
<path fill-rule="evenodd" clip-rule="evenodd" d="M6.81348 4.1427H6.9568L7.12218 3.94995H7.3978L7.54113 3.87058L7.47498 3.7572L7.3096 3.87058H7.16628L7.02295 3.56445L6.81348 3.67783V3.87058H7.02295L6.81348 4.1427Z" fill="#C03F2A"/>
<path fill-rule="evenodd" clip-rule="evenodd" d="M5.81017 2.14774L5.51249 1.92098H5.32507L5.39122 1.83028L5.29199 1.66021L5.32507 1.60352L5.51249 1.66021L5.57864 1.60352L5.60069 1.8076L5.92042 2.06838L5.81017 2.14774Z" fill="#C03F2A"/>
<path fill-rule="evenodd" clip-rule="evenodd" d="M7.47479 1.96534L7.77247 1.7159H7.93784L7.89374 1.63654L8.00399 1.48914L7.93784 1.39844L7.77247 1.48914L7.70632 1.39844L7.68427 1.61386L7.35352 1.87464L7.47479 1.96534Z" fill="#C03F2A"/>
<path fill-rule="evenodd" clip-rule="evenodd" d="M6.11876 1.96534L5.83211 1.7159H5.66674L5.72186 1.63654L5.60059 1.48914L5.66674 1.39844L5.83211 1.48914L5.88724 1.39844L5.92031 1.61386L6.25106 1.87464L6.11876 1.96534Z" fill="#C03F2A"/>
<path fill-rule="evenodd" clip-rule="evenodd" d="M5.64444 2.5337L5.34676 2.28426H5.18138L5.24754 2.21624L5.11523 2.04616L5.18138 1.9668L5.34676 2.04616L5.41291 1.9668L5.43496 2.17088L5.76571 2.43166L5.64444 2.5337Z" fill="#C03F2A"/>
<path fill-rule="evenodd" clip-rule="evenodd" d="M5.0166 2.62305H5.09378L5.15993 2.72509L5.24813 2.62305H6.81368V3.9496H6.72548L6.81368 4.04031V4.14235L6.58216 3.87024V3.75686H6.64831V3.87024H6.72548V3.75686L6.1191 3.36002H5.62298V2.95185L5.39145 2.72509H5.24813L5.15993 2.81579L5.24813 2.9065H5.15993L5.0166 2.62305Z" fill="white"/>
<path fill-rule="evenodd" clip-rule="evenodd" d="M5.0166 2.62282H5.09378L5.15993 2.53212L5.24813 2.62282H6.81368V1.29626H6.72548L6.81368 1.20556V1.10352L6.58216 1.39831V1.48901H6.64831V1.39831H6.72548V1.48901L6.1191 1.91986H5.62298V2.32803L5.39145 2.53212H5.24813L5.15993 2.43007L5.24813 2.33937H5.15993L5.0166 2.62282Z" fill="#E0852A"/>
<path fill-rule="evenodd" clip-rule="evenodd" d="M5.34668 2.62305H6.81301V3.75686L6.16253 3.29199H5.67743V2.9065L5.34668 2.62305Z" fill="#496E2D"/>
<path fill-rule="evenodd" clip-rule="evenodd" d="M7.79482 2.14774L8.08147 1.92098H8.2689L8.21377 1.83028L8.33505 1.66021L8.2689 1.60352L8.08147 1.66021L8.03737 1.60352L8.0043 1.8076L7.68457 2.06838L7.79482 2.14774Z" fill="#C03F2A"/>
<path fill-rule="evenodd" clip-rule="evenodd" d="M7.96014 2.5337L8.25782 2.28426H8.41217L8.37909 2.21624L8.47832 2.04616L8.41217 1.9668L8.25782 2.04616L8.19167 1.9668L8.16962 2.17088L7.83887 2.43166L7.96014 2.5337Z" fill="#C03F2A"/>
<path fill-rule="evenodd" clip-rule="evenodd" d="M8.58851 2.62282H8.50031L8.44518 2.53212L8.35698 2.62282H6.81348V1.29626H6.87963L6.81348 1.20556V1.10352L7.02295 1.39831V1.48901H6.9568V1.39831H6.87963V1.48901L7.47498 1.91986H7.98213V2.32803L8.21366 2.53212H8.35698L8.44518 2.43007L8.35698 2.33937H8.44518L8.58851 2.62282Z" fill="white"/>
<path fill-rule="evenodd" clip-rule="evenodd" d="M8.25776 2.62404H6.81348V1.49023L7.43088 1.96643H7.91598V2.34059L8.25776 2.62404Z" fill="#496E2D"/>
<path fill-rule="evenodd" clip-rule="evenodd" d="M7.47479 3.29297L7.77247 3.53107H7.93784L7.89374 3.61044L8.00399 3.78051L7.93784 3.87121L7.77247 3.78051L7.70632 3.87121L7.68427 3.65579L7.35352 3.39501L7.47479 3.29297Z" fill="#C03F2A"/>
<path fill-rule="evenodd" clip-rule="evenodd" d="M7.79482 3.09961L8.08147 3.36039H8.2689L8.21377 3.42841L8.33505 3.58715L8.2689 3.67785L8.08147 3.58715L8.03737 3.67785L8.0043 3.46243L7.68457 3.20165L7.79482 3.09961Z" fill="#C03F2A"/>
<path fill-rule="evenodd" clip-rule="evenodd" d="M7.96014 2.72656L8.25782 2.976H8.41217L8.37909 3.05537L8.47832 3.20276L8.41217 3.29347L8.25782 3.20276L8.19167 3.29347L8.16962 3.07804L7.83887 2.81727L7.96014 2.72656Z" fill="#C03F2A"/>
<path fill-rule="evenodd" clip-rule="evenodd" d="M8.58851 2.62305H8.50031L8.44518 2.72509L8.35698 2.62305H6.81348V3.9496H6.87963L6.81348 4.04031V4.14235L7.02295 3.87024V3.75686H6.9568V3.87024H6.87963V3.75686L7.47498 3.36002H7.98213V2.95185L8.21366 2.72509H8.35698L8.44518 2.81579L8.35698 2.9065H8.44518L8.58851 2.62305Z" fill="#E0852A"/>
<path fill-rule="evenodd" clip-rule="evenodd" d="M8.25776 2.62305H6.81348V3.75686L7.43088 3.29199H7.91598V2.9065L8.25776 2.62305Z" fill="#C03F2A"/>
<path fill-rule="evenodd" clip-rule="evenodd" d="M5.34668 2.62404H6.81301V1.49023L6.16253 1.96643H5.67743V2.34059L5.34668 2.62404Z" fill="#C03F2A"/>
<path fill-rule="evenodd" clip-rule="evenodd" d="M6.9568 2.62441L7.3537 2.34095H7.60728L7.51908 2.26159L7.68445 2.06884L7.60728 1.9668L7.3537 2.06884L7.28755 1.9668L7.25448 2.21624L6.81348 2.51103L6.9568 2.62441Z" fill="#C03F2A"/>
<path fill-rule="evenodd" clip-rule="evenodd" d="M6.64757 2.62305L6.25067 2.9065H5.9971L6.07427 3.00854L5.91992 3.20129L5.9971 3.29199L6.25067 3.20129L6.32785 3.29199L6.3499 3.03122L6.81295 2.72509L6.64757 2.62305Z" fill="#C03F2A"/>
<path fill-rule="evenodd" clip-rule="evenodd" d="M6.64757 2.62441L6.25067 2.34095H5.9971L6.07427 2.26159L5.91992 2.06884L5.9971 1.9668L6.25067 2.06884L6.32785 1.9668L6.3499 2.21624L6.81295 2.51103L6.64757 2.62441Z" fill="#496E2D"/>
<path fill-rule="evenodd" clip-rule="evenodd" d="M6.9568 2.62305L7.3537 2.9065H7.60728L7.51908 3.00854L7.68445 3.20129L7.60728 3.29199L7.3537 3.20129L7.28755 3.29199L7.25448 3.03122L6.81348 2.72509L6.9568 2.62305Z" fill="#496E2D"/>
<path fill-rule="evenodd" clip-rule="evenodd" d="M6.32812 2.62464L6.81323 2.14844L7.2873 2.62464L6.81323 3.10084L6.32812 2.62464Z" fill="white"/>
<path fill-rule="evenodd" clip-rule="evenodd" d="M5.24787 2.81579L5.303 2.9065L5.24787 3.00854H5.15967L4.9502 2.62305H5.01635L5.15967 2.9065H5.24787L5.15967 2.81579L5.24787 2.72509H5.3912V2.81579H5.24787Z" fill="#C03F2A"/>
<path fill-rule="evenodd" clip-rule="evenodd" d="M5.24787 2.43179L5.303 2.34109L5.24787 2.26172H5.15967L4.9502 2.62454H5.01635L5.15967 2.34109H5.24787L5.15967 2.43179L5.24787 2.53383H5.3912V2.43179H5.24787Z" fill="#C03F2A"/>
<path fill-rule="evenodd" clip-rule="evenodd" d="M8.35719 2.81579L8.29104 2.9065L8.35719 3.00854H8.44539L8.65487 2.62305H8.58872L8.44539 2.9065H8.35719L8.44539 2.81579L8.35719 2.72509H8.21387V2.81579H8.35719Z" fill="#C03F2A"/>
<path fill-rule="evenodd" clip-rule="evenodd" d="M8.35719 2.43179L8.29104 2.34109L8.35719 2.26172H8.44539L8.65487 2.62454H8.58872L8.44539 2.34109H8.35719L8.44539 2.43179L8.35719 2.53383H8.21387V2.43179H8.35719Z" fill="#C03F2A"/>
<path d="M6.86793 2.26172H6.72461V3.01003H6.86793V2.26172Z" fill="#C03F2A"/>
<path d="M7.09954 2.43164H6.49316V2.81714H7.09954V2.43164Z" fill="#C03F2A"/>
<path fill-rule="evenodd" clip-rule="evenodd" d="M6.14067 17.4648L4.80664 18.2585V19.6191L6.14067 20.4128H7.4747L8.81975 19.6191V18.2585L7.4747 17.4648H6.14067Z" fill="#496E2D"/>
<path fill-rule="evenodd" clip-rule="evenodd" d="M5.29199 18.6219H5.36917V18.4291H5.53454V18.6219H5.62274V18.1797H5.53454V18.3611H5.36917V18.1797H5.29199V18.6219Z" fill="#CF3B1D"/>
<path fill-rule="evenodd" clip-rule="evenodd" d="M7.33105 20.1414H7.40823V19.96H7.58463V20.1414H7.66181V19.6992H7.58463V19.892H7.40823V19.6992H7.33105V20.1414Z" fill="#CF3B1D"/>
<path fill-rule="evenodd" clip-rule="evenodd" d="M7.98145 18.6219H8.06965V18.4291H8.224V18.6219H8.3122V18.1797H8.224V18.3611H8.06965V18.1797H7.98145V18.6219Z" fill="#CF3B1D"/>
<path fill-rule="evenodd" clip-rule="evenodd" d="M7.98145 19.3926H8.06965V19.1998H8.224V19.3926H8.3122V18.9277H8.224V19.1432H8.06965V18.9277H7.98145V19.3926Z" fill="#CF3B1D"/>
<path fill-rule="evenodd" clip-rule="evenodd" d="M6.81348 20.345V18.9277H8.73183V19.574L7.46395 20.345H6.81348Z" fill="#E0852A"/>
<path fill-rule="evenodd" clip-rule="evenodd" d="M6.81345 17.5332V18.9278H4.87305V18.3042L6.16298 17.5332H6.81345Z" fill="#E0852A"/>
<path fill-rule="evenodd" clip-rule="evenodd" d="M6.81348 17.5332V18.9278H8.73183V18.3042L7.46395 17.5332H6.81348Z" fill="white"/>
<path fill-rule="evenodd" clip-rule="evenodd" d="M6.81345 20.345V18.9277H4.87305V19.574L6.16298 20.345H6.81345Z" fill="white"/>
<path fill-rule="evenodd" clip-rule="evenodd" d="M7.8388 18.384H8.59953L7.8388 17.9985V18.384ZM8.73183 18.3273V18.9509H7.51908V18.384H7.25448L6.93475 18.1912V17.7491L7.12218 17.545H6.87963V18.1912H6.81348V17.4883H7.46395L8.73183 18.3273Z" fill="#E0852A"/>
<path fill-rule="evenodd" clip-rule="evenodd" d="M6.16309 18.4971V19.3815H6.35051L6.81356 19.6309L7.25456 19.3815H7.46404V18.4971H7.25456L6.81356 18.2363L6.35051 18.4971H6.16309Z" fill="#C03F2A"/>
<path fill-rule="evenodd" clip-rule="evenodd" d="M5.76607 19.5177H4.99432L5.76607 19.9032V19.5177ZM4.87305 19.5857V18.9395H6.09683V19.4497H6.3504L6.615 19.6311V20.0846L6.42758 20.2773H6.72525V19.6311H6.81345V20.3454H6.16298L4.87305 19.5857Z" fill="#E0852A"/>
<path fill-rule="evenodd" clip-rule="evenodd" d="M5.76607 18.3836H4.99432L5.76607 17.9981V18.3836ZM4.87305 18.3269V18.9505H6.09683V18.3836H6.3504L6.615 18.2362V17.794L6.42758 17.5899H6.72525V18.2362H6.81345V17.5332H6.16298L4.87305 18.3269Z" fill="white"/>
<path fill-rule="evenodd" clip-rule="evenodd" d="M7.8388 19.5177H8.59953L7.8388 19.9032V19.5177ZM8.73183 19.5857V18.9395H7.51908V19.4497H7.25448L6.93475 19.6424V20.0959L7.12218 20.2887H6.87963V19.6311H6.81348V20.3454H7.46395L8.73183 19.5857Z" fill="white"/>
<path fill-rule="evenodd" clip-rule="evenodd" d="M5.24805 19.4383H5.32522V19.2455H5.4906V19.4383H5.5788V18.9961H5.4906V19.1775H5.32522V18.9961H5.24805V19.4383Z" fill="#C03F2A"/>
<path fill-rule="evenodd" clip-rule="evenodd" d="M6.01953 20.0844H6.09671V19.8916H6.26208V20.0844H6.35028V19.6309H6.26208V19.8236H6.09671V19.6309H6.01953V20.0844Z" fill="#C03F2A"/>
<path fill-rule="evenodd" clip-rule="evenodd" d="M5.24805 18.4297H5.32522V18.6224H5.4906V18.4297H5.5788V18.8832H5.4906V18.6905H5.32522V18.8832H5.24805V18.4297Z" fill="#C03F2A"/>
<path fill-rule="evenodd" clip-rule="evenodd" d="M6.01953 17.7949H6.09671V17.9763H6.26208V17.7949H6.35028V18.2371H6.26208V18.0444H6.09671V18.2371H6.01953V17.7949Z" fill="#C03F2A"/>
<path fill-rule="evenodd" clip-rule="evenodd" d="M8.02637 18.8832H8.10354V18.6905H8.26892V18.8832H8.35712V18.4297H8.26892V18.6224H8.10354V18.4297H8.02637V18.8832Z" fill="#C03F2A"/>
<path fill-rule="evenodd" clip-rule="evenodd" d="M7.25391 20.0844H7.33108V19.8916H7.49646V20.0844H7.58466V19.6309H7.49646V19.8236H7.33108V19.6309H7.25391V20.0844Z" fill="#C03F2A"/>
<path fill-rule="evenodd" clip-rule="evenodd" d="M8.02637 19.4383H8.10354V19.2455H8.26892V19.4383H8.35712V18.9961H8.26892V19.1775H8.10354V18.9961H8.02637V19.4383Z" fill="#C03F2A"/>
<path fill-rule="evenodd" clip-rule="evenodd" d="M7.25391 18.2371H7.33108V18.0444H7.49646V18.2371H7.58466V17.7949H7.49646V17.9763H7.33108V17.7949H7.25391V18.2371Z" fill="#C03F2A"/>
<path fill-rule="evenodd" clip-rule="evenodd" d="M6.87925 18.9281L7.1218 18.7127H7.2541V18.8148H7.1218V18.8828H7.30922V18.6447H7.1218V18.4746H6.87925V18.6447H6.93437V18.52H7.06667V18.6447L6.8131 18.8828L6.53747 18.6447V18.52H6.65875V18.6447H6.7249V18.4746H6.47132V18.6447H6.29492V18.8828H6.47132V18.8148H6.35005V18.7127H6.47132L6.7249 18.9281L6.47132 19.1662H6.35005V19.0529H6.47132V18.9962H6.29492V19.2229H6.47132V19.393H6.7249V19.2229H6.65875V19.359H6.53747V19.2229L6.8131 18.9962L7.06667 19.2229V19.359H6.93437V19.2229H6.87925V19.393H7.1218V19.2229H7.30922V18.9962H7.1218V19.0529H7.2541V19.1662H7.1218L6.87925 18.9281Z" fill="#496E2D"/>
<path fill-rule="evenodd" clip-rule="evenodd" d="M4.99414 7.06916L5.11542 6.89909H5.87614L6.43842 6.16211H7.18812L7.7504 6.89909H8.47805L8.59933 7.06916L8.47805 7.23923H7.7504L7.18812 7.98754H6.43842L5.87614 7.23923H5.11542L4.99414 7.06916Z" fill="#C03F2A"/>
<path fill-rule="evenodd" clip-rule="evenodd" d="M5.06055 6.87451L5.11567 6.80648H5.88742L6.47175 6.10352H7.12223L7.70655 6.80648H8.47831L8.54446 6.87451L8.47831 6.9312H7.70655L7.18838 7.55479H6.41663L5.88742 6.9312H5.11567L5.06055 6.87451Z" fill="#C03F2A"/>
<path fill-rule="evenodd" clip-rule="evenodd" d="M7.1217 6.93158L7.37527 7.21503L7.254 7.36243H7.18785H7.1217L7.18785 7.45313H7.30912L7.4304 7.30574V7.147L7.18785 6.85221L7.4304 6.54608V6.42136L7.30912 6.27397H7.18785L7.1217 6.342V6.42136H7.18785L7.254 6.342L7.37527 6.48939L7.1217 6.78418L6.87915 6.48939L7.1217 6.18326V6.11523L6.86812 6.42136L6.61455 6.11523H6.49327V6.18326L6.74685 6.48939L6.49327 6.78418L6.25072 6.48939L6.372 6.342L6.43815 6.42136V6.342V6.27397H6.30585L6.18457 6.42136V6.54608L6.43815 6.85221L6.18457 7.147V7.30574L6.30585 7.45313H6.43815V7.36243H6.372L6.25072 7.21503L6.49327 6.93158L6.74685 7.21503L6.49327 7.50982V7.60053H6.61455L6.86812 7.30574L7.1217 7.60053V7.50982L6.87915 7.21503L7.1217 6.93158ZM6.813 6.54608L6.61455 6.85221L6.86812 7.147L7.1217 6.85221L6.813 6.54608Z" fill="#E0852A"/>
<path fill-rule="evenodd" clip-rule="evenodd" d="M6.43848 7.66992V8.23683L6.4936 8.18014L6.55975 8.23683L6.6259 8.18014L6.68103 8.23683L6.74718 8.18014L6.81333 8.23683L6.87948 8.18014L6.9346 8.23683L7.00075 8.18014L7.0669 8.23683L7.12203 8.18014L7.18818 8.23683V7.66992H6.43848Z" fill="#E0852A"/>
<path fill-rule="evenodd" clip-rule="evenodd" d="M7.18818 6.03723V5.45898L7.12203 5.52701L7.0669 5.45898L7.00075 5.52701L6.9346 5.45898L6.87948 5.52701L6.81333 5.45898L6.74718 5.52701L6.68103 5.45898L6.6259 5.52701L6.55975 5.45898L6.4936 5.52701L6.43848 5.45898V6.03723H7.18818Z" fill="#E0852A"/>
<path fill-rule="evenodd" clip-rule="evenodd" d="M8.22408 6.70482V6.11523L8.16895 6.18326L8.1028 6.11523L8.03665 6.18326L7.98153 6.11523L7.93742 6.18326L7.87127 6.11523L7.81615 6.18326L7.75 6.11523V6.70482H8.22408Z" fill="#E0852A"/>
<path fill-rule="evenodd" clip-rule="evenodd" d="M5.87629 6.70482V6.11523L5.81014 6.18326L5.74399 6.11523L5.67784 6.18326L5.62272 6.11523L5.55657 6.18326L5.49042 6.11523L5.43529 6.18326L5.36914 6.11523V6.70482H5.87629Z" fill="#E0852A"/>
<path fill-rule="evenodd" clip-rule="evenodd" d="M8.22408 7V7.60092L8.16895 7.51021L8.1028 7.60092L8.03665 7.51021L7.98153 7.60092L7.93742 7.51021L7.87127 7.60092L7.81615 7.51021L7.75 7.60092V7H8.22408Z" fill="#E0852A"/>
<path fill-rule="evenodd" clip-rule="evenodd" d="M5.87629 7V7.60092L5.81014 7.51021L5.74399 7.60092L5.67784 7.51021L5.62272 7.60092L5.55657 7.51021L5.49042 7.60092L5.43529 7.51021L5.36914 7.60092V7H5.87629Z" fill="#E0852A"/>
<path fill-rule="evenodd" clip-rule="evenodd" d="M7.18848 7.66895V8.03177L7.25463 7.96374L7.30975 8.03177L7.3759 7.96374L7.43103 8.03177L7.49718 7.96374L7.56333 8.03177L7.62948 7.96374L7.6846 8.03177L7.75075 7.96374V7L7.18848 7.66895Z" fill="#496E2D"/>
<path fill-rule="evenodd" clip-rule="evenodd" d="M6.43825 7.66895V8.03177L6.3721 7.96374L6.30595 8.03177L6.25083 7.96374L6.18468 8.03177L6.11853 7.96374L6.0634 8.03177L5.99725 7.96374L5.9311 8.03177L5.87598 7.96374V7L6.43825 7.66895Z" fill="#496E2D"/>
<path fill-rule="evenodd" clip-rule="evenodd" d="M6.43825 6.03665V5.67383L6.3721 5.7532L6.30595 5.67383L6.25083 5.7532L6.18468 5.67383L6.11853 5.7532L6.0634 5.67383L5.99725 5.7532L5.9311 5.67383L5.87598 5.7532V6.7056L6.43825 6.03665Z" fill="#496E2D"/>
<path fill-rule="evenodd" clip-rule="evenodd" d="M7.18848 6.03665V5.67383L7.25463 5.7532L7.30975 5.67383L7.3759 5.7532L7.43103 5.67383L7.49718 5.7532L7.56333 5.67383L7.62948 5.7532L7.6846 5.67383L7.75075 5.7532V6.7056L7.18848 6.03665Z" fill="#496E2D"/>
<path fill-rule="evenodd" clip-rule="evenodd" d="M5.36917 7.45455L5.30302 7.36385L5.2479 7.45455L5.18175 7.36385L5.1156 7.45455L5.06047 7.36385L4.99432 7.45455L4.92817 7.36385L4.87305 7.45455V6.27539L4.92817 6.34342L4.99432 6.27539L5.06047 6.34342L5.1156 6.27539L5.18175 6.34342L5.2479 6.27539L5.30302 6.34342L5.36917 6.27539V6.70624H5.1156L4.99432 6.85363L5.1156 7.00103H5.36917V7.45455Z" fill="#496E2D"/>
<path fill-rule="evenodd" clip-rule="evenodd" d="M8.22461 7.45455L8.29076 7.36385L8.35691 7.45455L8.41203 7.36385L8.47818 7.45455L8.54433 7.36385L8.59946 7.45455L8.66561 7.36385L8.73176 7.45455V6.27539L8.66561 6.34342L8.59946 6.27539L8.54433 6.34342L8.47818 6.27539L8.41203 6.34342L8.35691 6.27539L8.29076 6.34342L8.22461 6.27539V6.70624H8.47818L8.59946 6.85363L8.47818 7.00103H8.22461V7.45455Z" fill="#496E2D"/>
<path fill-rule="evenodd" clip-rule="evenodd" d="M6.11816 7.71461C6.11816 7.71461 6.11816 7.71461 6.11816 7.79398C6.1248 7.81209 6.13511 7.82854 6.14842 7.84223C6.16173 7.85592 6.17773 7.86652 6.19534 7.87335C6.21581 7.87335 6.23544 7.86498 6.24991 7.8501C6.26438 7.83522 6.27251 7.81503 6.27251 7.79398V7.71461V7.60123C6.27251 7.60123 6.40481 7.79398 6.40481 7.71461C6.40481 7.63525 6.27251 7.5332 6.27251 7.5332C6.27251 7.5332 6.15124 7.66926 6.15124 7.71461C6.15124 7.75997 6.27251 7.60123 6.27251 7.60123L6.11816 7.71461Z" fill="white"/>
<path fill-rule="evenodd" clip-rule="evenodd" d="M6.76916 7.94084C6.76916 7.94084 6.70301 8.00887 6.70301 8.05422C6.70301 8.09958 6.76916 8.17894 6.81326 8.17894C6.85736 8.17894 6.89044 8.09958 6.89044 8.05422C6.8989 8.01693 6.8989 7.97814 6.89044 7.94084V7.77077C6.89044 7.77077 6.98966 8.03155 6.98966 7.91817C6.97202 7.8364 6.93825 7.75922 6.89044 7.69141H6.76916C6.76916 7.69141 6.64789 7.87282 6.65891 7.91817C6.66994 7.96352 6.76916 7.77077 6.76916 7.77077V7.94084Z" fill="#C03F2A"/>
<path fill-rule="evenodd" clip-rule="evenodd" d="M6.25065 6.85374C6.25065 6.85374 6.1845 6.93311 6.11835 6.93311C6.0522 6.93311 5.99707 6.93311 5.99707 6.85374C5.99707 6.77438 5.99707 6.78572 6.11835 6.78572C6.23962 6.78572 6.25065 6.78572 6.25065 6.85374Z" fill="#496E2D"/>
<path fill-rule="evenodd" clip-rule="evenodd" d="M6.93424 6.85374C6.93424 6.85374 6.93424 6.93311 6.81296 6.93311C6.69169 6.93311 6.68066 6.93311 6.68066 6.85374C6.68066 6.77438 6.68066 6.78572 6.81296 6.78572C6.94526 6.78572 6.93424 6.78572 6.93424 6.85374Z" fill="#496E2D"/>
<path fill-rule="evenodd" clip-rule="evenodd" d="M7.62858 6.85374C7.62858 6.85374 7.56243 6.93311 7.49628 6.93311C7.43013 6.93311 7.375 6.93311 7.375 6.85374C7.375 6.77438 7.375 6.78572 7.49628 6.78572C7.61755 6.78572 7.62858 6.78572 7.62858 6.85374Z" fill="#496E2D"/>
<path fill-rule="evenodd" clip-rule="evenodd" d="M6.0963 6.01306C6.08008 5.98107 6.06891 5.94662 6.06322 5.91102V5.82031C6.06322 5.82031 6.15142 5.88834 6.15142 5.91102C6.15719 5.94477 6.15719 5.9793 6.15142 6.01306V6.1151C6.15142 6.1151 6.26167 5.93369 6.26167 6.01306C6.26167 6.09243 6.15142 6.18313 6.15142 6.18313H6.0963C6.0963 6.18313 5.99707 6.05841 5.99707 6.01306C5.99707 5.96771 6.0963 6.1151 6.0963 6.1151V6.01306Z" fill="white"/>
<path fill-rule="evenodd" clip-rule="evenodd" d="M6.74753 5.77521C6.74753 5.77521 6.68138 5.69584 6.68138 5.65049C6.70623 5.60217 6.74465 5.56266 6.79163 5.53711C6.79163 5.53711 6.87983 5.60514 6.87983 5.65049C6.87983 5.69584 6.81368 5.77521 6.81368 5.77521V5.91127C6.81368 5.91127 6.93496 5.63915 6.93496 5.76387C6.93496 5.88859 6.81368 5.9793 6.81368 5.9793H6.74753C6.74753 5.9793 6.61523 5.84324 6.61523 5.79789C6.61523 5.75253 6.71446 5.94528 6.71446 5.94528L6.74753 5.77521Z" fill="#C03F2A"/>
<path fill-rule="evenodd" clip-rule="evenodd" d="M7.46348 7.71461C7.46348 7.71461 7.39733 7.71461 7.39733 7.79398C7.39733 7.87335 7.46348 7.87335 7.47451 7.87335C7.48553 7.87335 7.56271 7.87335 7.56271 7.79398C7.56271 7.71461 7.49656 7.71461 7.49656 7.71461V7.60123C7.49656 7.60123 7.62886 7.79398 7.62886 7.71461C7.62886 7.63525 7.49656 7.5332 7.49656 7.5332C7.49656 7.5332 7.36426 7.66926 7.36426 7.71461C7.36426 7.75997 7.49656 7.60123 7.49656 7.60123L7.46348 7.71461Z" fill="white"/>
<path fill-rule="evenodd" clip-rule="evenodd" d="M7.43028 6.01306C7.42529 5.97924 7.42529 5.94484 7.43028 5.91102C7.43028 5.91102 7.43028 5.82031 7.49643 5.82031C7.56258 5.82031 7.57361 5.88834 7.57361 5.91102C7.57937 5.94477 7.57937 5.9793 7.57361 6.01306V6.1151C7.57361 6.1151 7.68386 5.93369 7.68386 6.01306C7.68386 6.09243 7.57361 6.18313 7.57361 6.18313H7.43028C7.43028 6.18313 7.33105 6.05841 7.33105 6.01306C7.33105 5.96771 7.43028 6.1151 7.43028 6.1151V6.01306Z" fill="white"/>
<path fill-rule="evenodd" clip-rule="evenodd" d="M5.57866 7.30641C5.57866 7.30641 5.51251 7.3631 5.51251 7.38578C5.51251 7.40845 5.60071 7.47648 5.62276 7.47648C5.6456 7.47169 5.66681 7.46078 5.68424 7.44485C5.70166 7.42893 5.71468 7.40855 5.72199 7.38578V7.30641V7.19303C5.72199 7.19303 5.84326 7.3631 5.84326 7.28373C5.84326 7.20437 5.72199 7.125 5.72199 7.125H5.57866C5.57866 7.125 5.43533 7.24972 5.45738 7.28373C5.47943 7.31775 5.57866 7.19303 5.57866 7.19303V7.30641Z" fill="#C03F2A"/>
<path fill-rule="evenodd" clip-rule="evenodd" d="M5.51225 6.46695C5.51225 6.46695 5.51225 6.42159 5.51225 6.37624C5.51225 6.33089 5.5784 6.29688 5.6225 6.29688C5.64452 6.29952 5.6654 6.30831 5.6829 6.32231C5.70039 6.3363 5.71382 6.35495 5.72173 6.37624L5.64455 6.46695V6.56899C5.64455 6.56899 5.76583 6.39892 5.76583 6.48962C5.76583 6.58033 5.64455 6.63702 5.64455 6.63702H5.51225C5.51225 6.63702 5.36893 6.5123 5.39098 6.48962C5.41303 6.46695 5.51225 6.56899 5.51225 6.56899V6.46695Z" fill="#C03F2A"/>
<path fill-rule="evenodd" clip-rule="evenodd" d="M7.98154 7.28373C7.98154 7.28373 7.91539 7.28373 7.91539 7.3631C7.91539 7.44247 7.98154 7.4538 8.02564 7.4538C8.06974 7.4538 8.12487 7.38578 8.12487 7.3631C8.12487 7.34042 8.03667 7.28373 8.03667 7.28373V7.17035C8.03667 7.17035 8.16897 7.34042 8.16897 7.28373C8.16897 7.22704 8.03667 7.125 8.03667 7.125C8.03667 7.125 7.89334 7.23838 7.91539 7.28373C7.93744 7.32909 8.03667 7.17035 8.03667 7.17035L7.98154 7.28373Z" fill="#C03F2A"/>
<path fill-rule="evenodd" clip-rule="evenodd" d="M7.95952 6.44442C7.95952 6.44442 7.89337 6.44442 7.89337 6.35371C7.90573 6.33724 7.9216 6.32391 7.93976 6.31473C7.95791 6.30555 7.97788 6.30078 7.99811 6.30078C8.01834 6.30078 8.0383 6.30555 8.05646 6.31473C8.07461 6.32391 8.09048 6.33724 8.10284 6.35371L8.02567 6.44442V6.54646C8.02567 6.54646 8.14694 6.37639 8.14694 6.46709C8.14694 6.5578 8.02567 6.61449 8.02567 6.61449H7.95952C7.95952 6.61449 7.81619 6.48977 7.83824 6.46709C7.86029 6.44442 7.95952 6.54646 7.95952 6.54646V6.44442Z" fill="#C03F2A"/>
<path fill-rule="evenodd" clip-rule="evenodd" d="M5.06059 7.30565C5.04881 7.26883 5.04881 7.22909 5.06059 7.19227C5.06059 7.19227 5.06059 7.10156 5.13777 7.10156C5.21494 7.10156 5.20392 7.16959 5.20392 7.19227V7.30565V7.21494C5.20392 7.33966 5.20392 7.33966 5.13777 7.21494L5.06059 7.30565Z" fill="white"/>
<path fill-rule="evenodd" clip-rule="evenodd" d="M5.06055 6.44386C5.06055 6.44386 5.06055 6.52323 5.06055 6.5459C5.06055 6.56858 5.06055 6.63661 5.13772 6.63661C5.2149 6.63661 5.20387 6.56858 5.20387 6.52323V6.44386V6.52323C5.20387 6.39851 5.20387 6.39851 5.13772 6.52323L5.06055 6.44386Z" fill="white"/>
<path fill-rule="evenodd" clip-rule="evenodd" d="M8.44462 7.28297C8.43734 7.26501 8.43359 7.24574 8.43359 7.22628C8.43359 7.20682 8.43734 7.18755 8.44462 7.16959C8.44462 7.16959 8.51077 7.10156 8.53282 7.10156C8.55539 7.10403 8.57646 7.11437 8.59251 7.13088C8.60856 7.14739 8.61862 7.16905 8.62102 7.19227C8.62788 7.22973 8.62788 7.26818 8.62102 7.30565V7.21494C8.62102 7.31699 8.62102 7.31699 8.55487 7.21494L8.44462 7.28297Z" fill="white"/>
<path fill-rule="evenodd" clip-rule="evenodd" d="M8.44478 6.44417C8.43638 6.46992 8.43638 6.49779 8.44478 6.52354C8.44478 6.52354 8.51093 6.61424 8.53298 6.61424C8.55503 6.61424 8.62118 6.54621 8.62118 6.52354V6.42149V6.5122C8.62118 6.37614 8.62118 6.37614 8.55503 6.5122L8.44478 6.44417Z" fill="white"/>
<path fill-rule="evenodd" clip-rule="evenodd" d="M6.41629 8.25917V8.05508H5.83197V7.64691H5.30277V7.48817H4.87279V6.22964H5.30277V6.10493H5.83197V5.67408H6.41629V5.48133H7.18805V5.67408H7.77237V6.10493H8.29055V6.22964H8.73155V7.48817H8.29055V7.64691H7.77237V8.05508H7.18805V8.25917H6.41629ZM6.35014 8.32719V8.1798H5.76582V7.71494H5.24764V7.5562H4.80664V6.16162H5.24764V6.0369H5.76582V5.60605H6.35014V5.39062H7.2542V5.60605H7.83852V6.0369H8.3567V6.16162H8.81975V7.5562H8.3567V7.71494H7.83852V8.1798H7.2542V8.37255L6.35014 8.32719Z" fill="#C03F2A"/>
<path fill-rule="evenodd" clip-rule="evenodd" d="M17.7165 5.22086C17.74 4.84342 17.6881 4.46503 17.5638 4.10906C17.4395 3.75309 17.2456 3.42711 16.994 3.15125C16.7424 2.87539 16.4385 2.65551 16.101 2.5052C15.7635 2.35489 15.3997 2.27734 15.0319 2.27734C14.6641 2.27734 14.3003 2.35489 13.9628 2.5052C13.6253 2.65551 13.3214 2.87539 13.0698 3.15125C12.8182 3.42711 12.6243 3.75309 12.5 4.10906C12.3758 4.46503 12.3238 4.84342 12.3473 5.22086C12.3238 5.59829 12.3758 5.97668 12.5 6.33265C12.6243 6.68862 12.8182 7.0146 13.0698 7.29046C13.3214 7.56632 13.6253 7.7862 13.9628 7.93651C14.3003 8.08682 14.6641 8.16437 15.0319 8.16437C15.3997 8.16437 15.7635 8.08682 16.101 7.93651C16.4385 7.7862 16.7424 7.56632 16.994 7.29046C17.2456 7.0146 17.4395 6.68862 17.5638 6.33265C17.6881 5.97668 17.74 5.59829 17.7165 5.22086Z" fill="white"/>
<path fill-rule="evenodd" clip-rule="evenodd" d="M16.978 4.77814C16.9737 4.23822 16.8139 3.71172 16.5188 3.26512C16.2237 2.81852 15.8066 2.47184 15.3201 2.26883C14.8335 2.06583 14.2994 2.01561 13.7852 2.12452C13.2709 2.23342 12.7996 2.49656 12.4307 2.88072C12.0617 3.26489 11.8117 3.75285 11.7122 4.28301C11.6127 4.81317 11.6682 5.36177 11.8716 5.85954C12.075 6.35731 12.4173 6.78194 12.8552 7.07984C13.2931 7.37773 13.807 7.53552 14.332 7.5333C14.6819 7.53182 15.028 7.4593 15.3506 7.31989C15.6731 7.18049 15.9657 6.97695 16.2115 6.72096C16.4574 6.46497 16.6517 6.16157 16.7832 5.82817C16.9147 5.49476 16.9809 5.13793 16.978 4.77814Z" fill="#496E2D"/>
<path fill-rule="evenodd" clip-rule="evenodd" d="M15.3799 3.67904H14.9941L14.8948 4.06454L14.7736 3.67904H14.3877L14.6854 3.44094L14.5641 3.07812L14.8728 3.29355L15.1925 3.07812L15.0823 3.44094L15.3799 3.67904Z" fill="#FBFCFC"/>
<path fill-rule="evenodd" clip-rule="evenodd" d="M14.0122 2.97592L13.6373 2.9986L13.5381 3.36141L13.4168 2.9986L13.042 2.97592L13.3286 2.72648L13.1963 2.375L13.5161 2.57909L13.8137 2.375L13.7255 2.72648L14.0122 2.97592Z" fill="#FBFCFC"/>
<path fill-rule="evenodd" clip-rule="evenodd" d="M14.0122 4.38141H13.6373L13.5381 4.74423L13.4168 4.38141H13.042L13.3286 4.14331L13.1963 3.75781L13.5161 3.99591L13.8137 3.75781L13.7255 4.14331L14.0122 4.38141Z" fill="#FBFCFC"/>
<path fill-rule="evenodd" clip-rule="evenodd" d="M14.0122 5.79742H13.6373L13.5381 6.16024L13.4168 5.79742H13.042L13.3286 5.55932L13.1963 5.17383L13.5161 5.41193L13.8137 5.17383L13.7255 5.55932L14.0122 5.79742Z" fill="#FBFCFC"/>
<path fill-rule="evenodd" clip-rule="evenodd" d="M12.656 5.07358H12.2812L12.182 5.45907L12.0497 5.07358H11.6748L11.9725 4.83548L11.8512 4.47266L12.1599 4.68808L12.4686 4.47266L12.3694 4.83548L12.656 5.07358Z" fill="#FBFCFC"/>
<path fill-rule="evenodd" clip-rule="evenodd" d="M7.25391 20.0844H7.33108V19.8916H7.49646V20.0844H7.58466V19.6309H7.49646V19.8236H7.33108V19.6309H7.25391V20.0844Z" fill="#C03F2A"/>
</svg>
